<?xml version="1.0" standalone="no"?>
<!DOCTYPE svg PUBLIC "-//W3C//DTD SVG 1.1//EN" "http://www.w3.org/Graphics/SVG/1.1/DTD/svg11.dtd" >
<svg xmlns="http://www.w3.org/2000/svg" xmlns:xlink="http://www.w3.org/1999/xlink" version="1.1">
<metadata></metadata>
<defs>
<font id="registration_plate_ukregular" horiz-adv-x="1398" >
<font-face units-per-em="2048" ascent="1638" descent="-410" />
<missing-glyph horiz-adv-x="1024" />
<glyph horiz-adv-x="0" />
<glyph horiz-adv-x="682" />
<glyph unicode=" "  horiz-adv-x="1024" />
<glyph unicode="&#x09;" horiz-adv-x="1024" />
<glyph unicode="&#xa0;" horiz-adv-x="1024" />
<glyph unicode="!" horiz-adv-x="471" d="M160 1405q4 33 22.5 49t40.5 16q23 0 39.5 -15t20.5 -48v-1098q-8 -29 -25.5 -42t-38.5 -13q-18 0 -35.5 12.5t-23.5 40.5v1098zM182 2q-47 23 -47 61q0 25 24.5 57t65.5 32q37 0 53.5 -30t16.5 -52q0 -41 -21.5 -59.5t-52.5 -18.5q-14 0 -39 10z" />
<glyph unicode="&#x22;" horiz-adv-x="649" d="M127 1376q4 33 22.5 49.5t40.5 16.5q31 0 46.5 -49.5t22.5 -119t8 -143t1 -124.5q-8 -29 -25.5 -42.5t-37.5 -13.5q-31 0 -47.5 48.5t-22.5 116t-7 140t-1 121.5zM399 1341q4 33 22.5 49.5t41.5 16.5t39 -15.5t20 -48.5q0 -47 3 -114.5t-1 -131t-19.5 -107.5t-49.5 -44 q-18 0 -36 12.5t-24 40.5q0 86 2 171t2 171z" />
<glyph unicode="#" horiz-adv-x="1064" d="M209 403q-31 4 -46.5 20.5t-15.5 39.5q0 18 11.5 34.5t36.5 26.5q29 4 57.5 6t56.5 7l6 36q10 72 16.5 142.5t12.5 142.5q-76 -2 -149 -12q-31 4 -46.5 20.5t-15.5 38.5q0 18 11.5 34.5t35.5 27.5q43 4 87 8t87 6q10 104 26.5 204.5t45.5 203.5q10 18 25.5 27t31.5 9 q25 0 43.5 -18t16.5 -53q-27 -92 -42.5 -184.5t-25.5 -186.5h86t86 -2q6 41 13.5 80t15.5 80q10 53 19.5 118.5t35.5 112.5q20 37 55 37q29 0 49.5 -25.5t6.5 -66.5q-8 -8 -18.5 -52t-20.5 -97.5t-17.5 -101.5t-9.5 -65q-2 -6 -2 -12t-2 -10q27 -2 53.5 -2h53.5 q27 -8 40 -25.5t13 -38.5q0 -20 -14.5 -36.5t-43.5 -22.5h-62.5t-61.5 2q-16 -76 -29.5 -150.5t-28.5 -150.5q39 2 78 2h78q27 -8 40 -25.5t13 -37.5t-14.5 -37t-42.5 -23h-86t-86 -2q-6 -45 -6 -90t-9 -92q-6 -53 -20 -106.5t-25 -106.5q-18 -47 -59 -47q-16 0 -33.5 10 t-27.5 33v2q-2 6 -1 13t1 13q2 0 2 2q0 4 2 9h-2q0 2 1 2t1 2q2 14 6 34.5t8 40t7 34t3 16.5q16 55 20.5 112.5t10.5 114.5q-35 -2 -70 -3t-69 -3q-2 -14 -4 -27.5t-5 -27.5q-8 -41 -13 -87.5t-12 -94.5t-19.5 -93t-32.5 -84q-49 -59 -105 -4q0 4 -4 4q-12 23 -9 44.5 t17 33.5q4 10 6 22.5t7 22.5q10 72 24 141.5t27 139.5q-20 -2 -40 -4.5t-40 -4.5zM461 862q-8 -80 -14.5 -158.5t-16.5 -158.5q35 4 71 5t70 3q4 18 8.5 37.5t8.5 38.5v2q10 57 19 113.5t20 115.5q-41 0 -83 1t-83 1zM494 72q0 -6 -2 -11v2q0 5 2 9z" />
<glyph unicode="$" horiz-adv-x="1419" d="M678 344q-4 2 -12.5 9t-12.5 7l-28 29q-2 0 -6.5 7t-6.5 12q-4 4 -6 11t-10 7l-6 -2q-23 -12 -51.5 -24.5t-55.5 -18.5q-4 0 -9 -1t-11 -1t-6 10l-21 64q-4 6 -8 22.5t-8 26.5q-2 10 -5 19t-7 20q-4 14 -7.5 26.5t-7.5 22.5q0 4 -4 8l-16 49q-4 20 -13.5 43t-13.5 43 q-6 23 -13 43.5t-14 40.5q-14 47 -28.5 90t-30.5 88q-2 23 -11 44.5t-18 43.5q-4 20 -11 40t-13 40l-55 172q-4 8 -4.5 17.5t-6.5 17.5q-4 4 -3 3t-3 3q-10 10 -19.5 18.5t-15.5 18.5q-2 4 -4 10.5t-2 10.5v47q4 10 7 18t12 19q8 8 16 14t12 14t4 16.5t5 16.5v33l6 12 q4 4 10 12.5t12 8.5h27q6 6 14 12q12 8 19 12q25 16 51 30.5t57 22.5q8 2 25 2l4 2q0 2 4 3h96h2l2 -3q2 0 2 -2q45 -2 88 -16q53 -16 102.5 -31.5t102.5 -29.5q10 -2 19.5 -3.5t19.5 -3.5q2 -2 4 -2q2 -2 4 -2h11.5t11.5 -2h2h18q57 0 117.5 20.5t114.5 41.5q20 8 42.5 19 t45.5 11q18 0 36.5 -9t24.5 -29v-2q0 -2 2 -5q0 -4 2 -6q0 -2 2 -4v-26q-4 -6 -4 -19q0 -10 10.5 -16t10.5 -17v-34q0 -4 -2 -7q-2 -2 -2 -4t-2 -2q-2 -2 -3.5 -5t-3.5 -3q0 -2 -6 -8l-10 -10q-2 0 -11 -6.5t-9 -10.5q0 -6 4 -18q2 -6 6 -29.5t8 -25.5l4 -3q10 -4 21 -10 q8 -8 12 -20q0 -2 4 -11q2 -4 2 -6v-39l-4 -8q-2 -4 -2 -8v-6q-2 -4 -5 -9t-7 -10q-6 -6 -11 -12v-53l-2 -4v-39q-2 0 -2 -2v-2q0 -4 -1 -15.5t-1 -15.5q-4 -4 -4 -13v-16q-2 -12 -5 -24t-5 -25q-6 -43 -18.5 -85t-26.5 -83q-10 -37 -26.5 -71.5t-35.5 -69.5 q-2 -4 -11 -18.5t-11 -16.5q0 -2 -3 -8t-5 -8q-4 -6 -4 -13.5t-5 -13.5v-43q-4 -4 -4 -6t-2 -8q-4 -16 -18 -33.5t-31 -19.5q-6 0 -9 1t-7 -3q-8 -4 -10.5 -11.5t-6.5 -15.5q-8 -12 -20 -29.5t-23 -29.5v-2q0 -4 2 -5h5q8 -4 22 -15t14 -21v-48q0 -10 -7 -21t-13 -20 q-14 -20 -34.5 -31.5t-43.5 -15.5q-6 -2 -11 -4t-9 -2h-16.5t-16.5 -4h-47q-4 4 -14.5 4h-14.5q-6 0 -11 2t-11 4h-5q-16 4 -34.5 12.5t-30.5 16.5zM774 432q0 -6 6 -13t11 -11q29 -39 77 -39q12 0 23.5 4t23.5 10q8 16 9 25q0 6 -3 17t-14 11h-2q-2 -2 -2 -4q0 -4 2 -9 t2 -9q0 -12 -12 -18.5t-23 -6.5q-16 0 -25 10.5t-9 26.5q0 10 4 21.5t8 21.5q27 41 56.5 80t58.5 80q2 4 6 11t10 7q4 0 5 -2t5 -2q10 0 15.5 8t9.5 15v22q2 10 3 20.5t7 18.5q4 4 8 10t8 13q4 10 7.5 16t7.5 12l47 94q2 10 10 26.5t12 25.5q10 35 20.5 66.5t18.5 66.5 q2 14 2 26.5t4 26.5l3 4q0 2 2 4v27v2l2 2v39q4 4 4 10v70q0 6 3 10t7 10q0 4 5 12.5t5 10.5q4 10 8 26v31l-4 6h-8q-4 0 -10 -3t-10 -3q-10 0 -11.5 21.5t-1.5 27.5q0 2 -3 9.5t-6 16.5t-5 16t-4 7q-4 0 -8 -3t-9 -5q-4 0 -12 -4l-12 -6q-23 -8 -47.5 -13t-48.5 -5l-2 -3 q-10 -23 -22.5 -45t-22.5 -45l-7 -6v-2q-4 -4 -11 -20.5t-11 -20.5q0 -2 -4 -7t-4 -7q-12 -23 -23.5 -46.5t-23.5 -45.5q-2 -4 -5 -6q-2 -2 -2 -5q0 -2 -2 -2q-27 -47 -52 -96t-52 -96q-4 -10 -12.5 -23.5t-8.5 -23.5q0 -4 2.5 -8t6.5 -4l4 6q2 4 9 19t9 20l6 6 q18 39 40 75.5t42 73.5q2 6 9.5 22.5t11.5 22.5q6 8 11 18.5t11 20.5q14 33 29 55q20 37 39.5 75t40.5 75q0 6 6 6q23 4 42 8t42 13q8 4 15 7t16 3q4 0 7 -10.5t6 -23.5t5 -26.5t2 -17.5v-6q2 -8 2 -16.5t4 -16.5v-41q2 -4 2 -10v-64l-2 -10v-45q-4 -4 -4 -13v-16 q-2 -2 -2 -4v-6v-18q-2 0 -2 -4q0 -2 -2 -4q-4 -12 -4 -24.5t-2 -23.5q-4 -10 -7 -22t-7 -25q-6 -23 -12.5 -45t-16.5 -45q-8 -10 -14 -28l-43 -84q-4 -6 -8.5 -14.5t-8.5 -16.5q-2 0 -2 -2q-2 -2 -2 -4q-8 -16 -16.5 -29.5t-18.5 -30.5q-29 -41 -55.5 -80.5t-58.5 -76.5 q0 -4 -3.5 -7.5l-5.5 -5.5l-94 -94v-2zM532 778q12 -27 22.5 -53.5t23.5 -52.5q4 -10 9 -20.5t9 -20.5v-6q12 -23 23.5 -47.5t21.5 -47.5q4 -10 6 -18t6 -14q0 -2 4 -2t22.5 13t25.5 17q2 2 9 8.5t9 6.5q2 4 12 13t13 11q0 2 4 3t6 1l28 31q0 2 2 4q4 4 13.5 15.5t13.5 11.5 q6 8 11 16t12 17q39 43 69 96q8 10 12.5 18t10.5 19l47 92q0 8 6 18q2 2 7 15.5t7 15.5q10 29 18.5 60.5t14.5 60.5q2 10 2 17t2 16l2 8q4 12 4 23.5t2 23.5v4v137v8q0 2 -1 10.5t-1 12.5q0 6 -4 6t-4 -2q-10 -23 -22.5 -45.5t-22.5 -44.5l-6 -6q-10 -23 -22.5 -45.5 t-24.5 -44.5q0 -2 -2 -4l-4 -5q0 -2 -2 -2q0 -4 -5.5 -16t-9.5 -16q-2 -2 -7 -10.5t-5 -10.5q-12 -20 -22.5 -40.5t-20.5 -41.5q-14 -25 -27.5 -50.5t-27.5 -51.5q-2 0 -2 -2t-2 -4q-2 -4 -5.5 -9.5t-5.5 -9.5v-4q0 -2 7 -10q0 -2 6 -10.5t8 -12.5q8 -12 16 -25.5t17 -27.5 q6 -10 11 -20.5t15 -20.5v-2q0 -12 -13 -25.5t-17 -23.5l-52 -51h-4q-6 0 -6 3t-4 7q-8 16 -16.5 29.5t-14.5 27.5l-49 101q-4 4 -6 9t-6 9q-2 6 -8 17.5t-13.5 24.5t-12.5 25.5t-7 16.5l-4 8t-6 6l-52 103l-4 4l-53 106q-4 6 -5 11.5t-5 9.5l-45 86l-4 6q-2 4 -7.5 17.5 t-9.5 17.5q-2 4 -4 6t-2 6l-26 53q-2 0 -5.5 5.5t-3.5 7.5q-4 4 -10 17t-8 18h-4l-6 -11v-2q4 -10 10 -22.5t10 -20.5q0 -4 2 -6l4 -4l56 -106l2 -7l53 -104q4 -4 7 -10t7 -11l47 -98l9 -10l53 -107q0 -2 2 -4q0 -2 2 -4q2 -4 6 -10l8 -12q4 -8 8 -15v-6l31 -61l6 -8 l52 -103l2 -2q0 -2 2 -4t7 -12.5t7 -12.5q0 -4 1 -4t1 -4t-1 -4t-1 -2q-4 -4 -11 -10t-10 -10q-2 0 -6 -4q-2 -2 -4 -3q-4 -2 -12 -10l-10 -10q-4 -4 -22.5 -18.5t-24.5 -14.5t-13.5 18.5t-11.5 24.5q-10 25 -21.5 50.5t-23.5 52.5q-35 86 -72 170t-75 170q-29 72 -59 140.5 t-60 139.5q-2 0 -2 4q-23 45 -42.5 90t-37.5 93q-4 8 -7 15t-12 11q-16 14 -39 15h-12q-4 -2 -9 -3.5t-7 -3.5l-2 -2l-21 -20q-4 -4 -6 -14.5t-2 -16.5q0 -27 18.5 -43t43.5 -16q18 0 29 10t24 23h2q2 0 2 -3l80 -184q10 -20 18 -40.5t17 -41.5q12 -25 22 -51.5t23 -52.5 q16 -35 32.5 -72t32.5 -74q8 -27 23 -57q8 -16 14 -29.5t14 -29.5q0 -4 3 -8.5t3 -8.5zM309 967q0 -23 15.5 -37.5t37.5 -14.5q10 0 21.5 6.5t17.5 16.5q0 4 5 8l4 4v29q0 2 -3.5 8t-5.5 10q-12 12 -28 19h-13q-23 0 -37 -13t-14 -36zM340 932q-8 8 -13 15t-5 20q0 37 40 37 q20 0 33 -19q0 -2 2 -4v-33q0 -2 -2 -4l-4 -4q-12 -12 -31 -12q-4 0 -20 4zM702 997q0 -2 2.5 -7t6.5 -5t6 5t2 7q2 4 10 19.5t10 21.5l4 4q12 29 27.5 53.5t28.5 51.5l4 8q18 35 37.5 70t36.5 71q16 29 30.5 54.5t28.5 54.5v2q0 6 -10 6q-2 0 -8 -6q-6 -10 -10.5 -21.5 t-10.5 -21.5l-8 -12t-8 -13q-6 -12 -12.5 -25.5t-14.5 -25.5l-53 -100l-4 -6l-23 -49q-6 -6 -8 -15q-14 -25 -26.5 -48t-26.5 -50q-4 -4 -7.5 -10.5t-3.5 -12.5zM657 1069q0 -2 3.5 -7t7.5 -5q2 0 4 4t4 6q0 2 4 9t8 15.5t8 16.5t4 10l5 4q2 2 2 6q4 6 14 27t12 25 q10 16 17.5 32.5t17.5 30.5l29 53q4 4 4 11q8 10 14 25.5t14 27.5l25 47q0 4 -5 4h-7q-4 0 -4 -4q-10 -23 -22.5 -42t-22.5 -42q-49 -88 -97 -180q-10 -18 -20.5 -36t-18.5 -38zM614 1143q0 -14 9 -15h2h2q25 53 53.5 102.5t52.5 102.5l4 4q10 20 22.5 42t22.5 42 q0 4 -5 6.5t-7 2.5t-2 -3q0 -2 -2 -2q-10 -16 -18.5 -32.5t-16.5 -32.5q0 -2 -5 -7t-5 -7q0 -4 -4 -11.5t-6 -11.5q-2 -2 -2 -4t-2 -4q-23 -41 -46.5 -85t-46.5 -87zM571 1210q0 -4 2 -6t5 -6h2q4 0 6 2q12 27 26.5 51.5t24.5 51.5l4 4q14 29 28.5 55.5t28.5 54.5 q12 8 13 23q0 8 -11 8q-6 0 -6 -6q-4 -4 -13 -22.5t-13 -24.5l-2 -6q-18 -39 -40 -76t-40 -76q-4 -4 -8.5 -11t-6.5 -12v-4zM530 1280q0 -10 7 -12q2 2 3 2t3 4q0 4 9 19.5t9 19.5q20 39 43 75.5t41 77.5q-6 6 -12 7q-4 0 -12.5 -15.5t-12.5 -21.5q-12 -25 -25.5 -49.5 t-25.5 -49.5l-4 -6l-23 -45v-6zM485 1352q0 -8 7 -15h2q4 0 10 13.5t10 17.5l27 55l6 9l28 57l3 4q0 4 -4.5 6t-8.5 2h-2l-26 -53l-5 -6q-10 -23 -22 -43.5t-23 -42.5q0 -2 -2 -4zM444 1421q0 -2 1 -8t6 -6l2 2l2 2q4 8 7 15.5t9 15.5l29 57q4 6 8 13.5t8 13.5v2q0 4 -4 7 t-6 3t-6 -4q-8 -18 -17.5 -36.5t-19.5 -39.5q-6 -8 -10 -14t-9 -17v-6zM143 1458q0 12 9.5 27.5t25.5 15.5h27q8 0 20.5 -11t12.5 -22v-24q0 -12 -18.5 -23.5t-29.5 -11.5q-20 0 -33.5 13t-13.5 36zM856 1485h8h58h4h35q4 6 12 5t14 1q12 4 21 4q10 4 19 5t20 3 q16 4 30.5 11.5t30.5 11.5q4 2 21.5 10t21.5 10q8 4 13 7t5 14v6q-4 4 -8 4t-4 -2q-14 -10 -25.5 -16.5t-27.5 -16.5q-14 -6 -30.5 -11t-29.5 -9q-8 -2 -33.5 -6.5t-29.5 -6.5h-25l-4 -4q-4 0 -17 -1t-17 -1l-5 -2h-45l-4 2q-4 0 -15 1t-13 1q-8 4 -20.5 5t-22.5 1 q-4 2 -10.5 3.5t-10.5 3.5q-43 8 -86 24q-31 10 -60.5 22.5t-60.5 24.5q-10 4 -21.5 11.5t-21.5 7.5v-2q0 -2 2 -2l2 -2q2 0 4 -3q33 -20 67 -35.5t69 -31.5q16 -8 34.5 -13.5t34.5 -11.5h4q2 0 2 -1t2 -1l5 -2q14 -4 29.5 -7t29.5 -5h12t12 -6h25zM373 1561q0 -18 7 -35 t17 -33q0 -8 4 -8h2l31 61q4 4 7 11.5t3 11.5q0 8 -8 10q-2 0 -6 4q-2 2 -6 2h-31q-10 0 -15 -8t-5 -16z" />
<glyph unicode="%" horiz-adv-x="1509" d="M2 756q-23 51 -22 125q0 74 19 157.5t54 155.5t85 120t112 50h6q18 10 37 16q6 0 20.5 -1t31.5 -4t33.5 -7t24.5 -10q39 -35 74 -81t62.5 -99.5t44 -110.5t16.5 -113q0 -51 -14 -92q-8 -29 -16.5 -56.5t-18.5 -55.5q-12 -33 -41 -60.5t-66.5 -48t-79.5 -33t-77 -12.5 q-10 0 -31 4q-43 10 -81 18.5t-69.5 23.5t-57.5 41t-46 73zM1225 803q43 -6 57 -41q18 14 39 14q25 0 51 -22q41 -53 76 -111.5t57 -122.5q25 -74 25 -151q0 -66 -18.5 -128.5t-55.5 -110.5t-93 -76.5t-132 -28.5h-6q-41 2 -87 20t-79 31q-63 27 -91 98.5t-28 163.5 q0 72 15.5 146.5t43 138t64.5 109.5t82 63q16 6 44 7t36 1zM1143 1427q25 27 53 27q23 0 41 -16.5t18 -44.5q0 -6 -4 -23q-100 -174 -191 -353t-183.5 -357.5t-190.5 -353.5t-211 -341q-25 -18 -47 -18q-25 0 -41 16.5t-16 44.5q0 14 6 31q113 166 209 338t187 348 t181.5 353t188.5 349zM377 748q49 23 70.5 77t21.5 119q0 41 -8 84t-21.5 81t-34 70.5t-45.5 53.5q-16 -10 -41 -10q-14 4 -28.5 7t-28.5 7q-33 -20 -62.5 -57t-52 -83t-36 -97.5t-13.5 -98.5q0 -74 38 -126t132 -52q60 0 109 25zM1276 676q-8 8 -12 20q-10 -10 -27 -16 q-6 0 -13 1t-14 1q-6 0 -18 -4q-29 -14 -53.5 -47t-42 -77t-27.5 -94t-10 -100q0 -59 16.5 -106t50.5 -72q33 -23 62 -33t55 -10q66 0 106 56.5t50 134.5q2 12 2 23.5v23.5q0 86 -36 159.5t-89 139.5z" />
<glyph unicode="&#x26;" horiz-adv-x="1419" d="M424 633q0 33 11 61.5t26.5 56t32 54t26.5 57.5q14 45 23.5 100.5t26 103.5t50 81t99.5 33q25 0 45 -10.5t38.5 -26t36 -32.5t35.5 -30q53 -47 130 -47q23 0 43 6.5t43 6.5q59 0 93 -45.5t34 -98.5q0 -31 -9.5 -66.5t-38.5 -54.5q-4 -4 -21.5 -12t-23.5 -12 q-41 -14 -74.5 -25.5t-65.5 -24t-63.5 -27.5t-66.5 -40t-61.5 -56.5t-55 -61t-62.5 -49t-83 -19.5q-72 0 -120 53t-48 125zM84 983q0 41 29.5 65.5t68.5 24.5t83 -11t83 -34.5t64.5 -58.5t25.5 -80q0 -29 -12 -57.5t-32.5 -51t-48.5 -36t-58 -13.5q-39 0 -76 26.5 t-64.5 65.5t-45 82t-17.5 78zM938 1225q0 31 12.5 68.5t34 69.5t51 54.5t62.5 22.5q29 0 47 -22.5t29.5 -54.5t16.5 -64.5t5 -53.5q0 -70 -35 -117t-108 -47q-29 0 -50.5 13.5t-36 34t-21.5 46t-7 50.5zM207 1401q0 49 24.5 94t83.5 45q53 0 96.5 -30.5t74 -78t48 -101.5 t17.5 -99q0 -25 -5 -50.5t-17.5 -47t-33 -35t-51.5 -13.5q-53 0 -96 33t-74.5 80t-49 102.5t-17.5 100.5zM584 1473q0 31 7 67.5t23.5 68t42 52t62.5 20.5q45 0 74.5 -25.5t48 -63.5t25.5 -82t7 -78q0 -31 -7 -67t-22.5 -66.5t-41 -52t-64.5 -21.5q-43 0 -72.5 26.5 t-48 64.5t-26.5 81t-8 76z" />
<glyph unicode="'" horiz-adv-x="368" d="M109 1409q4 33 22.5 49.5t40.5 16.5q23 0 39 -15.5t20 -48.5q2 -117 7.5 -234.5t7.5 -234.5q-8 -29 -25.5 -42t-38.5 -13q-18 0 -35.5 12t-23.5 41q-2 117 -7 234.5t-7 234.5z" />
<glyph unicode="(" horiz-adv-x="462" d="M315 1454q25 27 54 27q23 0 40 -16.5t17 -43.5q0 -20 -12 -41q-18 -29 -40 -54.5t-38 -55.5q-41 -78 -67.5 -175.5t-43 -204t-23.5 -219t-7 -222.5q0 -117 6 -224.5t16 -199.5q4 -43 18.5 -84t31 -82t29.5 -82t17 -86q-8 -29 -25.5 -42.5t-37.5 -13.5q-18 0 -35.5 12.5 t-24.5 41.5q-2 41 -15 79.5t-29.5 76.5t-31 77t-18.5 80q-8 72 -13 174.5t-5 220.5q0 129 7 265.5t25.5 263.5t48 233.5t72.5 173.5q23 31 43.5 60.5t40.5 60.5z" />
<glyph unicode=")" horiz-adv-x="604" d="M117 1403q-14 20 -15 43q0 25 17.5 41t42.5 16q29 0 51 -22q27 -27 54.5 -51.5t47.5 -53.5q49 -70 84 -156.5t56.5 -185t31 -202t9.5 -207.5q0 -143 -15.5 -277.5t-38.5 -243.5q-12 -53 -32.5 -101t-43 -96t-41 -97.5t-24.5 -102.5q-8 -29 -25.5 -42t-37.5 -13 q-23 0 -40.5 16.5t-17.5 48.5v9q6 55 24.5 104t40 96t43 95.5t34.5 101.5q23 102 38 231t15 269q0 94 -8.5 189t-26.5 184t-49 167t-76 140q-20 29 -46.5 52t-51.5 48z" />
<glyph unicode="*" horiz-adv-x="1044" d="M244 1395q-2 6 -3 11t-1 11q0 29 18 45.5t43 16.5q29 0 51 -23q43 -78 87 -151.5t89 -149.5q31 61 62 120.5t63 108.5q25 27 54 27q23 0 40 -16.5t17 -42.5q0 -20 -12 -41q-35 -53 -65 -111.5t-60 -120.5q80 -2 159.5 -2h161.5q31 -4 46.5 -21.5t15.5 -39.5 q0 -23 -17.5 -42.5t-52.5 -19.5h-150.5t-150.5 2q41 -74 76 -148.5t67 -150.5v-12q0 -29 -18.5 -46t-40.5 -17q-33 0 -57 32q-31 72 -64 142.5t-70 140.5q-43 -76 -92 -142.5t-110 -115.5q-23 -16 -47 -16q-25 0 -41.5 16t-16.5 39q0 27 21 49q53 43 97 102.5t85 131.5 q-78 0 -155.5 1t-155.5 1q-31 2 -47.5 19t-16.5 40q0 20 14.5 38.5t43.5 24.5q80 0 159.5 -1t157.5 -1q-47 78 -93 155t-91 157z" />
<glyph unicode="+" horiz-adv-x="1191" d="M57 485q-27 10 -38 26.5t-11 35.5q0 20 14.5 37.5t43.5 23.5q121 -2 239.5 -4t241.5 -6q-4 123 -6 245t-2 244q4 33 22.5 49.5t40.5 16.5q23 0 39 -15.5t21 -47.5q0 -125 2 -248t6 -246q211 -6 422 -6q14 6 30 6q25 0 41.5 -16.5t16.5 -40.5q0 -20 -13 -41 q-20 -20 -53 -26.5t-67 -6.5q-35 0 -66 3t-53 3q-66 0 -128.5 1t-125.5 3q4 -135 6 -267t4 -267q-8 -29 -25.5 -42.5t-37.5 -13.5q-18 0 -36 12.5t-24 41.5q-2 135 -4 269t-6 269q-125 4 -248 5t-246 3z" />
<glyph unicode="," horiz-adv-x="423" d="M158 127q4 33 22.5 49.5t40.5 16.5q23 0 39 -15.5t21 -48.5q-4 -133 -47.5 -236.5t-133.5 -199.5q-23 -16 -47 -17q-25 0 -41 16.5t-16 39.5q0 27 20 49q72 78 105 159t37 187z" />
<glyph unicode="-" horiz-adv-x="628" d="M33 455q-35 0 -52.5 18.5t-17.5 40.5q0 20 14.5 38.5t42.5 25.5h594q31 -4 46.5 -21.5t15.5 -40.5t-17.5 -42t-52.5 -19h-573z" />
<glyph unicode="." horiz-adv-x="423" d="M125 168q16 25 37.5 36t44.5 11q41 0 69 -25q6 -4 12.5 -8t14.5 -10q14 -14 18.5 -24.5t6.5 -28.5q-12 -66 -45 -95.5t-70 -29.5q-41 0 -75 29.5t-34 76.5q1 33 21 68z" />
<glyph unicode="/" horiz-adv-x="2279" d="M1415 354q0 -84 -47 -148.5t-117.5 -107.5t-152.5 -64.5t-154 -21.5h-63.5t-67.5 4q-152 25 -282 99.5t-225 185.5t-149.5 250t-54.5 293q0 45 7.5 99t24 107.5t41 101.5t58.5 81l838 768q8 10 29.5 20.5t34.5 10.5h79q6 0 26 -8.5t24 -12.5q45 -31 69.5 -74t24.5 -98 q0 -31 -13.5 -58.5t-34 -51t-44 -44t-43.5 -40.5q-2 -2 -2 -5q0 -2 -2 -4v-2q0 -4 7 -9t9 -5q2 -2 10 -5t17.5 -8t17.5 -8.5t10 -5.5q43 -23 60.5 -64.5t27.5 -86.5h2h2q4 4 9 4l391 358q20 18 43.5 21.5t50.5 3.5q76 0 132 -49t56 -129q0 -33 -11 -57.5t-23 -53.5 q-4 -8 -5 -14q0 -12 18.5 -17.5t22.5 -7.5q29 -10 47.5 -30.5t36.5 -40.5q16 -18 21.5 -43t5.5 -48v-26q0 -4 -3 -18.5t-5 -20.5q-2 -4 -4 -10.5t-4 -12.5q-2 -8 -4 -14l-750 -698q-8 -6 -10 -21.5t-2 -23.5q0 -35 10 -70t10 -70zM1360 352l-70 467q-8 49 -39.5 92t-85.5 43 q-59 0 -98 -38.5t-39 -98.5v-14l59 -352q4 -29 4.5 -49.5t0.5 -49.5v-41l-5 -8q-2 -2 -4 -2h-4q-16 0 -21 10.5t-9 24.5q-2 10 -6.5 31.5t-6.5 23.5l-57 408q0 2 -1 10t-1 12q0 86 47 135.5t133 49.5q23 0 45.5 -3.5t44.5 -13.5q27 -14 45.5 -39.5t30.5 -56.5t20.5 -62.5 t12.5 -56.5q2 -8 5 -28.5t6 -44t6 -43t5 -27.5q2 -4 3 -10.5t5 -10.5q29 8 48.5 32t44.5 40l606 559q37 37 37 86q0 55 -37 96t-94 41q-33 0 -58 -22l-417 -369q0 -4 -5 -4q-8 -8 -33.5 -28.5t-33.5 -26.5h-2q-10 0 -16.5 11t-6.5 19v3l572 538l14 25v71q0 18 -12.5 36 t-29.5 32t-37.5 22.5t-39.5 8.5q-35 0 -64.5 -16.5t-52.5 -39.5l-426 -391l-16 -12l-219 -195l-8 -8l-236 -200q-18 -16 -35.5 -21.5t-42.5 -5.5q-74 0 -126 51t-52 125q0 29 5 60.5t28 54.5l627 583q18 16 24 39t6 45q0 53 -35.5 92t-88.5 39q-39 0 -66 -24l-205 -176 q-10 -12 -23.5 -21.5t-23.5 -21.5l-559 -500q-27 -25 -49.5 -64.5t-38.5 -84t-27.5 -89.5t-15.5 -77v-72q0 -109 28.5 -210t82 -191.5t129 -165t167.5 -127.5t188.5 -73t203.5 -20q102 0 183 43.5t159 108.5l36 37q4 4 10.5 15.5t6.5 19.5v65zM1386 668l-4 -4v4h4zM936 1030 l344 328q18 16 24.5 37.5t6.5 44.5q0 55 -34 92t-91 37q-23 0 -42.5 -4t-35.5 -21l-428 -399q-23 -23 -23 -55q0 -59 36 -101.5t95 -42.5q47 0 80 28.5t68 55.5z" />
<glyph unicode="0" d="M1376 375q-10 -29 -10 -60.5t-10 -60.5q-2 -2 -2 -4q-2 -2 -2 -4q-10 -16 -24.5 -44t-16.5 -30q-45 -72 -113 -109.5t-143 -62.5q-4 -2 -12.5 -4t-10.5 -2h-616q-18 0 -37 7t-37 13q-2 2 -16.5 6.5t-18.5 6.5q-2 0 -8 4t-8 6q-51 31 -94 68.5t-72 93.5q-16 29 -29.5 54.5 t-13.5 59.5v1426q0 27 8 43t19 39q33 72 84 119t120 81q2 0 6 2q4 0 5.5 1t3.5 1q25 8 55.5 17.5t56.5 9.5h566q33 0 62.5 -10t57.5 -21q0 -2 4.5 -3t6.5 -3q43 -23 80.5 -50.5t66.5 -63.5q20 -27 45 -61t33 -68q4 -25 6 -48.5t8 -46.5v-1302zM500 369l8 -4l6 -3h424 q2 0 4 3q2 2 3 2t3 2q16 10 37 27.5t21 41.5v1166q0 29 -18.5 45t-39.5 28q-2 0 -6 4q-2 2 -4 2h-424q-8 0 -18.5 -8t-19.5 -19t-16 -22.5t-9 -19.5q-2 -4 -3.5 -9.5t-3.5 -9.5l-4 -12v-1124q0 -29 17.5 -53.5t42.5 -36.5z" />
<glyph unicode="1" horiz-adv-x="514" d="M86 6q-2 0 -4 4t-2 6v2012q0 16 16 16h320q2 0 4 -2q4 -4 6 -4l2 -2q0 -2 2 -2v-2024l-2 -2q0 -2 -2 -2q-2 -2 -3 -2t-3 -2t-4 -2h-320q-2 0 -6 2t-4 4z" />
<glyph unicode="2" d="M70 319q2 4 8 20.5t8 20.5q8 25 26.5 49.5t34.5 43.5l773 770q27 27 43 57.5t30 65.5q2 4 4 11t2 9v227q0 12 -10 27.5t-23.5 29t-28.5 21.5t-28 8h-387q-18 0 -36.5 -19.5t-28.5 -31.5q-2 -4 -8.5 -17.5t-8.5 -17.5q-4 -8 -13 -9t-17 -1q-20 0 -37 8t-37 13 q-4 2 -19.5 4t-19.5 2q-14 4 -27.5 11t-29.5 11q-2 0 -15.5 2t-15.5 4q-2 0 -7 2t-9 2q-12 4 -31 9.5t-37.5 10.5t-33.5 11t-21 17q0 4 -1 10t-1 8v12q0 4 2 6q2 4 8 21.5t8 21.5q25 74 80 133.5t121 96.5q2 2 13 8t13 8q23 10 48.5 16.5t48.5 14.5h612q2 0 17.5 -3t23.5 -7 q8 -2 32.5 -9.5t30.5 -11.5q6 -10 20.5 -13t22.5 -7q53 -35 96.5 -83t67.5 -104q6 -16 12.5 -32.5t12.5 -32.5q0 -4 2 -9t2 -8v-499q-4 -4 -12.5 -22.5t-10.5 -24.5q0 -2 -2 -10.5t-4 -10.5q0 -2 -2 -5t-2 -5q-27 -45 -57.5 -83t-63.5 -77l-596 -596l-12 -22q0 -2 2 -2 q2 -2 4 -2q4 -2 11.5 -4.5t9.5 -2.5h696q4 0 14.5 -1t14.5 -3l10 -10v-319q0 -2 -2 -9.5t-2 -11.5l-6 -6h-1282v319z" />
<glyph unicode="3" d="M63 350q4 10 18.5 17.5t24.5 9.5q4 2 25 6t25 4q10 4 20 9t21 10q4 0 28.5 4t28.5 6l33 16q2 0 16 2t16 2q20 4 39 13.5t39 9.5q14 0 19.5 -4t7.5 -11.5t3 -16.5t7 -17q4 -2 14.5 -12.5l14.5 -14.5q2 -2 7 -5t9 -7q0 -2 2 -2h4q2 -2 4 -2h435l45 20q0 4 2 6q0 2 1 3t1 3 q6 10 14 29q4 8 8 18v310q0 2 -8 17t-14 26q0 2 -4 7t-6 7l-2 4l-3 2q-10 4 -28.5 11.5t-20.5 7.5h-366q0 2 -2 4l-4 4q-2 0 -2 6q0 2 -3 4v336l11 14h366l9 4q4 2 7 2t7 2l15 7.5t16 7.5l26 53q2 4 4 11t2 10v292q0 2 -10 22.5t-16 31.5q-4 8 -26.5 20t-33.5 12h-387 q-2 0 -7 -2t-9 -2q-10 -4 -25.5 -13t-21.5 -22q-10 -14 -17.5 -29.5t-21.5 -27.5h-19h-18q-4 2 -18.5 8t-18.5 9q-4 2 -27.5 5t-27.5 5q-14 4 -27.5 10t-30.5 10q-4 0 -18 2t-18 4q-4 0 -18.5 8.5t-18.5 8.5q-18 6 -36 8t-31 7t-21.5 15.5t-8.5 34.5q0 23 4.5 33t12.5 29 q0 4 6 21.5t8 21.5t8.5 12t8.5 10q47 70 103 116t136 69q4 2 16.5 6t16.5 6q8 0 12 2q4 0 8 2h613q25 -10 54.5 -15t51.5 -16l4 -4l2 -2q18 -12 37 -22.5t37 -26.5q29 -25 58.5 -55.5t48.5 -65.5q2 -2 3 -8t3 -8q0 -2 6 -13.5t8 -13.5q0 -2 4 -6q2 -2 2 -4q4 -12 10.5 -34.5 t6.5 -24.5v-553q0 -4 -6.5 -27t-10.5 -33q-4 -4 -13 -24.5t-13 -26.5q-8 -12 -17.5 -19.5t-9.5 -25.5q0 -8 11.5 -13.5t15.5 -13.5q2 -2 9 -14t11 -16q6 -6 6 -11l12.5 -37.5t8.5 -29.5v-15v-20q0 -31 -1 -107.5t-1 -165t-1 -166t-1 -108.5q-10 -72 -56.5 -142.5 t-109.5 -107.5q-35 -20 -65.5 -30.5t-67.5 -22.5h-670q-6 2 -26.5 8t-26.5 8q-47 10 -90 47q-14 12 -28.5 21.5t-25.5 21.5q-25 29 -44 56.5t-36 60.5q-10 16 -14 27.5t-12 32.5q-6 16 -11.5 26t-5.5 27v14z" />
<glyph unicode="4" d="M676 481q-2 0 -4 2q-2 0 -4 2q-4 2 -9.5 4.5t-7.5 2.5h-581q-37 0 -37 30v322q0 16 11 36.5t19 32.5q2 2 3.5 6.5t3.5 6.5q0 2 4 12t6 12t9 11.5t9 11.5l4 14q2 2 3 6t4 4q41 72 77.5 142.5t75.5 142.5q51 90 103 186q10 23 23 42.5t24 39.5q2 2 3 10.5t3 10.5q0 2 7 10 t7 12q12 18 20.5 37t18.5 37q14 29 31.5 56.5t32.5 56.5q2 2 5 12t5 14q2 2 8 10.5t8 12.5q0 2 2 4q4 4 4 6q10 25 25.5 47.5t28.5 46.5q2 8 12 27.5t20.5 41t20.5 38t16 16.5h340l17 -10v-1176l12 -12h256l12 -14v-350h-242l-38 -11v-473l-17 -10h-340l-14 10v471zM451 870 q2 -4 7 -7t9 -3h207v381q0 4 -6 10h-2q-4 0 -11.5 -9t-13.5 -21.5t-12 -23.5t-8 -15t-8.5 -14.5t-8.5 -12.5q0 -4 -7 -16.5t-7 -16.5q-37 -63 -70.5 -126t-68.5 -126z" />
<glyph unicode="5" d="M63 338q0 14 11.5 22.5t27 14.5t32 9t26.5 5q2 0 7 2t9 4q2 0 12.5 5.5t14.5 5.5q4 2 25.5 5t25.5 5t19.5 8t19.5 8q4 0 18.5 2t18.5 2q20 4 36.5 14.5t39.5 10.5h16q0 -2 2 -7t2 -8q2 -2 3 -15t3 -15q0 -2 12.5 -14.5t18.5 -16.5q2 -2 7 -5t9 -7q0 -2 2 -2h4q2 -2 4 -2 h439l43 20q0 2 2 4q0 2 1 3t1 3q6 10 14 29q4 8 8 18v312q0 2 -2 10t-4 10q-4 8 -12 25.5t-18 21.5q-6 4 -22.5 8.5t-20.5 4.5h-408q-29 0 -44 -15.5t-30 -38.5q0 -4 -6 -16t-8 -14q0 -6 -6 -6q-10 0 -29.5 3t-30.5 7q-4 2 -18 8t-19 8q-4 2 -20 5t-20 5q-4 0 -20.5 7.5 t-18.5 9.5q-4 0 -19.5 2t-17.5 2l-33 16q-10 4 -28.5 7t-36 8.5t-30 14.5t-12.5 28q0 27 7.5 51t13.5 53q2 2 3 14.5t3 16.5q0 4 2 23.5t2 23.5q2 4 9.5 24.5t7.5 24.5q0 2 1 13.5t2 23.5t2 23.5t1 13.5q0 4 8 24.5t8 24.5q2 4 4 13t2 14q0 4 2 26.5t2 26.5l23 90 q0 4 2 26.5t2 26.5q2 4 8 29.5t8 30.5q0 4 2 13t5 13q4 23 4 40t6 40q0 4 4 16.5t6 16.5q0 4 2 13t2 13q2 4 3 29t3 29q0 2 2 9t2 9q4 6 7.5 22.5t5.5 18.5q0 2 1 14.5t3 25.5t4 25.5t2 16.5q0 2 2 11.5t5 19.5t6 19t3 12q6 25 6 54t17 48q2 4 7 7t7 3h1030l23 -10v-348 l-754 -10q-6 0 -16 -11q-4 -8 -11.5 -34.5t-9.5 -34.5q0 -4 -2 -13.5t-4 -13.5q0 -2 -1 -11t-1 -20.5t-1 -20.5t-1 -11t-5 -16.5t-5 -16.5q-8 -25 -10.5 -49.5t-6.5 -51.5q-6 -35 -15 -66.5t-9 -66.5q0 -4 1 -15t1 -13l12 -13h500q2 0 28.5 -7t40.5 -11q4 0 11 -6 q35 -23 68.5 -42.5t66.5 -47.5q0 -2 4 -6.5t6 -4.5q25 -31 53.5 -64.5t42.5 -74.5q4 -10 10.5 -31.5t6.5 -25.5v-574q0 -4 -6.5 -27.5t-10.5 -33.5q-23 -59 -65.5 -109.5t-93.5 -85.5q-37 -23 -68 -33t-72 -24h-657q-2 0 -9 2t-12 4q-2 0 -8 2t-8 2q-4 2 -21.5 5t-21.5 5 q0 2 -8 5.5t-12 5.5q-33 18 -61.5 37.5t-51.5 48.5q-2 4 -9 13t-14.5 20.5t-14.5 21.5t-11 14t-13.5 25.5t-13.5 28.5q-2 4 -8 23.5t-6 23.5q-6 14 -11.5 24.5t-5.5 26.5z" />
<glyph unicode="6" d="M74 326v1411q0 4 2 21.5t4 25.5q0 4 2 12t2 10q2 2 8 13.5t8 13.5q31 53 64 92t80 74q6 0 12 6q12 4 21.5 9t21.5 11q2 0 6 3q4 0 5 1t3 1q4 2 21.5 6t21.5 4q2 2 16.5 6t16.5 6q4 0 12.5 2t10.5 2h628q29 -8 56.5 -13t56.5 -13q2 0 8 -2.5t8 -2.5q78 -39 134 -106 q0 -2 9 -15.5t13 -21.5q2 -2 3 -6t3 -6q0 -2 4 -12.5t6 -12.5q0 -4 7.5 -17t7.5 -18q0 -2 2 -12t4 -21.5t4 -21.5t2 -12t2 -13.5t2 -13.5v-6v-6q-6 -10 -21.5 -18.5t-25.5 -12.5q-4 -2 -17.5 -4t-15.5 -2q-16 -4 -31.5 -10t-31.5 -10q-4 -2 -19.5 -3.5t-19.5 -3.5 q-2 0 -12.5 -4t-14.5 -6q-18 -8 -38.5 -11t-39.5 -9q-18 -6 -29.5 -11.5t-27.5 -5.5h-18q-10 6 -11.5 19.5t-5.5 23.5q-4 12 -18 23.5t-25 17.5q-4 4 -12 7.5t-10 3.5h-406q-20 0 -42.5 -15.5t-33.5 -32.5q-2 -4 -2 -8q-2 -4 -2 -12q-2 -4 -2 -10t-2 -11q-2 -8 -2 -12v-354 q0 -10 10 -14q4 -2 7.5 -5.5t5.5 -3.5h565q4 0 35 -7t47 -11q2 0 4 -2q4 -4 6 -4q12 -8 26.5 -12.5t26.5 -14.5q47 -29 86 -67.5t70 -85.5q0 -4 2 -7q6 -6 4 -6q10 -23 20.5 -40t10.5 -44v-604q0 -4 -2 -21.5t-4 -21.5q0 -4 -7.5 -16.5t-7.5 -16.5q-35 -72 -77.5 -112.5 t-110.5 -79.5l-6 -6q-20 -12 -44 -14.5t-46 -16.5h-668q-23 8 -46.5 12t-43.5 15q-49 23 -93 62.5t-75 80.5q-14 23 -22.5 46.5t-24.5 45.5zM469 389q6 -4 18.5 -12t14.5 -8h432q4 2 8 6t6 5t6 5q14 10 23.5 24.5t15.5 28.5q4 8 7.5 21.5t3.5 15.5v273q0 37 -24 64.5 t-62 27.5h-459q-4 0 -13.5 -6.5t-9.5 -10.5v-352q0 -23 7.5 -45.5t25.5 -36.5z" />
<glyph unicode="7" d="M317 10q4 10 11.5 35t9.5 29q2 2 8 15t8 15q0 4 2 9.5t4 9.5q8 31 22.5 58.5t27.5 56.5q2 4 5 19t5 17q14 41 30.5 79t32.5 77q10 25 18.5 50.5t18.5 47.5q0 4 7.5 17.5t7.5 17.5q2 4 6 18.5t4 18.5q10 23 21.5 46.5t21.5 47.5q4 4 7 18.5t5 18.5q0 2 5 8t5 9l17 49 q0 2 7 14t9 16q0 2 2 10.5t2 10.5q2 4 3 9t3 7q10 23 20.5 46.5t20.5 47.5q2 2 3 11.5t3 11.5q0 4 7.5 16.5t9.5 16.5q12 33 24.5 65.5t26.5 65.5q0 2 2 7t4 9q0 2 2 11.5t2 11.5q2 2 8.5 12t8.5 14q2 2 6 17.5t6 19.5q2 2 8 14.5t8 16.5t5 18.5t6 18.5q0 2 7 12t9 14 q0 4 4 18.5t6 18.5t10.5 26.5t10.5 27.5q0 2 2 8t4 8q0 2 7 13.5t7 13.5q2 2 4 10t2 10q10 37 26.5 74t31.5 76q2 2 6 10t4 10q2 10 -10.5 14t-16.5 4h-885l-10 9v338l2 2q2 2 2 3t2 3q2 0 7.5 2t7.5 2h1247q20 0 20 -23v-344q0 -6 -7 -19.5t-9 -17.5q-16 -41 -30.5 -81.5 t-30.5 -81.5q-16 -35 -28.5 -70t-27.5 -70q-16 -37 -31.5 -73.5t-31.5 -73.5q-2 -4 -8.5 -24.5t-6.5 -24.5q-2 -2 -6 -10.5t-6 -10.5q0 -2 -2 -7t-2 -9q0 -2 -2 -10.5t-4 -10.5q0 -2 -7 -12t-7 -14q-2 -4 -6.5 -18.5t-6.5 -18.5q-8 -23 -19 -47.5t-22 -48.5q-2 -4 -5 -18.5 t-5 -18.5q0 -2 -2 -3t-4 -5t-4 -7q-4 -4 -10 -24.5t-9 -24.5q-2 -2 -8 -14l-8 -16q0 -2 -2 -10.5t-2 -10.5q-2 -4 -4 -9t-2 -7q-10 -25 -20.5 -48.5t-20.5 -48.5q-2 -2 -4 -10t-2 -10q0 -4 -2 -9t-2 -7q-18 -35 -32.5 -74t-31.5 -76q-2 -2 -3 -7t-3 -7q0 -4 -2 -12.5 t-2 -10.5q-2 -2 -9 -15t-7 -16q-2 -4 -8.5 -23.5t-8.5 -23.5q-8 -23 -18.5 -43t-20.5 -43q-10 -25 -18 -50t-19 -50q0 -2 -7 -15.5t-7 -15.5q-2 -4 -6 -19.5t-4 -19.5l-17 -32q-2 -2 -6 -15.5t-4 -15.5q-4 -6 -13 -21.5t-13 -15.5h-340l-7 6v2v2z" />
<glyph unicode="8" d="M121 1020q-12 29 -29.5 48t-17.5 54v654q0 2 2 8t4 8q35 78 85 131t126 94q2 0 7 2t9 2q4 2 21.5 6.5t21.5 4.5q4 2 16.5 6t16.5 6q4 0 11 2t9 2h617q2 0 15.5 -3t21.5 -7q18 -6 38.5 -9.5t37.5 -11.5q37 -18 70.5 -45.5t60.5 -56.5q4 -4 17 -19.5t17 -21.5 q6 -10 15.5 -25.5t16.5 -33t13.5 -33t6.5 -27.5v-627q0 -20 -11.5 -42.5t-19.5 -36.5q0 -2 -2 -2q-2 -2 -4 -3q-2 -2 -10.5 -9t-10.5 -9q0 -2 -2 -3t-2 -3l-2 -2l2 -2q18 -16 40 -44t22 -57v-622q0 -23 -11.5 -49.5t-28 -53t-36 -50t-35.5 -38.5q-10 -10 -32.5 -28.5 t-26.5 -20.5q-33 -23 -63 -31t-64 -22h-670q-6 2 -24.5 8t-22.5 8q-18 4 -26.5 8.5t-22.5 12.5q-4 2 -19.5 8t-17.5 8q-43 29 -71.5 63t-57.5 74q-12 23 -29.5 49.5t-17.5 53.5v629q0 23 12 45t25 39l4 4l6 6v2v2zM430 469q0 -4 3 -23.5t7 -29.5q4 -16 23.5 -29.5 t32.5 -19.5q6 -6 14 -7h403q2 0 7.5 2.5t9.5 4.5q8 4 24.5 13t18.5 13q2 0 5 9.5t5 13.5t4 9t4 9l4 12v310q0 2 -4 16t-8 21q-4 16 -9 21t-22 9q-8 4 -22.5 8.5t-16.5 4.5h-413q-2 0 -6 -2q-8 -4 -11 -5q-20 -8 -29.5 -15t-12.5 -17.5t-4 -24.5t-7 -33v-270zM430 1303 q0 -2 2 -10.5t2 -10.5q2 -4 3 -16.5t3 -14.5q10 -20 35 -31.5t45 -11.5h377q35 0 66.5 24.5t31.5 59.5v310l-4 12q-2 4 -4 9t-4 9q-8 18 -20 27q-8 4 -24.5 13t-18.5 9h-400q-18 0 -47 -16t-33 -37q-4 -10 -7 -29.5t-3 -23.5v-272z" />
<glyph unicode="9" d="M80 342q0 14 13 22.5t24 12.5q4 2 16 3t14 3q4 0 17.5 3t17.5 7q2 0 12.5 5t14.5 5q4 2 25.5 5.5t25.5 5.5l37 18q4 0 19.5 2t19.5 2q20 4 35.5 13.5t36.5 9.5q6 0 15 -1t13 -12q2 -4 8.5 -24.5t8.5 -24.5q4 -6 21.5 -18t27.5 -12h440q2 2 6 4q2 2 4 3t4 3q4 4 16.5 15 t16.5 16q0 2 2 6t2 6l6 389l-4 8q-2 4 -4 6t-2 6l-4 5q-2 2 -2 4h-577q-6 2 -22.5 6t-21.5 6q-4 2 -16 3t-14 3q-135 51 -209 174q-8 12 -19.5 34.5t-13.5 25.5q-2 6 -6 20t-7 29.5t-5 29t-2 17.5v536q2 4 6 15.5t4 15.5q2 4 5 24.5t5 24.5q23 57 66 105.5t94 81.5 q2 2 20.5 12t26.5 14q2 0 3 1t3 1t4 2q4 2 15.5 4t13.5 2q8 2 34.5 9.5t35.5 11.5h626q2 0 9.5 -2t11.5 -2q49 -14 87 -31.5t70.5 -41t59 -55.5t53.5 -75q10 -16 17.5 -36.5t17.5 -39.5v-1487q-8 -12 -14.5 -31.5t-14.5 -31.5q-27 -41 -52.5 -72.5t-64.5 -66.5 q-16 -14 -31.5 -20.5t-31.5 -16.5q-2 -2 -8 -6t-8 -4q-2 -2 -6.5 -3t-4.5 -4q-18 -4 -34.5 -8t-34.5 -12h-664q-16 8 -34.5 12t-35.5 15q-80 49 -126 108.5t-87 140.5q-2 2 -6 8.5t-4 8.5q-16 22 -16 49zM993 1620q0 4 -2 7t-2 5q-14 16 -35.5 31.5t-44.5 15.5h-393l-8 -4 q-4 -2 -7 -3t-7 -3q-6 -4 -18.5 -10t-18.5 -17q-2 -2 -7.5 -15t-9.5 -17q-2 -6 -6 -17.5t-4 -13.5v-276q0 -4 2 -7l4 -8q2 -4 5 -15t5 -13q4 -10 7 -11q4 -6 16 -18l14 -14q4 -2 16.5 -6.5t16.5 -4.5h467q4 0 10 14.5t6 16.5z" />
<glyph unicode=":" horiz-adv-x="225" d="M14 76q-2 6 -3 11t-1 11q0 23 12.5 38.5t28.5 21.5q12 25 32.5 40t43.5 15q16 0 32.5 -8t33.5 -29q20 -27 20 -55q0 -10 -2 -17q4 -8 4 -24q0 -25 -14.5 -44.5t-36.5 -29.5q-16 -33 -55 -33q-23 0 -43 15q-29 29 -33 61q-11 9 -19 27zM131 721q-16 -6 -29 -6 q-29 0 -44 19.5t-15 41.5q-14 16 -14 41q0 47 39 74q20 33 61 33q45 0 65.5 -23.5t20.5 -54.5q0 -29 -14 -51q-6 -51 -58 -68z" />
<glyph unicode=";" horiz-adv-x="352" d="M182 170q10 23 26.5 34t33.5 11q23 0 40 -16.5t21 -46.5q-8 -43 -26.5 -107.5t-43 -129.5t-55.5 -122t-63 -84q-23 -16 -47 -16q-25 0 -41.5 16.5t-16.5 38.5q0 27 21 49q23 18 47 67.5t45.5 107t37 112.5t21.5 86zM119 817q-4 8 -4 25q0 14 4 22v10q0 45 31.5 82 t76.5 37q31 0 56 -18q29 -23 41 -45.5t12 -44.5q6 -16 6 -31q0 -37 -28.5 -66.5t-71.5 -29.5q-14 0 -23 2h-4q-8 -2 -22 -2q-25 0 -44.5 13t-29.5 46z" />
<glyph unicode="&#x3c;" horiz-adv-x="831" d="M741 1090q6 2 19 2q29 0 45 -17.5t16 -40.5q0 -33 -30 -55q-63 -29 -115.5 -74t-101 -94t-98.5 -97t-111 -83q-43 -25 -88.5 -47.5t-88.5 -48.5q-4 -2 -8 -4.5t-12 -6.5q51 -43 138 -87t179.5 -90t176 -93t129.5 -98q8 -18 8 -33q0 -16 -4 -27q-4 -12 -9 -18 q-20 -35 -55 -35q-23 0 -39 15.5t-20 41.5q-53 49 -119 81t-129 65q-49 27 -99.5 50t-99.5 50q-16 10 -49 30.5t-49 31.5q-63 41 -90 71.5t-27 55.5q0 33 39 58t101 60q74 41 143 79t129 97q39 37 74.5 74t73.5 72t80 63.5t91 51.5z" />
<glyph unicode="=" horiz-adv-x="1200" d="M1120 674q-260 0 -517 3t-517 3q-35 0 -52.5 18.5t-17.5 40.5q0 20 14.5 39t43.5 25q266 0 528 -3t526 -3q31 -4 46.5 -21.5t15.5 -40.5t-17.5 -42t-52.5 -19zM1090 305q-254 0 -505 -3t-505 -3q-35 0 -52.5 18.5t-17.5 40.5q0 20 14.5 39t43.5 25q260 0 516 3t514 3 q31 -4 46 -21.5t15 -39.5q0 -23 -17 -42.5t-52 -19.5z" />
<glyph unicode="&#x3e;" horiz-adv-x="1097" d="M41 952q-31 25 -31 56q0 23 16.5 41t43.5 18q16 0 36 -10q104 -68 208 -137.5t211.5 -128t222 -100.5t241.5 -52q23 -2 39 -16q29 0 44 -17.5t15 -40.5q0 -18 -11 -35.5t-36 -27.5q-29 -12 -53 -30.5t-49 -39t-48.5 -42t-49.5 -38.5q-170 -111 -344 -210t-359 -187 q-16 -6 -28 -6q-27 0 -43.5 18.5t-16.5 40.5q0 16 9.5 31.5t29.5 26.5q180 86 349 182t335 205q27 16 50.5 36.5t47.5 42.5q-117 23 -223 67t-207.5 101.5t-200 121.5t-198.5 130z" />
<glyph unicode="?" horiz-adv-x="632" d="M430 1294q-16 8 -41 9q-29 0 -63.5 -11.5t-68.5 -28t-63.5 -38t-50.5 -41.5q2 -6 3 -11.5t1 -11.5q0 -23 -17 -41t-50 -18q-37 10 -53.5 28.5t-16.5 43.5q0 47 41 88q27 29 67 58.5t84 53t92 37.5t95 14q45 0 85 -16t73 -53q31 -35 52.5 -87t23.5 -98v-18 q0 -84 -30 -144.5t-72 -113.5t-86 -108.5t-70 -129.5q-6 -16 -7 -36q0 -27 7.5 -58t15.5 -61.5t16.5 -60t10.5 -54.5q-8 -29 -25.5 -42t-38.5 -13q-18 0 -35.5 12t-23.5 41q-4 41 -10.5 74t-14.5 61.5t-13 55t-5 55.5q0 35 10 72.5t39 89.5q20 39 57 77.5t71 78.5t59.5 84 t25.5 93q0 8 -1 16.5t-3 18.5q-2 12 -7.5 31.5t-13.5 40t-20.5 38t-28.5 23.5zM281 113q6 23 21 34t34 13q16 8 39 8q35 0 62.5 -18.5t27.5 -53.5q0 -4 -1 -7t-1 -7q-6 -29 -24.5 -52.5t-47.5 -35.5q-14 -8 -27.5 -10t-23.5 -2q-35 0 -52.5 25.5t-17.5 58.5q1 22 11 47z" />
<glyph unicode="@" horiz-adv-x="2172" d="M2071 2042v-2042h-1969v2042h1969zM113 10h1947v2022h-1947v-2022zM1032 1642v-759h586v-445h-1036v1204h450z" />
<glyph unicode="A" horiz-adv-x="1488" d="M102 27q0 23 8.5 42t12.5 42q2 4 3 23.5t3 23.5q0 4 7 22.5t7 22.5q4 16 6.5 32.5t6.5 30.5q0 2 2 10.5t2 10.5q2 4 8 24.5t8 24.5q0 4 2 21.5t2 21.5q2 4 5 19.5t5 21.5q2 4 6.5 16.5t4.5 14.5q2 4 4 23.5t2 23.5t5 16t5 16q2 4 6 20.5t4 20.5t2 18.5t4 18.5 q0 2 3.5 12.5t7.5 21.5t7 21.5t3 12.5q0 4 2 26.5t4 26.5q0 2 4 14.5t6 16.5q0 2 2 9t2 11q0 2 3.5 14.5t5.5 26t5 24.5t3 13q0 4 4 16.5t6 16.5q0 4 2 11t2 9q2 4 4 20.5t2 20.5q0 2 3 12.5t7.5 20.5t7.5 20.5t3 12.5q2 4 3 23.5t3 23.5q0 4 7 28.5t7 28.5q2 2 3 12.5 t3 14.5q0 2 2 17.5t5 19.5q4 16 10 32.5t10 34.5q0 4 2 20.5t2 20.5q2 4 8 23.5t9 23.5q0 2 2 12.5t3 21.5t3 21.5t2 12.5q2 4 9 26.5t9 26.5q0 2 2 11.5t2 13.5q10 51 23.5 101t23.5 100q0 4 3.5 18t3.5 18t2 14.5t2 12.5t4 14.5t7 24.5t7 23.5t4 15.5t2 18.5t2 18.5 q2 4 8.5 23.5t8.5 23.5q10 29 10 57.5t14 57.5q4 4 9.5 10t7.5 6h329q6 0 17 -10q4 -27 12 -50.5t12 -50.5q8 -39 16.5 -76.5t16.5 -78.5q0 -2 2 -9.5t2 -11.5q2 -4 8 -26.5t9 -26.5q2 -4 5 -28.5t5 -28.5q0 -4 2 -11.5t2 -9.5q2 -4 6 -17.5t6 -15.5q0 -4 2 -23.5t2 -23.5 t4 -14t7.5 -22.5t6.5 -23.5t3 -13q2 -4 4 -18.5t2 -18.5q2 -4 6 -20.5t6 -20.5q0 -4 5 -14.5t5 -12.5q2 -4 3 -21.5t4 -21.5q0 -2 3 -13.5t6 -24.5t7 -25.5t4 -14.5q0 -4 2 -23.5t2 -23.5q2 -2 3 -9t3 -11q12 -41 22.5 -81t18.5 -81q2 -4 3 -23.5t3 -23.5q0 -4 4.5 -17.5 t6.5 -15.5q2 -6 6 -22.5t4 -20.5t2 -18.5t4 -18.5q0 -2 2 -9t2 -11q2 -4 8 -23.5t8 -23.5q0 -4 2.5 -20.5t2.5 -20.5t4 -15.5t7 -25t7 -24.5t4 -13q0 -4 2 -21.5t2 -21.5q4 -18 10.5 -36t10.5 -38q10 -53 21 -104.5t26 -104.5q2 -2 3 -12t3 -15q0 -4 2 -18t2 -18 q2 -4 5 -17.5t5 -19.5q2 -4 6 -16.5t7 -14.5q0 -4 2 -21.5t2 -21.5q4 -18 11 -35.5t9 -38.5q4 -23 7 -41t9 -41v-4q0 -4 -6 -8t-10 -4h-326q-8 0 -12 7t-8 13q-2 6 -6 17.5t-4 15.5q-2 2 -3 17.5t-3 17.5q0 2 -3.5 15.5t-6.5 26.5t-7 25.5t-4 16.5t-2 23.5t-2 23.5 q-2 2 -5 16.5t-7 20.5q0 4 -4 16.5t-6 14.5q0 4 -2.5 16t-2.5 16q-4 16 -16 17h-387q-4 0 -11 -6t-10 -11q-2 -6 -8 -26.5t-6 -26.5q-2 -4 -4 -23.5t-2 -23.5q-2 -12 -7 -26.5t-9 -24.5q0 -4 -2 -11t-2 -12q0 -2 -2.5 -17t-4.5 -17q-2 -10 -6 -27.5t-8 -33t-8 -28.5l-4 -12 l-10 -10h-336q-6 0 -8.5 11.5t-2.5 15.5zM621 717q0 -2 1 -5t1 -5t4 -6.5t6 -4.5h213q8 0 15 4.5t7 12.5l-2 4q0 4 -4 16t-6 17q0 4 -2 23.5t-2 23.5q-2 4 -8 23.5t-8 23.5q0 2 -2.5 9t-2.5 11q-2 4 -4 18.5t-2 18.5q0 2 -2 9.5t-4 11.5q0 4 -4 16t-6 14q0 2 -2 15.5t-5 28 t-5 26.5t-2 16q-2 4 -8.5 26.5t-8.5 27.5q-8 35 -11 64.5t-26 64.5l-2 2q-6 0 -11 -15.5t-8 -35t-5 -38t-4 -22.5t-6.5 -16.5t-4.5 -14.5q-2 -4 -3 -23.5t-3 -23.5q0 -4 -7 -26.5t-7 -26.5q-2 -4 -4 -12t-2 -11q-4 -25 -8 -47t-13 -47q-2 -4 -3 -11t-3 -9q0 -4 -2 -18.5 t-2 -18.5t-4 -15.5t-7 -24.5t-6 -24.5t-3 -13.5t-1 -5t-1 -7z" />
<glyph unicode="B" horiz-adv-x="1490" d="M109 10q0 18 -1.5 64.5t-2.5 98.5t-2 98t-1 65v4q0 4 3.5 8t7.5 8q0 2 2 2t4 2l4 5h90q0 2 2 4q0 2 1 2t1 2q2 4 4 9t2 7v1268q0 2 -2 7t-4 9l-2 4q-2 2 -2 4h-90q-6 0 -12.5 9.5t-8.5 13.5v2v4q0 18 1 64.5t2 98.5t2.5 98t1.5 65q2 4 9 7t11 3h928q2 0 12 -2t14 -4 q6 0 17.5 -3t24 -7.5t22.5 -7.5t14 -3q2 0 5 -2t5 -2l43 -21.5t39 -25.5q2 -4 10.5 -12t18.5 -18.5t19.5 -19.5t13.5 -13q23 -25 37 -55.5t26 -59.5q0 -4 2 -6q0 -2 2 -4q0 -2 4 -11q2 -4 3 -8v-633q0 -4 -8.5 -20t-12.5 -23l-47 -47q-4 -4 -11 -5t-10 -11q-2 0 0.5 -4 t4.5 -6q2 0 11 -4t9 -7q6 -4 19.5 -18t17.5 -18q4 -6 8 -15q4 -6 7 -11t5 -9t4.5 -7t2.5 -5v-633q0 -2 -2.5 -7.5t-4.5 -9.5q-29 -74 -69.5 -127t-114.5 -94q-18 -10 -27.5 -15t-29.5 -12q-8 -2 -34 -9t-34 -11h-944q-4 0 -11 3t-9 7zM598 369h350q6 2 13 6q4 2 9 4t9 4 q23 12 38 32.5t15 45.5v293q0 14 -10 29.5t-24.5 27.5t-31 20.5t-28.5 8.5h-336q-2 0 -8 -8.5t-6 -12.5v-440zM588 1229q0 -4 6 -12.5t8 -8.5h336q2 0 6 2q2 0 4 1t4 1t6 5q2 2 5 2q6 4 24.5 22.5t22.5 24.5q8 8 15 22.5t7 24.5v282q0 12 -8 26.5t-19.5 27t-25.5 20.5t-27 8 h-354l-10 -10v-438z" />
<glyph unicode="C" horiz-adv-x="1497" d="M102 1737q0 2 8.5 26.5t12.5 36.5q0 2 4 9.5t6 11.5q45 80 109.5 135t154.5 82q8 2 23.5 6t17.5 4h625q2 0 21.5 -4t29.5 -6q4 -2 18.5 -6t18.5 -4q98 -25 150.5 -93.5t80.5 -160.5q12 -29 13 -62q0 -10 -1 -16t-12 -17q-4 -2 -20 -8t-21 -6q-4 -2 -18 -3t-18 -3 q-2 0 -12.5 -4t-14.5 -6q-16 -6 -30.5 -9.5t-30.5 -7.5q-4 0 -15.5 -4t-15.5 -6q-4 0 -15.5 -5t-13.5 -5q-4 0 -18.5 -2t-18.5 -2q-18 -6 -32.5 -14.5t-32.5 -8.5q-14 0 -20.5 10.5t-10.5 23.5t-12 27.5t-27 22.5q-4 2 -16 6q-6 2 -11 4h-430q-33 0 -51 -33.5t-18 -60.5 v-1108q0 -25 9 -44t24 -40l4 -4q10 -4 25.5 -12t17.5 -8h419q4 2 11 4q12 4 16 6q12 4 24.5 15.5t16.5 25.5q4 16 6 29.5t23 13.5q18 0 33.5 -9.5t31.5 -13.5q4 0 18.5 -2t18.5 -2q14 -4 28.5 -10t31.5 -10q4 -2 18 -4t18 -2q4 -2 23.5 -8.5t23.5 -8.5q16 -6 34 -8t31 -6 t21.5 -15.5t8.5 -33.5q0 -23 -5.5 -40.5t-11.5 -37.5q-12 -37 -25.5 -64.5t-30.5 -50t-39.5 -43t-55.5 -41.5q-25 -18 -56 -26q-10 -4 -26.5 -8.5t-31.5 -8.5t-27 -7l-13 -3h-645q-14 0 -26.5 6t-24.5 10q-4 0 -23.5 6.5t-23.5 8.5q-72 31 -125 88t-82 129q-2 4 -5 18.5 t-5 18.5t-5.5 15t-5.5 15v1422z" />
<glyph unicode="D" horiz-adv-x="1482" d="M102 348l13 17h96v1310h-96l-13 17v336l13 16h929q10 -2 19 -6q8 -4 17.5 -6t15.5 -4q90 -23 156.5 -82.5t109.5 -143.5q6 -14 9 -30.5t9 -32.5v-1442q-6 -16 -8 -38.5t-10 -39.5q-4 -6 -11.5 -19.5t-14.5 -25.5t-13 -21.5t-8 -11.5t-10.5 -11t-19.5 -21.5t-22.5 -22.5 t-17.5 -16q-29 -23 -72 -39.5t-71 -26.5q-4 0 -8 -1t-9 -1q-6 -2 -10 -2h-960l-13 12v336zM958 369q2 0 17.5 7t21.5 11t8.5 10t4.5 11q4 6 9 18t5 14v1168q0 16 -19.5 40.5t-37.5 24.5h-392v-1304h383z" />
<glyph unicode="E" horiz-adv-x="1486" d="M109 6q-2 0 -5 2q-2 0 -2 2v2030l2 2q2 0 2 1t3 1q6 6 10 6h1251q4 0 9 -8t5 -12v-326q0 -4 -4 -12l-6 -6h-899l-4 -5q-2 -2 -4 -2t-2 -2l-6 -6v-446q0 -2 9 -8.5t13 -6.5h621q6 0 18.5 -6t12.5 -14v-328q0 -10 -11.5 -15t-19.5 -5h-621q-4 0 -13 -6.5t-9 -8.5v-448l6 -6 q0 2 6 -4l4 -4h895q4 0 9 -7.5t5 -11.5v-326q0 -4 -5 -12t-9 -8h-1251q-4 0 -10 6z" />
<glyph unicode="F" horiz-adv-x="1499" d="M1397 2034v-330q0 -2 -2 -5t-4 -7l-7 -6h-913l-6 -9q0 -86 -2 -168q-2 -70 -3 -142.5t-1 -119.5v-4q0 -4 3 -18.5t13 -14.5h647q6 0 11.5 -11t5.5 -15v-316q0 -4 -5.5 -15t-11.5 -11h-647q-6 0 -10 -11q-2 -2 -4 -10t-2 -10v-791q0 -6 -3 -13t-12 -7h-325q-4 0 -10 6 q-2 0 -5 2q-2 0 -2 2v2030l2 2q2 0 2 1t3 1q6 6 10 6h1261z" />
<glyph unicode="G" horiz-adv-x="1499" d="M102 1751q0 12 6.5 21.5t10.5 19.5q0 4 4 16.5t6 16.5q23 47 52.5 78.5t66.5 66.5q2 2 8 6t8 4q14 8 42 21.5t32 15.5q2 2 31.5 9.5t46.5 11.5q4 2 15 4t13 2h611l14 -3t32.5 -7t38 -9.5t31.5 -7.5q4 0 9.5 -2t7.5 -2q43 -20 73.5 -42.5t53 -51.5t39 -63.5t32.5 -77.5 q4 -14 7.5 -24.5t3.5 -27.5q0 -12 -2 -20t-15 -18q-20 -14 -39.5 -19.5t-42.5 -11.5q-4 0 -16 -4t-16 -6q-2 0 -12.5 -5.5t-12.5 -5.5q-4 -2 -19.5 -3t-17.5 -3q-12 -2 -19 -6t-18 -10q-2 -2 -8 -4t-8 -2t-15.5 -2t-15.5 -2q-16 -4 -32.5 -13.5t-34.5 -9.5q-12 0 -19.5 10.5 t-13.5 24.5t-12.5 27.5t-14.5 19.5q-2 0 -12 3t-14 7q-8 4 -17 4h-411q-4 0 -16.5 -5t-16.5 -9q-2 -4 -16.5 -17.5t-18.5 -19.5q-2 -2 -2 -3t-2 -3t-2 -6v-1188q0 -4 7 -13.5t18.5 -19.5t21.5 -17t16 -7h428q2 0 17.5 8t23.5 12q4 2 10.5 11.5t11.5 20.5t8 21.5t3 14.5v172 q0 2 -2 9t-4 11q-2 2 -3 5t-3 3h-109q-4 0 -10 7.5t-6 11.5v332q0 4 8 9t12 5h447q27 0 26 -25v-684q-4 -18 -7 -41.5t-13 -42.5q-23 -43 -53.5 -86t-71.5 -69q-4 -2 -31.5 -17.5t-42.5 -25.5q-2 0 -3 -1t-3 -1q-2 -2 -4 -2q-4 -2 -14 -4.5t-13 -2.5q-4 -2 -23.5 -8 t-23.5 -6q-4 -2 -15 -4t-13 -2h-633q-6 2 -24.5 8t-22.5 8q-4 0 -18.5 4.5t-18.5 6.5q-2 0 -9 4t-12 6q-63 35 -108 79t-80 109q-2 2 -6 14.5t-4 16.5q-2 4 -8.5 18.5t-8.5 18.5v1458z" />
<glyph unicode="H" horiz-adv-x="1482" d="M457 2028v-807l4 -4q2 -2 2 -3.5t2 -3.5q2 0 3 -2t3 -2h537q4 0 11 11.5t7 13.5v803q2 0 4 2q2 0 2 1t2 1q0 2 2 2t4 2t4 2h326l10 -10v-2024l-10 -10h-326q-2 0 -4 2q-6 6 -6 4q-2 0 -4 2q-2 0 -4 2v801q0 4 -7 10t-11 6h-537l-12 -10v-33v-51q0 -2 2 -10t4 -10v-697 q0 -4 -8 -10t-13 -6h-321q-8 0 -14 6q-2 0 -5 2q-2 0 -2 2v2024l2 2q2 0 2 1t3 1q6 6 14 6h315z" />
<glyph unicode="I" horiz-adv-x="561" d="M109 6q-2 0 -4.5 4t-2.5 6v2012q0 16 17 16h325q2 0 5 -2q4 -4 6 -4l2 -2q0 -2 2 -2v-2024l-2 -2q0 -2 -2 -2q-2 -2 -3 -2t-3 -2t-5 -2h-325q-2 0 -6 2t-4 4z" />
<glyph unicode="J" horiz-adv-x="1488" d="M104 311v27.5t11 28.5q4 4 12 6t14 4q2 0 11.5 2t19.5 5t19.5 5t11.5 2q4 2 14 6t12 4q4 2 9.5 4.5t7.5 2.5q4 0 18.5 2t18.5 4q2 2 6 2q6 0 8 2q4 2 14.5 6t12.5 4q27 8 47 12t43 15q10 4 13 5t15 1h9.5t7.5 -6q10 -16 20 -40t27 -34q6 -4 18.5 -9t14.5 -5h424q2 0 12 3 t14 7q23 10 29 29.5t16 37.5v1588q2 0 4 2q2 0 2 1t2 1q6 6 11 6h313q8 0 14 -6l4 -2l2 -2v-1719q-6 -18 -9 -38.5t-11 -38.5q-33 -72 -88 -126.5t-127 -82.5q-4 -2 -27.5 -9.5t-33.5 -11.5q-4 -2 -12.5 -4t-10.5 -2h-670q-16 6 -34.5 11t-32.5 9q-4 0 -14.5 2.5t-12.5 4.5 q-66 29 -109.5 81t-68.5 117q-8 23 -14.5 42t-6.5 44z" />
<glyph unicode="K" horiz-adv-x="1495" d="M471 1198q23 16 39 39t31 45l270 346q2 2 6 8l6 9q6 8 30 36.5t51.5 62.5t51 63.5t29.5 37.5q0 2 4 7.5t6 9.5t8.5 14t8.5 12q2 4 3 9.5t5 9.5q2 6 6 12q2 4 3 28.5t3 39.5v32.5t10 26.5q4 0 16.5 2t16.5 2h299l17 -16q2 0 2 -27v-41v-26.5v-33t-1 -29.5t-1 -15 q-2 -55 -25 -95.5t-55 -80.5q-102 -133 -202.5 -265.5t-207.5 -263.5v-20l459 -918q0 -4 4 -15t6 -16q8 -23 14.5 -29.5t6.5 -29.5q2 -4 2 -30.5v-41.5v-28.5t-2 -18.5l-17 -16h-299q-4 0 -16 2t-17 4l-4 4q-2 27 -10 50.5t-19.5 46t-24.5 44t-26 43.5q-53 104 -105 207 t-105 209q-18 39 -37 78t-39 80q-8 14 -11.5 28.5t-21.5 14.5h-10q-4 -2 -9.5 -8t-7.5 -9q-6 -10 -24.5 -32.5t-38 -49t-37.5 -49t-25 -30.5q-2 -4 -10 -16.5t-10 -16.5q-2 -2 -4 -5t-4 -5v-574q0 -2 -4 -5t-9 -5q-6 -6 -10 -6h-301q-4 0 -11 2t-11 4q-2 0 -6.5 4t-4.5 6 v2024q0 2 4.5 6t6.5 6q4 0 11 2t11 2h301q4 0 12.5 -6t8.5 -10v-820q0 -18 10 -18z" />
<glyph unicode="L" horiz-adv-x="1492" d="M102 2032l17 16h303q4 0 14 -2t15 -2l6 -6q0 -4 2 -16.5t2 -16.5v-1626q0 -2 2 -4q6 -6 4 -6q0 -2 1 -2t1 -2t2 -5h899l4 -4q4 -4 6 -4l6 -6l5 -4v-332q0 -2 -3.5 -6t-7.5 -4q-2 -2 -10 -4t-10 -2h-1241l-17 16v2022z" />
<glyph unicode="M" horiz-adv-x="1486" d="M745 1108q8 8 10.5 20.5t6.5 22.5q2 4 8 22.5t8 22.5q0 2 2 13.5t4 13.5q4 16 10.5 31.5t10.5 31.5q10 47 24.5 89t28.5 87q0 4 4 23.5t6 23.5q0 2 4.5 13.5t6.5 13.5q10 27 20 63.5t16 65.5q0 2 2.5 8t4.5 8q0 4 6 18.5t6 18.5q2 4 4 18.5t2 16.5t3 11.5t7 20.5 t7.5 20.5t3.5 11.5q12 39 23 75.5t26 73.5q4 14 6 28.5t5 26t12 18.5t28 7h301q4 0 13 -6t9 -10v-2020q0 -4 -9 -10t-13 -6h-301q-2 0 -9.5 2t-11.5 4q-4 0 -8 4t-4 6v717q-4 -2 -15.5 -12t-15.5 -15q-2 -4 -2 -6q-2 -4 -2 -8q-8 -29 -16 -56.5t-16 -56.5q-4 -14 -10.5 -26 t-10.5 -27q-4 -10 -6 -28.5t-12 -24.5q-4 -2 -13.5 -3t-13.5 -1h-303q-16 0 -24.5 6t-11.5 16.5t-4 21.5t-5 23q-2 4 -8.5 18.5t-8.5 18.5t-3 9.5t-3 7.5q0 4 -2 15t-2 13q-2 4 -9 18.5t-7 18.5q-2 4 -6 25.5t-4 25.5q-4 10 -13.5 19.5l-13.5 13.5q-2 0 -4 -1t-4 -1v-721 q0 -2 -4 -6t-9 -4q-4 -2 -12 -4t-10 -2h-301q-4 0 -12.5 6t-8.5 10v2020q0 4 8.5 10t12.5 6h301q4 0 16.5 -2t16.5 -2q8 -4 10 -21.5t4 -21.5q0 -2 4 -11.5t7 -20.5t7.5 -20.5t4.5 -11.5q0 -4 2 -17t2 -17q2 -4 8 -19.5t8 -17.5q2 -4 3 -9.5t3 -7.5q6 -29 14.5 -56.5 t16.5 -55.5q4 -16 10 -29.5t10 -28.5q0 -4 2 -19.5t2 -17.5q0 -4 5.5 -14t5.5 -12q2 -4 4 -9.5t2 -7.5q6 -23 12 -41t14 -40q0 -2 2.5 -10.5t2.5 -12.5q2 -2 3 -12.5t3 -14.5q0 -4 7 -18l9 -18l2 -8q2 -7 3 -16t3 -17.5t2 -10.5q0 -4 2 -6v-4q0 -2 2 -2q16 -41 27.5 -80 t22.5 -80q0 -2 2 -7t2 -9q2 -2 5 -11.5t3 -13.5q2 -2 4 -15t2 -15q2 -6 5 -17.5t11 -11.5z" />
<glyph unicode="N" horiz-adv-x="1499" d="M852 1233q6 -14 24.5 -51t38 -77t38 -77t24.5 -51q4 -8 10 -23.5t12.5 -31t12.5 -26.5t10 -11h9t5 4v1139l19 16h303q4 0 14 -2t14 -2l7 -6q2 -4 3 -16.5t1 -16.5v-1964q0 -4 -1 -16.5t-3 -16.5q0 -2 -2 -2q-2 -2 -5 -2q-4 -2 -14 -4t-14 -2h-303q-4 0 -11.5 6t-9.5 10 q-4 4 -10 11.5t-6 9.5q-2 4 -6 15t-4 15q-37 82 -77 163t-79 161q-2 6 -12.5 25.5t-21.5 42t-21.5 42t-12.5 25.5q-2 4 -6 15.5t-6 13.5q0 2 -2 6t-2 6q-25 43 -47 94l-2 4q-2 2 -2 5q-2 2 -6 8t-4 8q-2 4 -6.5 16.5t-4.5 16.5q-4 4 -13 23.5t-20.5 43t-21.5 43t-12 25.5 q-2 2 -6.5 12t-4.5 14q-8 14 -28.5 56.5t-42 88.5t-42 87l-28.5 57l-12 -10v-1143l-19 -16h-301q-4 0 -16 2t-16 4l-4 4q-2 4 -4.5 16.5t-2.5 16.5v1964q0 4 2 16.5t5 16.5l2 2q0 2 1 2t1 2q4 0 16 2t16 2h301q10 0 21.5 -10.5t15.5 -20.5q0 -4 4.5 -16t6.5 -15q0 -2 2 -5 t2 -5q20 -35 35.5 -70.5t31.5 -70.5q35 -70 68 -140.5t67 -140.5q2 -6 13.5 -25.5t23 -43t20.5 -43t11 -25.5q2 -2 5 -15.5t5 -15.5q0 -2 6 -8q12 -23 24.5 -47t22.5 -49q6 -12 11.5 -21.5t9.5 -23.5z" />
<glyph unicode="O" horiz-adv-x="1499" d="M1397 375q-10 -29 -10.5 -60.5t-10.5 -60.5q-2 -2 -2 -4q-2 -2 -2 -4q-10 -16 -24.5 -44t-16.5 -30q-45 -72 -112.5 -109.5t-143.5 -62.5q-4 -2 -12 -4t-10 -2h-617q-18 0 -36.5 7t-37.5 13q-2 2 -16 6.5t-18 6.5q-2 0 -8.5 4t-8.5 6q-51 31 -94 68.5t-72 93.5 q-16 29 -29.5 54.5t-13.5 59.5v1426q0 27 8.5 43t18.5 39q33 72 84 119t121 81q2 0 6 2q4 0 5 1t3 1q25 8 55.5 17.5t57.5 9.5h565q33 0 62.5 -10t58.5 -21q0 -2 4 -3t6 -3q43 -23 81 -50.5t67 -63.5q20 -27 44.5 -61t32.5 -68q4 -25 6.5 -48.5t8.5 -46.5v-1302zM520 369 l8 -4q4 -2 7 -3h423q2 0 5 3q2 2 3 2t3 2q16 10 36.5 27.5t20.5 41.5v1166q0 29 -18.5 45t-38.5 28q-2 0 -6 4q-2 2 -5 2h-423q-8 0 -18.5 -8t-20 -19t-16.5 -22.5t-9 -19.5q-2 -4 -3 -9.5t-3 -9.5l-4 -12v-1124q0 -29 17 -53.5t42 -36.5z" />
<glyph unicode="P" horiz-adv-x="1486" d="M465 831l-8 -12v-809q0 -6 -11 -10q-6 -6 -12 -6h-299q-4 0 -11 2t-11 4q-2 0 -6.5 4t-4.5 6v2013q0 2 4.5 6.5l6.5 6.5q4 0 11 2t11 2h897q27 0 50.5 -7.5t47.5 -13.5q12 -4 20.5 -5t18.5 -5q55 -27 107.5 -72t77.5 -100q4 -8 13 -32.5t13 -30.5q0 -6 2 -9q0 -2 2 -4 v-637q0 -23 -11 -48t-19 -44q-20 -47 -56 -84t-79 -61l-74 -37q-4 0 -19.5 -2t-19.5 -2q-4 -2 -21.5 -6t-21.5 -9h-598zM954 1202q12 0 24.5 7.5t23 18.5t17.5 24.5t7 23.5v328l-4 16q0 2 -16.5 17.5t-24.5 21.5q-4 2 -11 6t-12 6q-92 4 -182 4h-182h-129l-6 -10v-463h495z " />
<glyph unicode="Q" horiz-adv-x="1492" d="M1391 395l-21 -78q-2 -2 -5 -7t-5 -9q-2 -2 -8 -14.5t-9 -16.5q-4 -6 -18 -27.5t-18 -25.5q-2 -2 -13.5 -12t-13.5 -12q-2 0 -3 -4.5t-3 -6.5v-2q0 -20 16.5 -38.5t26.5 -32.5q2 -2 8 -11.5t13.5 -19.5t13.5 -19.5t8 -11.5q6 -10 13 -19.5t7 -21.5v-6q0 -2 -6 -4t-10 -2 h-307q-20 0 -33 16q-2 4 -17.5 23.5t-17.5 23.5l-14 15h-543q-4 0 -13 2t-13 2q-92 29 -161 83t-110 142q-6 10 -16 31.5t-10 25.5q-2 4 -4.5 9.5t-2.5 7.5v1370q0 16 8.5 32.5t12.5 30.5q35 90 109.5 147.5t166.5 82.5q10 2 32 6t26 4h590q23 0 42 -7t39 -13 q84 -27 145.5 -84.5t96.5 -135.5q10 -18 12 -40.5t9 -43.5v-1329zM1030 1593q0 12 -13 35t-24 29q-6 4 -22.5 13t-18.5 9h-405q-2 0 -7 -2l-10 -4q-70 -27 -69 -106v-989q0 -35 11 -66t42 -53q4 -4 16.5 -10.5t16.5 -6.5h162l2 2q0 2 1 2t1 3l2 2q0 12 -14.5 25t-18.5 24 q-4 4 -17.5 23.5t-28.5 41t-28.5 41t-15.5 23.5q-2 2 -7 11t-7 11v4v6.5t4 4.5h340l30 -31q2 -2 10.5 -14.5t12.5 -16.5q0 -2 6 -12t8 -14q4 -4 13.5 -15.5t11.5 -11.5h16v1042z" />
<glyph unicode="R" horiz-adv-x="1492" d="M1044 823q0 -20 9.5 -38.5t17.5 -34.5q76 -166 139 -328q20 -47 42 -92t38 -92q0 -2 2 -5q6 -6 4 -6q16 -27 24.5 -53.5t20.5 -54.5q2 -4 10.5 -21.5t10.5 -21.5l4 -8q2 -4 2 -7l21 -41v-4q0 -2 2 -4q0 -2 -1 -2t-1 -2v-4q0 -2 -4.5 -6t-6.5 -4h-354q-4 0 -11 6t-9 10 q-4 4 -11.5 20.5t-9.5 20.5t-8 23.5t-8 23.5q-14 35 -29.5 70t-32.5 70q-18 45 -35.5 87t-33.5 87q-14 35 -29.5 69.5t-32.5 69.5q-29 70 -54.5 139.5t-60.5 136.5q-2 4 -6 6.5t-8 4.5h-2h-4q-20 -2 -48 -2t-56 -2q-33 -2 -68 -3l-8 -8v-813q0 -2 -4 -5t-9 -5q-6 -6 -12 -6 h-299q-4 0 -11 2t-11 4q-2 0 -6.5 4t-4.5 6v2020q0 2 4.5 6t6.5 6q4 0 11 2t11 2h901q6 -2 13 -2q4 -2 9 -2h9q43 -10 87 -30.5t83 -50.5t70.5 -66.5t50.5 -77.5q4 -10 14 -32t12 -26q0 -4 2.5 -9t2.5 -7v-598q-2 -2 -3 -6q-2 -4 -2 -11q-39 -92 -101 -164.5t-161 -111.5 q-4 0 -23.5 -4t-23.5 -6q-6 -2 -18.5 -5.5t-12.5 -13.5zM956 1208q2 0 7 2q4 2 6 2t4 2q2 0 5 1.5t5 1.5l37 36v2q0 2 2 5q0 2 2 4q2 6 4 22.5t2 20.5v301l-6 16q0 2 -16.5 18.5t-24.5 22.5q-4 4 -11 8t-11 4h-490l-10 -12v-457h495z" />
<glyph unicode="S" horiz-adv-x="1499" d="M102 338q0 16 15 27q18 12 39.5 17t42.5 9q2 0 7 2t9 2q20 8 39.5 11.5t38.5 9.5q4 2 18.5 8t18.5 8t25.5 5t25.5 5q16 4 31.5 12.5t31.5 8.5q18 0 18.5 -15.5t4.5 -25.5q2 -2 5 -7t5 -9q4 -4 14.5 -13.5t12.5 -11.5q4 -4 15 -10t16 -6h438q2 0 14 6t17 10q12 8 21 25.5 t9 29.5v156q0 4 -5 15t-9 16q-16 20 -40 37.5t-42 29.5q-98 59 -198.5 118.5t-200.5 119.5q-4 2 -15.5 9t-25 15.5t-26.5 15.5t-19 11q-80 45 -160 97t-129 134q-2 4 -8 16.5t-9 14.5q0 2 -4 8t-6 8q-10 18 -16 47t-15 50v411q0 2 2.5 8.5t4.5 10.5q10 27 20 50.5t25 45.5 q2 4 9 13.5t11 13.5q41 45 89 77.5t108 49.5q16 4 30.5 10t30.5 6h629q2 0 19.5 -4t27.5 -6q98 -25 162.5 -94.5t99.5 -161.5q2 -4 6 -19.5t4 -19.5q2 -2 6.5 -12.5t4.5 -12.5v-4v-4q0 -2 2 -2q0 -14 -11.5 -22.5t-21.5 -14.5q-12 -6 -23.5 -6t-27.5 -4q-2 0 -12.5 -4 t-12.5 -6q-4 -2 -16 -5t-15 -6q-4 0 -24.5 -4t-24.5 -6q-2 -2 -6 -2q-2 -2 -6 -2h-2q-2 -2 -12.5 -6t-14.5 -4q-2 -2 -16 -3t-18 -3q-20 -4 -35 -12.5t-35 -8.5h-19q0 2 -2 3t-2 3q-2 4 -12 26t-14 26q-6 10 -26.5 22t-35.5 12h-417q-2 0 -9.5 -3t-11.5 -7 q-10 -6 -25.5 -21.5t-15.5 -19.5l-6 -14v-150q0 -16 9 -32.5t23.5 -31.5t29 -28.5t26.5 -21.5q45 -33 92 -58.5t94 -54.5q72 -43 144.5 -88t144.5 -88q78 -47 158 -94t135 -121q18 -23 28.5 -44.5t22.5 -49.5q10 -20 13.5 -47t7.5 -50v-340l-21 -77q-14 -18 -24.5 -41 t-26.5 -43q-4 -4 -15.5 -16.5t-24.5 -25t-24.5 -24.5t-17.5 -16q-16 -12 -31.5 -18.5t-31.5 -16.5q0 -2 -6.5 -6t-8.5 -4q-18 -10 -44.5 -16.5t-47.5 -14.5h-659q-16 0 -30.5 5t-31.5 9q-35 10 -66.5 24.5t-58.5 37.5q-53 47 -88 118.5t-35 143.5z" />
<glyph unicode="T" horiz-adv-x="1488" d="M102 1700v334l4 4q2 0 7 4q2 2 4 2h1259l10 -10v-346h-448l-12 -13v-1661l-4 -4q-4 -4 -4 -6l-5 -4h-338q-2 0 -6 3t-4 7q-2 4 -4 15.5t-2 15.5v1628q0 4 -5 11.5t-9 7.5h-432z" />
<glyph unicode="U" horiz-adv-x="1492" d="M113 2044h333l15 -10v-1577q0 -14 7 -30.5t19.5 -30t26.5 -22.5t31 -9h420q2 0 13 6t17 10t13.5 13t11.5 18q4 6 9 17t5 13v1592l13 10h333l11 -10v-1737q-2 -2 -2 -6t-1.5 -6t-1.5 -4q-4 -6 -11 -25.5t-9 -26.5q-10 -23 -23.5 -41t-23.5 -41q-35 -37 -73 -69.5 t-85 -52.5q-18 -8 -38.5 -12.5t-41.5 -12.5h-671q-2 0 -28 10t-40 15q-59 27 -109.5 73.5t-85.5 100.5l-20 41q-6 16 -15.5 39.5t-9.5 42.5v1712z" />
<glyph unicode="V" horiz-adv-x="1488" d="M104 2036v8t5 6h346l10 -10q0 -6 2 -23.5t2 -23.5q0 -2 4 -12.5t7 -22.5t6 -23.5t3 -13.5q2 -2 4.5 -16.5t2.5 -18.5q0 -2 2 -10t2 -10q2 -4 8 -23.5t8 -23.5q0 -2 2 -16.5t2 -18.5q2 -4 4 -14.5t2 -14.5q12 -45 23.5 -91t21.5 -93q2 -4 3 -20.5t4 -20.5q0 -4 8 -22.5 t8 -22.5q2 -4 4 -18.5t2 -18.5q4 -25 12.5 -47.5t12.5 -46.5q10 -41 18 -82t19 -82q0 -2 2 -9t5 -15.5t5 -16.5t2 -10q2 -4 3 -23.5t3 -23.5q0 -4 7 -23.5t7 -24.5q2 -2 4 -9t2 -11t2.5 -20.5t2.5 -20.5q2 -4 8 -22.5t8 -22.5q2 -8 3 -19.5t2 -22.5t4 -20.5t11 -15.5 q14 10 15.5 26.5t5.5 31.5q0 2 3 10t5 17t4 17.5t2 10.5q2 4 6 28.5t4 28.5q0 2 3.5 9.5t5.5 15.5t5 16t3 10t2 11.5t3 18.5t3 17.5t2 10.5t3 12t7 21.5t7.5 21.5t3.5 12q0 4 2 22.5t2 22.5q2 4 8 23.5t8 23.5q0 4 2 11.5t2 9.5q2 4 3 22.5t3 22.5q0 4 7.5 23.5t7.5 23.5 q2 2 3 11.5t3 13.5q0 4 2 19t2 20q4 16 12 32.5t10 32.5q2 4 3.5 20.5t3.5 20.5l20 61q0 4 2 26t2 26q0 2 4 11t7 19.5t6.5 19.5t3.5 11q2 4 3 24.5t3 24.5q0 2 2 9.5t5 15.5t5 16t2 10q2 4 4 11.5t2 9.5q4 16 4 27.5t6 27.5v2q0 2 3 4q0 2 2 5q2 6 6 19t4 17q2 4 4 18.5 t2 16.5q2 10 7 23.5t18 13.5h329q2 0 6 -4t4 -6v-4q0 -35 -9 -67t-15 -62q-2 -4 -5 -29t-5 -29t-8.5 -22.5t-8.5 -22.5q0 -2 -2 -12t-2 -14q-8 -47 -18 -93.5t-23 -93.5q-2 -4 -5 -21.5t-5 -23.5q0 -4 -2 -18.5t-4 -18.5q0 -4 -6 -22.5t-8 -22.5t-3.5 -11t-3.5 -9 q0 -4 -2 -24.5t-2 -24.5q0 -2 -3 -13.5t-7 -23.5t-7 -24.5t-3 -14.5q-2 -4 -4 -20.5t-4 -20.5q0 -2 -4.5 -12.5t-6.5 -14.5t-5 -17t-5 -17q0 -4 -2 -20.5t-2 -20.5q-2 -4 -5 -19.5t-5 -21.5q-2 -4 -6 -17.5t-4 -15.5q-2 -4 -3.5 -23.5t-3.5 -23.5q0 -2 -3 -13.5t-6 -23.5 t-7 -24.5t-4 -14.5q0 -4 -2 -18.5t-2 -18.5q0 -2 -5 -14.5t-5 -16.5q-2 -6 -6.5 -19t-4.5 -15q-2 -4 -3 -23.5t-3 -24.5q0 -2 -2 -9t-5 -16t-5 -17.5t-2 -10.5t-2 -10t-4 -17.5t-3 -17.5t-1 -10t-2 -9t-5 -12q0 -2 -2 -10t-5 -16t-5 -15.5t-2 -9.5q-2 -4 -3 -20.5t-3 -20.5 q-4 -18 -10 -35.5t-10 -35.5q0 -4 -2.5 -23.5t-2.5 -24.5q-2 -14 -7 -27t-9 -26q-4 -18 -7 -37.5t-7 -38.5q-20 -70 -33.5 -138t-34.5 -140q-2 -6 -3 -19.5t-3 -28t-8 -24.5t-17 -10h-335q-4 0 -11.5 6t-9.5 8t-3 9.5t-3 11.5q0 4 -2 23.5t-2 23.5q0 2 -3 12t-7.5 20.5 t-7.5 20.5t-3 12q-2 4 -3 25t-3 25q0 2 -2 9t-2 11q-12 41 -21.5 82t-19.5 82q-2 2 -3 11t-3 14q0 4 -2 18t-2 18q-2 4 -8 23.5t-8 23.5q0 4 -2.5 18.5t-2.5 18.5q-2 4 -3 13.5t-3 11.5l-20 82t-21 82q0 4 -2 20.5t-2 20.5t-6 25.5t-10 33.5q-4 18 -7 36.5t-8 39.5 q-4 16 -8 25.5t-8 25.5q0 4 -2 11.5t-2 9.5q0 4 -2 20t-4 21q0 2 -2 10l-4 16t-5 15.5t-3 9.5q0 4 -2.5 13t-4.5 13q0 4 -2 18.5t-2 16.5q-6 25 -11 37t-9 33q0 2 -2 12t-3 20.5t-3 20.5t-2 12q-2 4 -8.5 23.5t-8.5 23.5q0 2 -1 9.5t-2 15.5t-2 16.5t-1 10.5t-3 12t-7 20.5 t-7 20.5t-3 12q-2 4 -3.5 19.5t-3.5 19.5q0 4 -4 19.5t-6 21.5q0 2 -4 14.5t-6 16.5q0 4 -2 22.5t-2 22.5q0 2 -3 13t-7 23.5t-7.5 22.5t-3.5 12q-2 4 -3 20.5t-3 20.5q-2 18 -9 35t-11 33q0 4 -2 19.5t-2 17.5q0 4 -2 13t-4 14q0 2 -2.5 10t-5.5 17t-5 17.5t-2 10.5 q-2 4 -3 23.5t-3 23.5q0 2 -3 11t-6 19.5t-7 19.5t-4 11t-2.5 19.5t-2.5 25.5v13v0z" />
<glyph unicode="W" horiz-adv-x="1501" d="M197 276q-2 2 -4.5 9.5t-2.5 11.5t-1 20.5t-1 36t-1 37t-1 21.5t-2 15t-4 15l-10 353q-6 18 -7 36.5t0 38t1 38t-8 36.5l-11 365q-8 18 -8 36.5v38v38t-8 36.5l-10 371q0 2 -2 9t-2 11t-1 18.5t-2 31t-2 30t-1 17.5t-2.5 16t-2.5 14v27q0 14 -1 19.5t6 15.5l6 6h340l2 -2 q0 -2 2 -4q2 0 3 -8.5t3 -12.5t3 -16t1 -14l14 -209v-21q6 -86 6 -173t7 -173q0 -2 2 -7t2 -7h2q6 0 9 5t5 9q0 4 2 23.5t2 23.5q4 18 10.5 35.5t10.5 36.5q2 4 4 20.5t2 20.5q0 2 2 11t2 13q2 8 8 33t8 31q0 4 4 15.5t11 11.5h333q16 0 24.5 -37t16 -82t15.5 -82t24 -37h2 q2 2 3 7t1 7l17 326q6 12 5 26.5t-2 27.5t-1 26.5t8 25.5q0 6 1 19.5t1 28t1 27.5t1 18q0 4 2 13t4 17l4 21l7 6h340l10 -10v-41v-62q0 -2 -3 -12t-3 -14t-1 -19.5t-1 -34t-1 -34t-1 -19.5t-2.5 -11t-4.5 -9l-10 -367q-6 -16 -7 -35.5t0 -38t1 -38t-8 -35.5l-10 -346 q-10 -41 -8.5 -84t-8.5 -84q-6 -123 -8 -242t-12 -242q0 -4 -1 -11t-3 -9l-11 -232q0 -2 -2 -4t-2 -4t-2 -2l-4 -4h-340q-8 0 -11 10t-5 15q-10 35 -15.5 64.5t-9.5 64.5q0 2 -2 11t-4 13q0 2 -2 11.5t-5 19.5t-5 19.5t-2 11.5q-2 4 -3 25.5t-3 25.5q-2 20 -9.5 39.5 t-11.5 40.5q0 2 -1 11t-1 19.5t-1 19.5t-1 11t-3 10.5t-5 17.5t-5 17t-3 10q0 4 -2 15.5t-2 15.5t-2.5 20.5t-4.5 20.5q0 4 -3 17.5t-6 29t-7 28.5t-4 17q0 2 -1 14.5t-3 24.5t-4 23.5t-2 15.5q0 2 -2 9t-2 12q-2 2 -6.5 14t-4.5 16q0 2 -1 10.5t-2 17.5t-2 17.5t-1 10.5 q0 4 -2 15t-2 15q-2 6 -5 16.5t-13 10.5q-12 0 -16.5 -19.5t-6.5 -27.5q-2 -4 -3 -13.5t-3 -11.5q0 -4 -2 -23.5t-2 -23.5l-21 -82q0 -2 -1 -10t-2 -17.5t-2 -17.5t-1 -10q0 -4 -6 -28.5t-8 -28.5t-3 -13.5t-3 -11.5q0 -4 -2 -28.5t-2 -28.5q0 -2 -5.5 -16.5t-5.5 -18.5 q-2 -6 -5 -25.5t-5 -25.5q0 -4 -2 -20.5t-4 -20.5q0 -4 -3 -18.5t-6 -30t-7 -29.5t-4 -17q0 -4 -1 -15t-3.5 -23.5t-4.5 -24.5t-2 -14q0 -4 -7 -22.5t-7 -22.5q0 -2 -1 -12.5t-2 -21.5t-2 -21.5t-1 -12.5t-4 -14.5t-6 -16.5q-2 -8 -5.5 -24.5t-9.5 -26.5q-2 0 -3 -2t-3 -2 h-340q-4 0 -9 8t-5 12l-10 256v0z" />
<glyph unicode="X" horiz-adv-x="1497" d="M541 1001v37l-439 871v116q0 2 2 5.5t2 5.5t5 6l2 2h336l10 -12q2 -6 5 -25.5t5 -26.5q2 -2 8 -12t8 -14q0 -2 2 -5t2 -5q10 -23 22.5 -46.5t25.5 -46.5q0 -2 2 -5t2 -5q10 -25 22 -46t25 -44q10 -18 16 -37.5t17 -38.5q2 -2 8 -12t8 -14q4 -4 19.5 -37t33 -71 t32.5 -68.5t21 -30.5h2q16 10 24.5 29.5t16.5 35.5l78 156l76 152q10 23 20.5 41t20.5 36q6 10 9 18.5t7 18.5q10 16 17.5 29.5t13.5 32.5q2 4 5 20.5t5 20.5q0 2 4.5 7t6.5 5h331l11 -12q0 -18 2 -35q0 -14 1 -28.5t1 -24.5v-9v-9t-4 -13l-435 -871v-41l435 -866v-125 l-11 -10h-331q-6 0 -11 10q-2 2 -3 10.5t-3 10.5q-4 12 -10 30.5t-14 30.5q-14 23 -25.5 46.5t-21.5 45.5q-4 10 -10.5 17.5t-10.5 17.5q-4 14 -12 26.5t-13 22.5q-14 43 -34.5 81t-42.5 77q0 4 -4.5 14.5t-6.5 12.5q0 2 -6 12t-8 12q-4 6 -12 25.5t-19.5 42t-21.5 40 t-17 17.5l-2 -2q-8 -4 -20 -27.5t-16 -33.5q-10 -23 -19.5 -44.5t-21.5 -41.5q-43 -72 -74 -154q-2 -2 -2 -4v-6q-18 -31 -38 -68t-34 -71q0 -2 -2 -5q-2 -2 -2 -4t-2 -2q-16 -31 -31.5 -62.5t-19.5 -66.5l-10 -10h-336l-2 2q-2 0 -5 2q0 2 -1 3t-1 3q-2 2 -2 4v121z" />
<glyph unicode="Y" horiz-adv-x="1492" d="M567 688v21l2 278l-241 481q-2 2 -9.5 19.5t-11.5 25.5q-18 43 -39.5 84t-42.5 82q-10 20 -18 40t-19 38q-10 18 -20 38t-21 38q-12 25 -24 50.5t-21 51.5v9v8q0 10 1 24.5t1 28.5q0 16 2 33l11 6h329q2 0 6.5 -4t4.5 -6q2 -2 3 -12.5t3 -14.5q8 -23 19.5 -41t21.5 -41 q12 -25 25.5 -50.5t25.5 -51.5q12 -25 25.5 -50.5t25.5 -52.5q8 -16 16.5 -32.5t14.5 -32.5q0 -2 2 -5t2 -5q2 -2 8 -12.5t8 -14.5q0 -2 2.5 -11.5t2.5 -11.5q2 -2 5 -9t5 -11q4 -6 14 -28.5t22.5 -45t24.5 -41t19 -18.5h2q16 10 20 37l252 503q0 10 2 28t8 28l2 4q0 2 2 2 h340l6 -6q4 -4 5 -10v-107q0 -8 -5 -16q-2 -4 -12 -23.5t-21.5 -42t-21.5 -42t-12 -25.5q0 -2 -2 -7.5t-2 -7.5q-4 -8 -14.5 -28.5t-21.5 -44t-21.5 -43t-14.5 -27.5q-10 -25 -20.5 -48.5t-20.5 -45.5q-59 -117 -116.5 -233t-110.5 -234q-10 -25 -28.5 -54.5t-18.5 -60.5 v-903q0 -4 -1 -12.5t-3 -12.5q-6 -10 -11 -10h-338l-10 10z" />
<glyph unicode="Z" horiz-adv-x="1492" d="M106 375q4 4 11.5 13t9.5 13q2 2 6 10.5t4 10.5q2 2 8.5 12t14.5 21.5t14 22.5t10 16l70 106t68 109q2 2 9 14t11 16q20 29 37.5 56.5t34.5 56.5q2 2 9 10t9 10q16 23 27.5 45.5t27.5 40.5l170 269q14 16 24.5 35.5t20.5 35.5q2 2 8.5 10.5t8.5 10.5q18 29 35.5 56.5 t36.5 56.5q35 55 71.5 109t71.5 114q6 8 6 18l-2 4v2q0 4 -4 6.5t-6 2.5h-815q0 2 -2 4q-4 4 -5 4q-2 0 -2 2v4q-2 2 -2 4l4 328l11 10h1259q2 0 4 -2q4 -4 6 -4l3 -2q0 -2 2 -2v-338q0 -18 -10.5 -32.5t-20.5 -29.5q-160 -242 -315.5 -483.5t-315.5 -482.5 q-18 -29 -38.5 -56.5t-39.5 -56.5q-20 -33 -39.5 -64.5t-42.5 -64.5q-8 -10 -16 -20.5t-8 -24.5v-10q0 -2 4 -5.5t6 -3.5h821q4 0 9.5 -7t5.5 -11v-334q-2 0 -2 -2t-3 -4q-2 0 -3 -1t-3 -1q-2 -2 -4 -2h-1259l-11 10v365z" />
<glyph unicode="[" horiz-adv-x="495" d="M14 244q6 268 15.5 532t15.5 533q-8 16 -8 26q0 37 41 58q47 14 96 23t98 9t97.5 -11t93.5 -36q23 -23 22 -49q0 -25 -17 -42t-46 -17q-8 0 -25 4q-55 29 -125 29q-27 0 -53 -4.5t-53 -10.5q-6 -262 -14.5 -521t-14.5 -521q-2 -61 -3 -129t-1 -135v-80t4 -76 q29 -4 58.5 -6t58.5 -2t58.5 1t58.5 1q31 -4 46 -21.5t15 -40.5t-17.5 -42t-52.5 -19q-29 0 -58.5 -1t-57.5 -1q-49 0 -98.5 5t-94.5 26q-16 12 -22 21t-11 28q-6 55 -8 111.5t-2 111.5q0 61 1 124t3 122z" />
<glyph unicode="\" horiz-adv-x="2279" d="M864 354q0 35 10.5 70t10.5 70q0 8 -2 23t-11 22l-749 698q-2 6 -4 14q-2 6 -4 12.5t-4 10.5q-2 6 -5.5 20.5t-3.5 18.5v26q0 23 5.5 47.5t21.5 43.5q18 20 36.5 40.5t47.5 30.5q4 2 22.5 7t18.5 18q0 6 -4 14q-12 29 -23.5 53.5t-11.5 57.5q0 80 56.5 129t131.5 49 q27 0 50.5 -3t44.5 -22l391 -358q4 0 8 -4h2h2q10 45 27.5 87t60.5 64q2 2 10.5 5.5t17.5 8.5t17 8t10 5q2 0 9.5 5t7.5 9v2q-2 2 -2 4t-1 2t-1 3q-20 20 -44 40.5t-44.5 44t-33.5 51t-13 58.5q0 55 24.5 98t69.5 74q4 4 23.5 12.5t25.5 8.5h80q12 0 33.5 -10.5t29.5 -20.5 l838 -768q35 -33 59.5 -81t41 -101.5t23.5 -107.5t7 -99q0 -154 -54.5 -293t-149.5 -250t-225 -185.5t-282 -99.5q-27 -4 -67.5 -4h-63.5q-72 0 -153.5 21.5t-152.5 64.5t-118 107.5t-47 148.5zM920 287q0 -8 6 -19.5t10 -15.5l37 -37q78 -66 158.5 -109t183.5 -43 q106 0 202.5 19.5t188.5 73.5q92 53 168 127.5t129 165t82 191.5t29 210v72q-4 33 -15.5 77.5t-28 89t-39 84t-49.5 64.5l-559 500q-10 12 -23.5 21t-23.5 22l-205 176q-29 25 -65 24q-53 0 -89 -38.5t-36 -92.5q0 -23 6 -45t25 -39l626 -583q23 -23 28 -54.5t5 -60.5 q0 -74 -52 -125t-126 -51q-25 0 -42 5t-36 22l-235 200l-9 8l-219 195l-16 12l-426 391q-23 23 -52.5 39.5t-64.5 16.5q-18 0 -38.5 -8.5t-38 -22.5t-30 -31.5t-12.5 -36.5v-71l15 -25l571 -538v-3q0 -8 -6 -19t-16 -11h-2q-8 6 -34 26.5t-34 28.5q-4 0 -4 4l-418 369 q-25 23 -57 22q-57 0 -94 -41t-37 -96q0 -49 37 -86l606 -559q25 -16 44 -40t48 -32q4 4 5 10.5t3 10.5q2 8 5 27.5t6 43t6.5 44t5.5 28.5q4 25 12 56.5t20.5 62.5t31 56.5t44.5 39.5q23 10 45.5 13.5t44.5 3.5q86 0 133.5 -49.5t47.5 -135.5q0 -4 -1.5 -12t-1.5 -10 l-57 -408q-2 -2 -6 -23.5t-6 -31.5q-4 -14 -9 -24.5t-22 -10.5h-4q-2 0 -4 2l-4 8v41v49.5t4 49.5l59 352v14q0 59 -38.5 98t-98.5 39q-53 0 -85 -43t-40 -92l-69 -467v-65zM897 668v-4l-4 4h4zM1343 1030q35 -27 68 -55.5t80 -28.5q59 0 95 42t36 102q0 33 -23 55l-428 399 q-16 16 -35.5 20.5t-41.5 4.5q-57 0 -91 -37t-34 -92q0 -23 6 -44.5t24 -37.5z" />
<glyph unicode="]" horiz-adv-x="456" d="M59 1298q-27 10 -38 26.5t-11 35.5q0 20 14.5 37.5t43.5 23.5q63 -2 125.5 -13t125.5 -15q8 20 24.5 30.5t33.5 10.5q23 0 39 -16.5t20 -47.5q-2 -365 -8 -726t-8 -726q-2 -2 -2 -6q29 -16 28 -51q0 -18 -11 -36t-36 -28q-68 -23 -149.5 -20.5t-153.5 -1.5 q-35 0 -52 18.5t-17 40.5q0 20 14 38.5t43 25.5h39h82h49.5t46.5 4q-4 8 -4 14q2 340 7 677t9 677q-63 6 -125.5 16t-128.5 12z" />
<glyph unicode="^" horiz-adv-x="960" d="M125 436q-20 -35 -53 -35q-25 0 -43.5 17.5t-18.5 46.5q0 12 6 29q49 123 108.5 237.5t113.5 233.5q29 59 54 119.5t54 119.5q20 41 52 75t73 34q29 0 64 -25q39 -29 72.5 -82t64 -114.5t57.5 -123t51 -106.5q27 -47 54.5 -95t51 -97t41 -101.5t23.5 -107.5v-8 q0 -33 -18.5 -49.5t-40.5 -16.5q-18 0 -35.5 12.5t-26.5 38.5q-8 66 -31.5 126.5t-54 118.5t-65.5 114.5t-64 113.5q-33 66 -65.5 137.5t-79.5 127.5q-35 -63 -62.5 -132t-60.5 -137q-53 -117 -112.5 -232.5t-108.5 -238.5z" />
<glyph unicode="_" horiz-adv-x="1185" d="M80 -256q-35 0 -52.5 18.5t-17.5 40.5q0 20 14.5 39t43.5 25h1046q31 -4 46.5 -21.5t15.5 -40.5t-17.5 -42t-52.5 -19h-1026z" />
<glyph unicode="`" horiz-adv-x="2172" d="M2071 2042v-2042h-1969v2042h1969zM113 10h1947v2022h-1947v-2022zM1233 1626q33 0 68.5 -9t64.5 -22q51 -23 85 -57.5t54.5 -77.5t28.5 -91t8 -99q0 -111 -43 -202t-149 -140q-29 -12 -58.5 -16.5t-58.5 -18.5h-289l-12 -8v-436h-338v1177h639zM934 1124h156 q53 0 87.5 41t34.5 92t-19 80t-50 43.5t-71 16.5t-83 2q-10 0 -28.5 -1t-20.5 -1l-6 -4v-269z" />
<glyph unicode="a" horiz-adv-x="1507" d="M102 66q16 0 22.5 16t10.5 29q0 4 2 27.5t2 27.5q4 16 11.5 29.5t11.5 29.5q0 4 2 23.5t4 23.5q0 4 7 18.5t7 18.5q6 23 6 43.5t5 40.5q0 2 2 6q0 4 1 5.5t1 3.5q10 29 13 51t9 51q4 16 11.5 30.5t9.5 30.5q2 4 4 23.5t2 23.5q2 4 8 20.5t8 20.5q0 2 4 11q2 4 2 6t1 11 t1 18.5t1 17.5t1 10q2 4 9.5 23.5t7.5 23.5q0 2 2 13.5t4 22.5t3 21.5t1 14.5q0 2 2 6t2 6t2 4q8 23 11 44.5t8 50.5q0 2 2 8t2 10q2 2 6 10t4 10q2 4 4 27t2 27q2 23 9 36t12 35q0 4 2 23.5t2 24.5q4 18 11 32.5t11 30.5t5 34.5t5 35.5q2 2 6.5 13t4.5 13q6 16 7 37t5 37 q2 16 10 31.5t12 31.5q0 4 2.5 23.5t4.5 24.5q4 16 10 30.5t10 30.5q0 4 3 24.5t3 26.5q4 18 10.5 34.5t10.5 35.5q2 2 4 24.5t2 26.5q0 2 2 10t2 13q0 4 7 23.5t9 23.5q0 4 2 23.5t2 23.5q4 14 11.5 27.5t11.5 29.5q0 4 2 28.5t2 28.5t4 15.5t9 23t10.5 20.5t9.5 9h332 q2 0 7 -6t9 -10q0 -4 2 -9v-6q0 -2 2 -4t6 -11t6 -11q0 -2 4.5 -20.5t6.5 -26.5q4 -23 10 -42.5t10 -41.5q10 -43 18.5 -89.5t18.5 -89.5q0 -2 5 -13t5 -13q0 -4 3 -18.5t5 -30t5.5 -29.5t3.5 -16q0 -4 5 -15.5t5 -15.5q2 -4 4 -10t2 -9q0 -4 1 -14t3 -21.5t4 -22.5t2 -13 t6 -11.5t6 -13.5q2 -4 4.5 -16t5.5 -25.5t5 -27t2 -15.5q2 -2 6 -15t6 -18q0 -4 2 -16t5 -26.5t5 -26.5t2 -14q0 -4 4.5 -18.5t6.5 -18.5q16 -72 31.5 -142.5t27.5 -142.5q10 -43 22.5 -86t20.5 -84q10 -47 19.5 -90t19.5 -88q0 -4 2 -11.5t2 -9.5q2 -4 6 -14t6 -14 q0 -4 3.5 -17.5t5.5 -29t5 -28.5t3 -15t4 -15.5t4 -15.5t2 -12.5t4 -21.5t3 -21.5t1 -12.5t2 -9t4 -11q16 -55 28.5 -112.5t25.5 -117.5q4 -12 7 -23t3 -26q0 -10 -4 -10h-340l-17 16q-16 23 -15 47.5t-5 47.5q-2 4 -8 24.5t-8 24.5q0 2 -2.5 14t-4.5 19q0 4 -1 21t-1 22 q-2 4 -9 20t-7 20q-2 4 -3 22.5t-3 23.5q-2 0 -2 2v4q-2 2 -2 6h-418l-6 -6q-8 -14 -7 -26.5t-3 -29.5q0 -2 -3.5 -8t-3.5 -8q0 -4 -2 -10t-2 -10t-3 -15.5t-5 -25t-5 -25.5t-3 -16q0 -2 -4 -13.5t-6 -13.5q0 -2 -2 -14.5t-2 -18.5q-2 -4 -4.5 -20.5t-2.5 -20.5 q-2 -10 -9 -31.5t-23 -21.5h-355v66zM119 33q2 -2 8 -4t8 -2h78q2 0 14.5 6t18.5 10q47 29 71.5 62.5t40.5 87.5q6 16 10.5 33.5t10.5 35.5l4 8q2 4 2 6q10 43 22.5 89.5t28.5 85.5q2 4 7.5 20t13.5 16h659q2 0 6 4.5t4 6.5v16v16q0 2 -4 11.5t-7 20.5t-7 20.5t-4 11.5 q0 4 -2 20.5t-2 20.5q0 2 -4 11t-8.5 19.5t-7.5 19.5t-5 11q0 4 -2 20.5t-2 20.5q-2 4 -6 21.5t-6 21.5q0 4 -5 17.5t-5 15.5q0 4 -2.5 21.5t-4.5 21.5q0 2 -3 11.5t-6 20.5t-7 20.5t-4 11.5q-2 4 -3 24.5t-3 24.5q0 2 -2 10t-5 17.5t-6.5 17.5t-3.5 10q0 4 -3 24.5t-5 24.5 q0 2 -4 14.5t-7 25.5t-6 24.5t-3 15.5q-2 4 -4 18.5t-2 18.5q-4 18 -11.5 33.5t-11.5 33.5q0 4 -2 19.5t-2 19.5q-2 4 -9 23.5t-7 23.5q-2 4 -6.5 29t-4.5 29q-2 4 -9 28.5t-7 28.5q-2 4 -4 19.5t-2 19.5q0 2 -2 10.5t-4 10.5q0 4 -7.5 22.5t-7.5 22.5q-6 25 -10 49t-12 49 q-6 25 -7 49.5t-12 46.5q-2 2 -9 13.5t-7 13.5q-2 2 -4 10t-2 10q0 6 -6 13l-4 -7v-79q0 -4 -2 -11.5t-5 -9.5l-10 -303q-2 -4 -4 -15.5t-2 -15.5q0 -2 -1 -13t-1 -23.5t-1 -24.5t-1 -15q-2 -2 -5 -22.5t-7 -30.5q0 -2 -2 -10t-2 -10v-4q0 -4 6 -10.5t10 -12.5 q4 -12 12 -36.5t8 -26.5q2 -4 3.5 -29t3.5 -29q0 -4 7 -23.5t9 -23.5q4 -16 5 -31.5t5 -37.5q4 -16 10.5 -32t8.5 -34q2 -2 4 -21.5t2 -23.5q4 -16 11 -29.5t11 -29.5q0 -4 2 -28t2 -28q0 -2 2 -4l5 -4v-10q0 -18 -11 -23q-12 0 -41.5 -1t-61.5 -1t-60.5 -1t-38.5 -1h-13 q-23 0 -30 27q-41 -23 -76 -52.5t-64 -62.5h-14q0 4 -1 12.5t1 12.5q0 8 2 25.5t2 21.5q0 2 4 13t7 23.5t7.5 22.5t4.5 15q0 4 2 21t2 22q2 2 3 9t3 11t7 27.5t7 27.5q0 2 1 10.5t2 17.5t2 18.5t1 11.5t3 12t6.5 20.5t7.5 20.5t4 12q2 4 3 23.5t3 23.5q0 2 3 13.5t6 25 t7 23.5t4 14q2 4 3.5 24.5t3.5 24.5q0 4 4 18.5t6 18.5t6 13.5t4 13.5q2 4 3 21.5t3 21.5l23 90q0 4 2 20.5t2 20.5q2 4 8 23.5t8 23.5q6 18 6 36.5t4 37.5q4 14 8.5 25.5t6.5 25.5q6 23 8 45t8 43q4 10 9.5 26.5t7.5 26.5q4 31 8 62.5t16 60.5q6 12 16.5 13t19.5 1t18.5 2 t13.5 19q2 2 4 10t2 10q10 33 24.5 55.5t42.5 45.5q12 10 25.5 13t13.5 19h-305q-2 0 -7 -12t-9 -20q0 -2 -2 -10.5t-4 -10.5q0 -4 -2 -28.5t-2 -28.5q-2 -16 -10.5 -29.5t-12.5 -27.5q0 -4 -2 -23.5t-2 -24.5q-2 -4 -8 -24.5t-8 -24.5t-4.5 -11t-2.5 -9q0 -4 -2 -26.5 t-2 -26.5q-4 -18 -10 -34t-10 -38q0 -4 -2 -23.5t-4 -23.5q-2 -16 -9.5 -30.5t-11.5 -31.5q0 -4 -3 -24.5t-3 -24.5q-4 -16 -10 -30.5t-10 -30.5t-5.5 -37t-7.5 -37q0 -2 -4 -13.5t-6 -13.5q-6 -16 -7 -34.5t-5 -34.5t-11.5 -31.5t-11.5 -32.5q0 -4 -2 -24.5t-2 -24.5 q-4 -20 -11 -34.5t-11 -37.5q0 -4 -2 -25.5t-2 -25.5q-2 -2 -6.5 -11t-6.5 -11q0 -2 -1 -4t-1 -7q-2 -4 -2 -6q-4 -29 -7 -49t-13 -47q-4 -8 -4 -16q0 -2 -2.5 -12.5t-3.5 -21.5t-3 -22.5t-2 -13.5q0 -4 -6 -22.5t-8 -22.5q0 -2 -1 -11t-1 -19.5t-1 -18.5t-1 -10t-2 -7.5 t-4 -9.5q-2 -2 -8.5 -18.5t-8.5 -20.5q0 -4 -2 -23.5t-2 -23.5q-4 -16 -11 -32.5t-11 -32.5q-6 -29 -8 -50.5t-13 -50.5q-2 -2 -4 -8t-2 -8q-4 -18 -4 -38.5t-6 -43.5q-2 -4 -9 -19.5t-7 -17.5q-2 -4 -4.5 -23.5t-2.5 -23.5q-2 -14 -8 -29.5t-10 -31.5q0 -2 -1 -9.5 t-2 -16.5t-2 -17.5t-1 -10.5t-4 -13t-6 -17q-4 -10 -18.5 -21.5t-14.5 -13.5v-2zM1004 299q0 -6 2 -10q0 -4 7 -21.5t9 -21.5q0 -4 2 -22.5t4 -20.5q0 -4 2 -16.5t2 -16.5q2 -4 9.5 -23.5t7.5 -23.5q2 -4 3 -21.5t3 -21.5v-9t2 -10q0 -6 2 -12q2 -4 6 -13t6 -9h74q2 0 13 12 t18 20q16 23 21 47.5t5 53.5t-8 49t-12 47q0 4 -2 21.5t-4 21.5q0 2 -2.5 10t-5.5 17.5t-5 17.5t-2 10q-4 18 -7 51t-19 46q-4 -2 -10.5 -5.5t-8.5 -7.5q-2 -2 -8 -13t-8 -13q-4 -2 -12.5 -10.5l-17.5 -17.5l-18.5 -18.5t-13.5 -11.5q-4 0 -14 -4t-12 -6q-6 0 -6 -6 q0 -2 -1 -12.5t-1 -12.5v-14zM756 1141q-4 -10 -7.5 -22.5t-7.5 -24.5q-2 -6 -6 -17.5t-4 -13.5q0 -4 -2 -24.5t-2 -24.5t-3 -13.5t-7 -20.5t-7 -21.5t-3 -12.5t-1 -10t-2.5 -17.5t-2.5 -16.5l-1 -7q-2 -12 -7 -22.5t-9 -20.5q0 -4 -1 -14.5t-3 -21.5t-4 -22.5t-2 -13.5 q-2 -16 -8.5 -32.5t-10.5 -28.5l191 6q0 4 -2 26.5t-4 28.5q0 2 -1 8.5t-3 8.5q-2 4 -5.5 14t-3.5 14l-4 9q-2 4 -2 6q-4 31 -8 49t-14 47q0 4 -2 9t-2 7q-4 23 -5.5 38.5t-7.5 33.5q0 2 -7 21.5t-7 23.5q0 2 -1 10t-2 17.5t-2 18.5t-1 11q0 9 -6 15z" />
<glyph unicode="b" horiz-adv-x="1499" d="M102 37q0 16 1 60t2 92.5t2.5 92.5t1.5 60q4 6 14 11t16 5h86v1325l-12 7h-74q-6 0 -16 5t-14 11q0 16 -1.5 60t-2.5 92.5t-2 92.5t-1 60v8q0 6 4.5 17.5t12.5 11.5h964q2 0 7.5 -2t9.5 -4q4 0 14 -4t12 -6q0 -2 2 -2h7q4 -2 6 -2q4 -2 14 -4.5t14 -2.5q2 0 5 -2 q4 -4 6 -4q66 -39 117 -88t83 -121q0 -2 4.5 -14t6.5 -18q0 -4 4 -13q2 -4 2 -8v-618q0 -16 -11.5 -33t-21.5 -25q-4 -4 -16.5 -16t-16.5 -17q-8 -8 -14 -10t-6 -12q0 -8 13 -20.5t29.5 -26.5t30 -30.5t13.5 -35.5v-618q0 -2 -2 -10.5t-4 -12.5q-25 -82 -84.5 -148.5 t-143.5 -96.5q-4 -2 -16 -4.5t-17 -2.5q-2 0 -12 -5t-12 -5q-2 -2 -4 -2t-6 -2t-6 -2h-971q-8 0 -12.5 11.5t-4.5 17.5v8zM135 43q2 16 10.5 31.5t16.5 31.5q10 27 23.5 50.5t39.5 38.5q4 4 14.5 8t12.5 4h747q16 12 37 13t37 11q2 0 8 5.5t9 5.5q27 14 45 28.5t34 40.5 q2 4 7.5 13.5t7.5 11.5l26 102v332q-2 4 -4 12q-4 12 -8 21q-2 6 -7 21.5t-7 19.5q0 4 -4 12t-6 10q-10 14 -30 31.5t-20 36.5q0 23 14.5 41t24.5 39q0 8 6 8h-92q0 2 -2 10t-2 12q0 2 4 6.5t6 4.5q4 2 17.5 8t15.5 8q14 12 30.5 28.5t27.5 35.5q14 29 20 58.5t16 57.5 l-4 217v13q0 8 -1 30.5t-2 47t-3 46t-2 31.5q0 2 -1 12.5t-3 24t-5 25.5t-5 18q-2 10 -14.5 28.5t-24.5 18.5q-16 0 -26.5 -18.5t-22.5 -28.5q-16 -12 -29.5 -20t-34.5 -13q6 -8 19.5 -25.5t13.5 -27.5v-352q0 -2 -2 -4t-2 -4t-2 -2q-4 -6 -9.5 -16.5t-7.5 -12.5 l-30.5 -30.5t-22.5 -20.5l-26 -6h-381q-2 4 -12.5 12t-14.5 10h-8q-4 0 -7 1t-5 1q-37 0 -66 -13t-55 -38h-8q-2 0 -7.5 1t-5.5 5v697q0 2 2 2l2 2q4 2 7.5 4t5.5 2h563q31 0 65.5 -16.5t57.5 -34.5l20 -21q0 -2 2 -2h4q4 0 15 6q16 31 32.5 48.5t40.5 39.5q0 2 4.5 3t6.5 3 q2 0 13 2t13 2q6 0 15 5q4 2 8 2v6l-43 43q-10 8 -34 22.5t-36 18.5q-18 4 -33.5 9t-33.5 11q-2 0 -11 4q-4 2 -6 2h-938v-280q2 33 18.5 60.5t39.5 45.5q4 4 11 9.5t9 5.5q4 2 15.5 -1t15.5 -3v-152l8 -10v-1344l-23 -20h-94v-289zM911 1020q20 -6 41 -9t43 -7 q29 -6 57.5 -29t47.5 -39q6 0 12 -6v-12v-9l-53 -55q-2 -2 -6 -2q-4 -2 -11 -2q-2 -2 -10 -4t-10 -2q4 -4 18.5 -22.5t18.5 -24.5q6 -6 6 -11v-368q0 -4 -6 -10q-16 -25 -34.5 -41.5t-45.5 -30.5q-4 0 -9 -2t-7 -2h-381q-2 4 -12.5 11t-14.5 9h-4q-2 0 -4 2q-57 0 -103 -32 q-12 -10 -18 -18.5t-20 -8.5q-6 0 -9.5 1t-3.5 11v686q0 27 27 27h491zM952 358q12 0 32 11.5t28 21.5q4 4 11 14.5t9 12.5q2 0 2 2t2 4t2 4v348q0 2 -2 4q-4 4 -4 6q-2 2 -12 14.5t-14 18.5q-6 6 -11.5 8t-15.5 7q-18 0 -67.5 1t-103.5 1t-103.5 1t-67.5 1h-27h-16l-6 -9 v-471h364zM952 1210q4 0 14.5 1t12.5 3q4 2 18.5 15.5t18.5 21.5q2 0 7 10.5t9 16.5q2 0 2 2t2 4t2 4v332q0 2 -2 4q-4 4 -4 6q-10 23 -22.5 36t-36.5 17q-4 2 -18.5 4.5t-18.5 2.5h-332q-4 0 -10 -7q-2 0 -2 -1t-2 -1l-2 -2v-469h364z" />
<glyph unicode="c" horiz-adv-x="1499" d="M1397 1700q-8 -6 -11.5 -10t-13.5 -9q-2 -2 -4 -2t-6 -2t-6 -2q-4 0 -19.5 -2t-19.5 -2q-6 -6 -17 -6q-2 -2 -16 -8t-18 -8q-4 0 -19.5 -2t-17.5 -5q-4 0 -16.5 -4t-16.5 -6q-35 -12 -74 -20q-16 -4 -26.5 -11.5t-24.5 -7.5q-25 0 -24.5 10.5t-8.5 28.5q-6 14 -14 25.5 t-25 17.5q-4 2 -16 6q-6 2 -10 5h-453q-2 0 -14 -5.5t-19 -9.5q-18 -12 -19 -37.5t-7 -44.5v-1128q0 -2 6 -20.5t10 -28.5q10 -27 32.5 -40.5t51.5 -13.5h10q23 0 80.5 1t122 2t120.5 2.5t79 1.5q4 0 16 4t17 6q14 8 20 22.5t11 27.5t10.5 22.5t17.5 9.5q16 0 30.5 -9.5 t32.5 -13.5q4 0 21.5 -3t21.5 -3q12 -4 23.5 -11t28.5 -9q4 -2 24.5 -3.5t24.5 -3.5q2 -2 16.5 -8t18.5 -8q12 -4 25.5 -5t24.5 -3t21.5 -6t18.5 -17v-35q0 -35 -8.5 -63.5t-22.5 -60.5q-16 -35 -39.5 -67t-54.5 -54q-2 -2 -31 -17.5t-45 -23.5q-12 -6 -25 -10 q-18 -6 -48.5 -14.5t-32.5 -8.5h-676q-4 2 -18.5 8t-18.5 8q-4 0 -18.5 5.5t-18.5 5.5q-2 0 -4 2q-6 6 -6 4q-61 37 -111.5 83t-83.5 111q0 2 -2 7.5t-4 9.5q0 4 -5 18t-5 17q-2 4 -6 14t-4 14q-2 4 -4.5 9.5t-2.5 7.5v1409q0 8 7.5 21t9.5 18q0 2 5 16t5 18t6 11 q14 25 34.5 59.5t43.5 52.5q8 6 23.5 18.5t31 23.5t27.5 20.5t14 9.5q2 2 10.5 6t10.5 6q2 0 8 5t8 5q14 6 30.5 11.5t33.5 9.5q4 2 9 4t7 2h657q20 0 31.5 -6t28.5 -10q4 0 20.5 -5.5t20.5 -5.5q6 0 12 -6q2 0 8 -4t8 -6t15.5 -7t15.5 -7q37 -23 63.5 -57.5t49.5 -69.5 q0 -2 4 -8.5t6 -8.5q0 -2 2 -6t4 -4q0 -4 2 -14t2 -13q2 -14 6 -22t7.5 -16.5t5.5 -17.5t2 -25v-31zM1372 1731q0 23 -9 37t-13 32q0 4 -2 14.5t-5 14.5q-2 2 -2 4q-2 2 -2 6q-2 2 -6 8t-4 8q-18 31 -40.5 61t-55.5 50q-2 2 -15.5 8t-17.5 8l-8 5q-2 0 -6 4l-2 2q-2 2 -4 3 t-4 3q-4 0 -21.5 3t-21.5 5q-16 4 -27.5 10t-30.5 6h-639q-2 0 -6 -2q-8 -4 -10 -4q-16 -4 -32.5 -9t-31.5 -9q0 -2 -7 -6t-9 -6q-63 -35 -103 -78t-77 -103q-2 -2 -3 -6t-3 -4q0 -2 -3.5 -17.5t-5.5 -19.5t-9 -17t-7 -20v-1388q0 -2 2 -6t2 -6.5t2 -4.5q0 -2 5 -13t5 -13 q10 -29 16.5 -48.5t24.5 -47.5q23 -29 39.5 -49.5t44.5 -39.5q2 -2 3 -2t3 -2t5 -2q39 6 65.5 38t30.5 69v26q0 16 16 17h4q4 -2 12.5 -11.5t10.5 -11.5q51 -45 110 -59q4 -2 20.5 -5t20.5 -5h134l26 8h340q23 0 50.5 24.5t37.5 42.5q8 10 7 25.5t10 26.5q4 8 18 21t18 18 q4 2 24.5 12t29.5 14q4 0 12 2t12 2v4q0 2 -11 8.5t-19 8.5q-4 0 -23.5 2t-24.5 2q-16 4 -26 11t-27 11q-4 0 -21.5 2.5t-21.5 4.5q-10 2 -20.5 9t-20.5 7q-6 0 -11 -17.5t-9 -21.5q-14 -16 -30.5 -30.5t-41.5 -16.5q-23 0 -79 -1t-120.5 -1t-122 -1t-79.5 -1h-23 q-27 0 -48.5 11t-45.5 11q-10 0 -26.5 -1t-24.5 -11q-2 -2 -7.5 -14.5t-9.5 -18.5q-4 -8 -7 -17t-13 -9t-17 6q-18 29 -28 58.5t-23 62.5q-2 2 -2 4t-2 6t-2 6v1210q0 4 2 23.5t4 24.5q0 4 4 13t6 13q12 43 24.5 66.5t53.5 50.5q8 4 18.5 8t20.5 6q14 4 42 8t32 4h518 q2 0 19.5 -4t27.5 -8q23 -6 43.5 -30.5t36.5 -40.5q10 -10 28.5 -31t22.5 -25q2 0 20.5 -8t28.5 -12t21 -4q16 0 48 5t48 15v19z" />
<glyph unicode="d" horiz-adv-x="1505" d="M1124 2028q4 0 17.5 -1.5t17.5 -1.5q0 -2 2 -2h6h9q6 -2 10 -7t8 -9q4 0 11 -5t9 -5q0 -2 3.5 -4t3.5 -6q4 -4 7 -6.5t7 -6.5q4 -2 10 -3t10 -1q4 -8 26 -27.5t28 -27.5l7 -7t7 -10v-2q0 -2 1 -2t1 -2t4 -9t4 -9l6 -4q16 -14 15.5 -23.5t7.5 -21.5q2 0 5 -4t7 -4 q4 -8 4 -19.5t2 -19.5q4 -14 13.5 -23.5t9.5 -25.5v-1414q0 -14 -8.5 -23t-12.5 -24q0 -2 -2 -18.5t-2 -18.5q-2 -14 -10 -20t-12 -16q0 -2 -2 -10.5t-2 -10.5q-2 -8 -8.5 -12t-10.5 -10l-6 -11q-4 -8 -7 -9t-9 -7t-9.5 -11t-9.5 -10l-10 -8q-6 -4 -8 -9t-8 -9l-11 -6 q-6 -4 -8 -9.5t-6 -7.5q-10 -4 -19.5 -5t-17.5 -9q-2 0 -7 -6t-7 -6q-8 -4 -19.5 -5t-21.5 -6q-4 -2 -5 -3t-7 -5q-10 -8 -17.5 -9t-21.5 -1h-977q-4 0 -11.5 3t-7.5 9v344q0 10 7.5 22.5t17.5 12.5h66q6 0 6 4q2 0 3 4t1 7v1245q0 4 -3 9t-7 5h-68q-6 0 -14.5 8t-8.5 13 v348q0 4 5.5 10t9.5 6h979q0 -2 2 -2h4h4q4 -2 10 -9t8 -11zM221 399q0 -6 -8 -14t-16 -8h-64q-10 0 -12 -8.5t-2 -16.5v-334l2 -2h4l2 2q2 14 4 26.5t2 25.5q2 6 3 16t5 18q2 4 7.5 6.5t7.5 8.5q16 16 31.5 36.5t37.5 30.5q10 2 17.5 3t17.5 4h776q12 8 22.5 11t22.5 9 q10 4 17.5 9t17.5 9l8 5q4 2 9 6q2 0 2 1t2 1q8 10 13 22.5t13 22.5l2 6q0 2 4.5 11t4.5 11q0 4 2 8.5t2 8.5q10 12 12 22q2 8 5 23.5t3 19.5t1 12.5t1 12.5q2 2 2 18.5t2 20.5l6 14q0 2 1 6t1 6v1045q-2 4 -5 9t-3 9q-2 6 -3 28t-3 28v6q0 2 -4 10l-2 8q0 2 -1 14.5 t-1 14.5q-2 6 -3 7t-3 5q-4 2 -6 7.5t-4 7.5q-4 10 -8.5 21t-16.5 11t-14 -10t-11 -16q0 -2 -2 -2t-2 -4l-2 -2l-28 -29q-4 0 -4.5 -1t-2.5 -1v-2q0 -2 -2 -2q-12 -12 -32 -13q-10 0 -12.5 2t-12.5 7v-13v-13t2 -15v-1157q0 -2 -2 -14.5t-2 -16.5q-4 -16 -14.5 -23.5 t-22.5 -11.5q-6 -2 -15 -3t-12 -1h-356l-14 10q2 -16 -1 -26.5t-20 -14.5q-2 -4 -10 -5t-10 -3l-10 -6q0 -2 -2 -2q-2 -2 -7 -2q0 -2 -8 -4t-8 -4q-18 -10 -31 -33v-4q0 -2 -2 -2q0 -2 -6 -8.5t-6 -8.5q-4 -6 -10 -16t-15 -10h-16h-10l-4 4v1597q0 6 10 15.5t20 9.5h541 q2 0 18.5 -2t26.5 -4q4 -2 11.5 -4.5t11.5 -6.5l2 -4q10 -8 18 -10t12 -12q2 0 2 -1t5 -1q2 -2 13 -9.5t15 -9.5h6q16 0 16.5 11.5t8.5 21.5q4 2 16.5 14.5t18.5 16.5q2 4 10 10t10 8q4 2 8 2q8 0 13 2q4 2 20.5 5t20.5 3h2q10 0 20 -1t21 -9v2l-2 4q-29 33 -62 62 q-2 0 -8 2t-8 2q-10 2 -14.5 9t-8.5 13l-2 2l-8 5l-8 4q-2 2 -8 9t-9 7h-8q-4 0 -7 1t-5 1q-4 0 -16.5 1t-16.5 1q-2 4 -9 10.5t-11 10.5l-6 2q-8 2 -23.5 2h-19.5h-918q-4 0 -8 -1t-4 -7v-334q0 -2 1 -4t1 -4h4q0 4 1 12t1 10q0 4 2 16.5t2 16.5q2 4 3 23.5t5 23.5v2 q0 4 2 4q4 8 9.5 9t11.5 12q2 2 4 6l4 8l10 10t13 10q6 10 16 11.5t20 1.5t14.5 -7.5t4.5 -13.5v-158l-2 -2q-4 -4 -4 -6t-2 -2t-2 -2h-23l6 -16v-1256zM608 395h344q4 2 11 2q10 0 14 2q12 4 18 8.5t9 16.5q2 4 2 8t2 10q0 6 2 15v1140q-2 12 -4 23.5t-2 21.5q-4 6 -11 11 q-4 0 -19.5 3t-17.5 3l-4 2q-4 4 -6 4h-4h-332l-18 -18v-1239z" />
<glyph unicode="e" horiz-adv-x="1492" d="M102 2028l17 16h1253l10 -10l1 -12q1 -11 2 -26.5t2.5 -31.5t1.5 -27v-116v-119q-12 -16 -27 -16h-885q-4 0 -10 -7q-2 0 -2 -1t-2 -1l-2 -2v-452l16 -17h627q10 0 20.5 -8t10.5 -18v-322q0 -2 -5.5 -7t-9.5 -7q-2 -2 -8 -4t-8 -2h-627l-16 -15v-454q0 -2 2 -2q2 -2 4 -2 q6 -6 10 -7h885q4 0 11 -6t9 -10q6 -47 6.5 -97t0.5 -98v-120q0 -6 -3.5 -16.5t-13.5 -10.5h-1253l-17 16v2012zM129 27h107v2q0 2 1 2t1 2q8 10 22 28.5t16 22.5q4 4 11.5 21.5t9.5 21.5t6 18.5t6 18.5q0 2 2 4q0 2 1 3t1 3l4 4q2 2 2 4h943q20 10 35.5 17.5t31.5 23.5 q6 4 16.5 14.5t10.5 20.5v74h-889q-10 0 -16.5 8t-16.5 8q-16 0 -28.5 -12t-28.5 -14l-58 -58q0 -2 -6 -2q-10 0 -10 17v712q0 4 5 15.5t11 11.5h674q10 2 19 4q16 4 26 10q27 8 43 33q4 4 8.5 9t8.5 9l12 13v73l-6 7q-2 0 -3 1t-3 1t-4 2h-627q-12 12 -25 12 q-27 0 -49 -16.5t-43 -32.5q-10 -8 -16 -19.5t-19 -11.5q-12 0 -12 10v705q0 2 2 7t4 9l2 4q0 2 2 4h969q2 0 15.5 9.5t21.5 15.5q16 14 27 33q2 2 6 10l4 8v90h-1227v-1990z" />
<glyph unicode="f" horiz-adv-x="1499" d="M1397 2038v-332q0 -4 -9.5 -10t-13.5 -6h-893q-2 0 -6 -2l-8 -5q-2 0 -2 -1t-2 -1l-2 -2v-469h661q4 0 9.5 -9t5.5 -13v-328q0 -4 -5.5 -13t-9.5 -9h-655l-8 -9v-819l-15 -10h-331q-2 0 -2 2q-2 2 -2 4q-6 6 -7 10v2016q0 2 2 4t2 3t3 3l2 4q0 2 2 2h1271zM129 27h111 q2 0 12 12t14 18q6 10 17.5 33t11.5 27v880l14 15h754q4 4 10 8q4 4 8 7t9 7q6 4 14 14.5t8 18.5v115h-657q0 2 -4.5 4t-6.5 2q-8 0 -16 -3t-14 -7q-10 -6 -32 -18.5t-22 -14.5q-6 -4 -24.5 -22.5t-22.5 -24.5h-10v755l2 2q2 0 2 1.5t2 1.5l6 6q2 2 4 2h977q2 0 11.5 5 t13.5 9q10 6 20.5 14.5t16.5 16.5q4 2 8 8t4 8v94h-1241v-1994z" />
<glyph unicode="g" horiz-adv-x="1497" d="M102 1767q14 25 23.5 50.5t24.5 50.5q2 2 12 14t14 16l74 74q16 16 31.5 21.5t31.5 15.5q2 0 8.5 5t8.5 5q4 2 20.5 6.5t20.5 4.5q4 2 14 6t12 4t11 4q4 2 6 2h667q4 -2 16.5 -6t16.5 -4q2 0 12.5 -3t21.5 -5.5t21.5 -5.5t12.5 -3q4 -2 20.5 -11t24.5 -13 q10 -6 30.5 -22.5t24.5 -20.5q29 -23 46.5 -51.5t33.5 -61.5q0 -2 4 -6q2 -2 2 -4q0 -4 4 -17.5t6 -17.5q0 -4 7.5 -16.5t9.5 -16.5v-26v-25q-8 -10 -27.5 -22.5t-30.5 -16.5q-12 -4 -29.5 -5t-29.5 -5q-4 -2 -15.5 -8t-15.5 -8q-4 0 -19.5 -2.5t-17.5 -4.5q-4 0 -16 -4 t-16 -6q-2 0 -10.5 -4t-10.5 -4q-2 -2 -15.5 -3t-15.5 -3q-23 -4 -38 -13.5t-35 -9.5q-4 0 -9.5 1t-7.5 1q-6 25 -16 45.5t-33 32.5q-2 2 -10 6l-8 4h-445q-6 0 -18 -7t-23.5 -18t-19.5 -22.5t-8 -19.5v-1196q0 -12 23.5 -30.5t35.5 -22.5q23 0 81 -1.5t124.5 -2.5t125 -2 t81.5 -1h12q16 0 43 9.5t33 23.5q2 2 4 10.5t2 10.5q0 4 4 10t6 10v211q0 2 -2 3t-2 3q-4 0 -11 2t-11 2q-6 0 -19.5 1t-28 2t-28 2t-19.5 1l-16 17v325q0 10 9 16.5t18 6.5h442q8 0 17.5 -10t9.5 -19v-684q-10 -20 -13.5 -36.5t-7.5 -38.5q0 -2 -2 -5l-4 -4 q-18 -33 -35.5 -58.5t-38 -47t-46 -41t-60.5 -37.5l-13 -10q-23 -12 -46 -16.5t-44 -16.5h-669q-20 10 -40 14t-40 13q-2 0 -8.5 5t-8.5 5q-47 27 -86 59.5t-67 77.5q-2 2 -6 10.5t-4 10.5q0 4 -9.5 14t-11.5 14q-2 2 -6 14.5t-4 14.5q-2 4 -8.5 16.5t-8.5 16.5v1482z M129 295q2 -4 8 -15.5t8 -15.5q0 -4 5 -16q2 -8 4 -15q2 -4 11 -14t11 -12q0 -2 5 -11.5t5 -11.5q10 -16 27.5 -32.5t30.5 -28.5q2 -2 7 -2h7h7t5 2q2 0 14.5 9t18.5 15q4 4 16.5 15.5t16.5 15.5q4 6 6 16.5t5 20.5t8 18.5t16 8.5q10 0 16 -5.5t16 -9.5q4 -2 15.5 -3 t15.5 -1h549q8 0 30.5 1t26.5 3t17.5 7.5t15.5 7.5q41 20 66.5 38.5t48.5 61.5l6 12t4 11q0 2 2 9t4 16t4 17.5t2 10.5q0 4 4.5 17.5t6.5 17.5v270h-7q-4 -4 -16 -11t-16 -12q-10 -10 -15.5 -18t-19.5 -12q-6 -2 -20.5 -6.5t-16.5 -4.5q-6 -2 -25.5 -4t-23.5 -2v-231 q-4 -2 -8 -9t-6 -12q0 -2 -2.5 -11t-4.5 -11q-16 -25 -43.5 -36t-56.5 -11h-27q-23 0 -81 1t-123.5 1t-124 1t-80.5 1q-4 2 -11.5 6t-11.5 6l-47 47q-6 6 -6 13q0 4 -1 22.5t-1 22.5q-16 0 -28.5 -13.5t-21.5 -31t-14.5 -36t-7.5 -30.5q0 -4 -2 -22.5t-2 -24.5h-12 q-8 0 -16.5 9t-14.5 22.5t-10 27t-4 21.5q-2 4 -4 23.5t-2 23.5v143v142v110.5t1 167.5t1 196.5t1 195.5t2 168t1 110q0 4 2 11t2 11q4 8 11 32t11 30q10 29 32 50t46 36q8 4 15.5 9t15.5 5h641l41 -20q18 -10 31 -25q4 -4 11 -14.5t11 -12.5q2 -2 4 -2h7q16 0 33.5 3.5 t35.5 3.5q16 0 31.5 -3.5t30.5 -13.5q2 0 9 -5t15 -10t15.5 -10.5t9.5 -5.5q0 -2 4 -2q2 0 4 -2q6 0 6 9v8v14q-2 2 -8 15.5t-6 15.5q-2 4 -6.5 18.5t-6.5 18.5q-2 2 -2 4t-1 3t-1 3q-6 10 -16 28.5t-10 20.5q-6 8 -20.5 25.5t-18.5 21.5q-2 2 -23.5 18.5t-34.5 24.5 q-8 4 -23 14.5t-17 12.5q-2 0 -12.5 2t-23 5t-22.5 5t-12 2q-4 0 -15.5 4t-15.5 6h-647q-2 0 -7 -2t-9 -4q-4 0 -14.5 -4t-14.5 -6t-21.5 -4t-21.5 -4q0 -2 -6 -6t-6 -7q-18 -10 -34 -15t-32 -21q-6 -6 -28.5 -28t-28.5 -30q-4 -4 -14.5 -16t-12.5 -17q-16 -23 -24.5 -49 t-22.5 -51v-1460zM920 731q6 0 10 6q2 4 8 17.5t8 15.5q8 12 20.5 25.5t20.5 21.5q2 0 10.5 4t12.5 6q4 0 12 4l8 5h168q8 0 13.5 13t8.5 30.5t5 35t6 23.5q10 16 25.5 31.5t31.5 25.5h-368v-264z" />
<glyph unicode="h" horiz-adv-x="1505" d="M461 2048v-817l8 -10q106 -2 205 -2q84 -2 175 -2h150h19h14q4 0 8 3t4 5v817l5 4q2 2 2 3t2 3l6 6h332q6 0 6 -6q0 -2 4 -6q2 -2 2 -4v-2026q0 -4 -6 -10q0 -6 -6 -6h-332l-6 6q2 0 -4 6l-5 4v818q0 2 -4 3t-8 1h-12h-16q-59 -2 -151.5 -2h-176.5q-100 0 -207 -2l-6 -5 v-28v-46.5t10 -43.5v-695l-16 -16h-338q-4 0 -10.5 9t-6.5 14v2015q0 4 6.5 12t10.5 8h327zM246 27q2 0 14 12t19 20q0 2 2 4q0 2 1 2.5t1 2.5q4 4 6 12t2 10v911q6 6 6 13q6 0 6 8h914q2 0 6 2q8 4 10 6q2 0 8 6l4 4v852q0 2 7.5 20.5t11.5 29.5q12 29 32.5 48t40.5 42 h-268v-815l-27 -29h-20h-35q-18 0 -60 1t-94.5 2t-109.5 1t-109.5 1t-94.5 1h-62q-2 2 -7.5 6t-9.5 4h-2h-2q-49 -14 -72.5 -42.5t-54.5 -63.5l-6 -6h-4q-2 0 -4 2v798q10 29 22.5 56.5t34.5 50.5q2 2 10.5 8t10.5 8t6 8.5t4 8.5h-254v-2005h117zM1073 27h113l6 6q8 8 12 10 t7 6t6 4q4 6 10 17.5t6 13.5v846q0 4 -4 4h-8h-4q-6 -6 -26 -26.5t-28 -26.5q-16 -16 -41.5 -24.5t-48.5 -14.5v-815z" />
<glyph unicode="i" horiz-adv-x="559" d="M102 2040l11 10h327q4 0 10.5 -8t6.5 -12v-2007q0 -4 -6.5 -13.5t-10.5 -9.5h-327l-11 10v2030zM129 20q59 0 91 36t65 77v1790l10 21q4 10 9 18t9 14q10 16 23.5 24.5t23.5 22.5h-231v-2003z" />
<glyph unicode="j" horiz-adv-x="1497" d="M102 330q0 12 8.5 22t18.5 17q4 0 8 2t7 2t6 2q8 2 25.5 4t27.5 6l33 16q20 6 34.5 4t32.5 7q4 2 16.5 8t14.5 6q2 2 15 4t18 2q16 4 34.5 13.5t34.5 9.5h11.5t7.5 -6q2 -4 8 -14.5t8 -12.5t6 -5t4 -5q2 -2 4 -10.5t2 -10.5q2 -2 5.5 -6t5.5 -6q6 -4 17 -9t13 -5h449 q2 0 14.5 3t18.5 7q2 0 5 4t5 6q4 8 11 23.5t7 17.5v1604l19 16h321q2 0 4 -2q4 -4 7 -4l4 -2l2 -2v-1719q-10 -23 -13.5 -38t-9.5 -37q-2 -2 -2 -4q-2 -2 -2 -5v-2q-27 -43 -54.5 -79.5t-66.5 -73.5q-25 -10 -45 -25.5t-45 -25.5q-18 -6 -35.5 -11.5t-34.5 -15.5h-694 q-6 2 -24.5 8t-24.5 8q-4 0 -20.5 5.5t-20.5 5.5q-20 6 -39.5 19t-34.5 28l-14 14l-20.5 20.5l-18.5 18.5l-10 10q-2 0 -7 10.5t-9 16.5q-23 41 -35.5 80t-12.5 86zM219 358q6 0 25.5 -2t25.5 -4q23 -4 34 -21.5t22 -35.5q12 -25 33.5 -52.5t50.5 -41.5q6 -4 17 -8.5 t22.5 -8.5t20.5 -7t11 -3h506q18 10 39 16.5t37 16.5q45 29 82 68.5t53 93.5q2 6 5 18t3 14v1508q0 4 12.5 26.5t18.5 32.5q4 6 24.5 25.5t26.5 25.5h-223v-1603q0 -2 -7 -18.5t-11 -22.5q-10 -14 -25.5 -26.5t-34.5 -12.5h-469q-2 0 -14 6t-17 10l-26 27q-2 2 -3 9t-3 7 q-2 4 -9.5 15.5t-11.5 15.5q-23 -10 -44 -13t-46 -12q-4 -2 -15.5 -8t-15.5 -8q-2 0 -9 -2t-11 -4q-23 -4 -40.5 -4.5t-33.5 -16.5z" />
<glyph unicode="k" horiz-adv-x="1497" d="M109 2048q53 0 104 2q43 2 89 2t77 2h33q10 0 31.5 -4t21.5 -22v-801q2 0 4 -2q4 -4 6 -4h2h4q23 10 35 36.5t29 45.5q63 80 126.5 157.5t123.5 157.5q14 18 28.5 40.5t28.5 43.5q14 18 38.5 44t49.5 55.5t43 57t25 48.5q2 12 4 29.5t3 36t5 37t14 32.5q2 4 8.5 8t10.5 4 h309q4 0 17.5 -5t13.5 -13v-154q-8 -18 -11.5 -37.5t-6.5 -38t-9 -37t-18 -36.5q-14 -23 -34 -47.5t-40.5 -49t-40 -47t-33.5 -41.5q-70 -94 -141.5 -184t-138.5 -182q-10 -10 -13.5 -17.5t-3.5 -17.5q0 -16 10 -31l455 -909q8 -41 17.5 -75t9.5 -75q0 -8 -1 -22.5t-1 -16.5 l-19 -18h-327q-10 0 -17.5 13.5t-11.5 29.5t-6 31.5t-4 21.5q-6 16 -20.5 31.5t-24.5 32.5q-8 16 -34 71.5t-60.5 126t-73.5 149.5t-73 144.5t-58.5 108.5t-30.5 43t-30.5 -29t-52.5 -64.5t-52.5 -69.5t-32.5 -42v-580l-4 -4q-2 -2 -3 -4t-3 -4l-4 -4l-2 -2h-314q-4 0 -13 2 t-13 4q-2 0 -5 2q-2 2 -2 4v2030zM135 39q0 -6 11.5 -7t13.5 -1t6 1t6 1q10 6 37 27.5t35 29.5q12 10 27.5 35t15.5 43v500q0 2 6 11t10 13q16 23 47 63t68 88t77 97t73.5 90t58 66.5t30.5 25.5q10 0 11 -16v-8q0 -4 -6.5 -19.5t-6.5 -19.5q-2 -6 -4 -20.5t-4 -31t-3 -30.5 t-1 -21q0 -2 -1 -24.5t-1 -32.5q0 -6 1 -28.5t1 -28.5q29 -27 52.5 -63t43 -75.5t36 -80.5t34.5 -76q45 -92 92 -183.5t94 -183.5q18 -41 37 -71.5t27 -75.5h57q2 0 10.5 7t18.5 17.5t19.5 20.5t15.5 18q20 23 23 38.5t3 41.5q0 39 -20.5 86t-48 93t-56 89t-47.5 76 q-70 117 -137.5 237t-132.5 238q-8 14 -22.5 35t-28 43.5t-23.5 44t-10 37.5v8l252 346l12 13l223 309q20 16 36 39.5t28 49.5t26.5 50.5t32.5 44.5q-10 0 -36.5 1t-56.5 2t-56.5 2t-36.5 1h-23q-18 0 -26 -16t-10.5 -37.5t-2.5 -42t-2 -31.5q-10 -37 -32.5 -58t-44.5 -50 q-78 -100 -154 -200.5t-154 -199.5q0 -2 -3 -6t-3 -6q-4 -4 -14 -16t-22.5 -25.5t-22.5 -27t-12 -15.5q-20 -23 -38 -54.5t-46 -47.5q-4 -2 -16.5 -4t-16.5 -2q-33 -88 -67 -173t-66 -173q-2 -4 -5.5 -20.5t-7.5 -34t-11 -31t-15 -13.5q-6 0 -10.5 7.5t-5.5 16.5t-2 17 t-1 10v1094q0 45 10.5 71.5t34.5 61.5h-180v-1976z" />
<glyph unicode="l" horiz-adv-x="1490" d="M109 2042q59 0 112 2q47 2 96.5 2t83.5 2h27h14q4 -2 13.5 -9t9.5 -9v-1633q2 -2 5 -6t5 -6q0 -4 6 -10h889l19 -23v-340l-13 -12h-1255l-12 6l-7 6v2024zM135 33h37q4 0 27.5 23.5t36.5 39.5q14 16 29.5 47t21.5 47l14 11h954q4 2 11 4q6 2 14 6h2q2 0 4 2t6 4 q8 6 33 25.5t33 25.5v11v8q-2 12 -4 34.5t-4 22.5h-881q-6 8 -11 9t-12 1q-18 0 -40.5 -12t-44 -30.5t-40 -38t-28.5 -31.5h-2h-4l-6 6v1665q10 29 21 51.5t36 44.5h-203v-1976z" />
<glyph unicode="m" horiz-adv-x="1497" d="M102 2052h355q6 0 27.5 -61.5t49 -154.5t59.5 -204.5t60.5 -211t49 -172t28.5 -89.5q4 0 9 -1t8 -1h13t11 8q0 6 2 25.5t4 26.5q0 4 2 6t2 3t2 3t7.5 9t5.5 9t1 11.5t3 20.5t3 20.5t1 13.5q4 4 6 8q4 8 6 10q2 0 2 2t2 4t2 6q2 4 3 26t3 26t10.5 13t8.5 11q2 4 4 25.5 t2 25.5q2 4 10 20.5t10 20.5q0 4 2.5 29t4.5 29q0 4 2 6t2 3t2 3t7 10t5 11q0 2 1 9t2 16t2 17.5t1 10.5l4 4q2 2 2 4t2 4q20 33 26.5 77t16.5 83q2 4 10.5 19.5t10.5 17.5q2 6 6 32.5t6 32.5q0 2 6 10.5t6 10.5q2 2 4.5 24.5t2.5 26.5q2 10 12 30.5t20 20.5h355v-2040 l-13 -12h-335l-13 12v703q0 20 -14 20q0 -2 -2 -2h-4q0 -6 -5 -25.5t-8 -25.5q-2 -6 -12 -40t-23.5 -73t-26.5 -69.5t-19 -30.5h-340q-8 0 -23.5 37t-31 84t-28 90t-14.5 53h-16v-700q0 -2 -3 -12.5t-7 -14.5q0 -6 -6 -6h-349v2052zM135 33h49q8 8 21.5 19t27 22.5t22.5 25 t9 27.5v1757q0 12 7.5 16.5t17.5 5.5t19 2t14 7q16 33 28 57.5t41 46.5h-256v-1986zM1020 772q14 -2 32.5 -15.5t18.5 -29.5v-702q51 0 81 22.5t52 67.5v176t1 268.5t2 315t2 315t1 268.5v176v95v59l-6 12q-10 -33 -24.5 -121t-32 -199.5t-35.5 -234.5t-35.5 -225t-33 -172 t-23.5 -76zM463 772q35 2 53.5 -40t31.5 -93t27.5 -94t38.5 -43q25 0 47.5 15t41 39t33 49.5t24.5 45.5q6 0 23.5 2t27.5 11q6 29 15.5 52t15.5 50q25 96 51.5 192.5t50.5 194.5q45 168 89 336t91 338q4 16 7.5 34.5t13.5 34.5q6 8 14 10.5t17.5 3.5t18.5 3t15 8 q2 4 15.5 20.5t15.5 20.5q6 8 28.5 29.5t28.5 27.5h-239q-6 0 -21.5 -51t-33 -115.5t-34 -123t-26.5 -74.5q-2 -4 -4 -8.5t-2 -6.5t-1 -9t-2 -16t-2 -17.5t-1 -10.5q-4 -4 -6 -8q-4 -4 -4 -6q-2 -2 -2 -4q-2 -2 -2 -3t-3 -3q-2 -2 -2 -7q-2 -4 -4 -29.5t-4 -29.5 q0 -4 -8 -19.5t-10 -19.5t-3 -25.5t-3 -25.5q-2 -2 -10.5 -12.5t-8.5 -12.5q-2 -4 -4 -25.5t-4 -25.5q0 -4 -2 -6t-2 -4t-2 -2q0 -2 -6 -10.5t-6 -10.5t-1 -11t-2.5 -20.5t-2.5 -20.5t-1 -11t-6 -9t-6 -9q-2 -2 -2 -3.5t-2 -3.5t-2 -6q-2 -4 -4 -25.5t-2 -25.5 q-6 -14 -21.5 -24.5t-29.5 -8.5v-411q0 -20 -15 -21q-10 0 -21 26.5t-23.5 66.5t-26 89.5t-26.5 93.5t-24.5 77.5t-19.5 45.5q-59 174 -115.5 347.5t-115.5 347.5q-14 16 -13.5 37.5t-13.5 38.5v-35v-35q0 -2 2 -12.5t4 -22.5t4 -22.5t2 -12.5q12 -104 26.5 -204.5 t24.5 -200.5q4 -35 7.5 -87t21.5 -93l12 -154q10 -20 14.5 -48t6.5 -55.5t1 -55.5t-3 -48z" />
<glyph unicode="n" horiz-adv-x="1503" d="M1016 932q4 0 10 2t6 6v1112h357l2 -2l4 -4l4 -8t2 -6v-1999q0 -4 -2 -13.5t-4 -13.5q0 -6 -6 -6h-340q-2 0 -9.5 7t-9.5 11q-20 29 -29.5 62t-23.5 63q-35 66 -69 134.5t-66 140.5q-25 55 -50.5 109.5t-54.5 107.5q-25 53 -53.5 105.5t-46.5 107.5q-2 2 -4 7t-4 5 q-23 29 -40.5 72t-29.5 78q-10 31 -28.5 57.5t-28.5 56.5h-6q-4 0 -11.5 -1t-7.5 -5v-1093l-4 -5q-4 -4 -4 -8l-8 -8t-6 -4h-320q-12 0 -22.5 14.5t-10.5 24.5v1980q0 2 4.5 12.5t8.5 14.5l6 6h348q2 0 36 -65.5t82 -166t106.5 -222t111.5 -234.5t94 -201t57 -121 q2 -4 9.5 -17t14.5 -28.5t13 -29t8 -15.5q6 -12 5.5 -16t9.5 -4zM135 51q0 -14 12 -18q4 -2 15.5 -2h15.5q25 0 48.5 8t37.5 31q6 10 17.5 32.5t11.5 24.5v1604q0 4 4 16t12 16q4 -2 16.5 -42t31 -99t38 -129t35.5 -131.5t27.5 -105.5t11.5 -50q0 -10 -4 -21t-4 -26v-8 q8 6 17 6h20q16 0 21 -2t16 -18q43 -70 73.5 -148t65.5 -153q51 -100 102 -199.5t98 -204.5q29 -66 56.5 -129t58.5 -123q12 -25 32.5 -53.5t20.5 -56.5h7q4 6 10 12q4 4 7 10t7 10q29 39 59.5 50.5t75.5 15.5l17 12v1723q0 35 23.5 64.5t43.5 51.5h-227v-1091l-35 -35 q-2 -2 2 -8t8 -14.5t9.5 -14.5t5.5 -8q4 -6 13 -25.5t13 -25.5q10 -123 28.5 -244t35.5 -244q4 -23 8 -44t4 -44q0 -8 -1 -15t-11 -7h-4q-2 0 -2 2q-45 82 -86 173t-82 173q-6 31 -22.5 60.5t-34 59t-33 57.5t-19.5 54q-131 268 -258 535.5t-252 537.5q-10 23 -11 32t-1 30 q0 35 13.5 59.5t37.5 46.5h-256v-1968z" />
<glyph unicode="o" horiz-adv-x="1501" d="M1098 2048q2 -4 17 -12t32.5 -17.5t33 -15.5t19.5 -6q66 -47 107 -92t73 -119q2 -6 10.5 -22.5t8.5 -24.5v-1424q0 -43 -35 -97t-84 -102t-104.5 -82t-96.5 -34h-676q-43 18 -76.5 34.5t-63.5 37t-56.5 49.5t-52.5 72q-14 25 -18.5 37t-14.5 40q0 2 -5 9.5t-7 9.5l-7 12 v1450q0 16 7.5 20.5t11.5 20.5q2 4 4 19.5t2 19.5q2 2 10 9t10 9q41 57 75 99.5t106 72.5q20 10 36.5 10.5t32.5 16.5h701zM412 2015q-18 -16 -35 -16t-37 -8q-70 -31 -116 -88.5t-70 -124.5q-4 -12 -11.5 -17.5t-7.5 -21.5v-1424q0 -2 2 -6l4 -8q0 -2 6.5 -9t6.5 -9 q2 -4 3 -19.5t3 -19.5q4 -10 15 -27.5t24.5 -34t27 -30t23.5 -13.5q12 0 27.5 8.5t28.5 20.5t23.5 26.5t10.5 26.5v4q-4 14 -13.5 27.5t-18.5 26t-17 25.5t-8 30v1392q0 4 10 22.5t16 29.5q27 45 74 71.5t98 26.5h539q18 0 36.5 -7t35 -15.5t31 -15.5t26.5 -7h6 q23 27 48.5 40t49.5 36v4v2q-18 16 -52 41.5t-58 36.5q-23 10 -34 10t-30 14h-667zM360 250q0 -16 10.5 -23.5t26.5 -13.5q10 -4 32 -12t26 -8h579q41 0 80 27.5t60 62.5q6 10 16 29.5t10 21.5v1380q0 12 -14.5 38t-30.5 26h-6q-6 -47 -28.5 -75t-73.5 -34v-4q0 -8 7 -19.5 t11 -15.5v-1206q-10 -14 -17.5 -27.5t-15.5 -25t-21.5 -18.5t-33.5 -7h-451q-25 0 -39 8t-24 22.5t-17.5 32t-15.5 33.5q-41 -35 -55.5 -89t-14.5 -103zM545 1675q-10 0 -25.5 -7t-19.5 -17q-8 -14 -19.5 -39t-11.5 -27v-1136q0 -4 7 -22.5t11 -29.5q6 -14 21.5 -16t30.5 -2 h424q20 0 29 4t15.5 11t11.5 18.5t15 23.5v1182q-4 6 -10 14q-4 6 -8 13.5t-8 11.5l-4 4l-3 2l-57 12h-399z" />
<glyph unicode="p" horiz-adv-x="1501" d="M104 2042v8t7 4h997q23 -16 34 -16t38 -10q4 0 13 -8.5t13 -10.5t15.5 -4t15.5 -2q16 -16 37.5 -35.5t42 -42t38 -47.5t25.5 -49q0 -4 5.5 -28.5t13.5 -35.5v-612q-14 -35 -19.5 -69.5t-27.5 -67.5q-18 -29 -48 -59.5t-67 -56.5t-77 -42t-77 -16h-591l-6.5 -6.5 t-6.5 -4.5q-6 -6 -10 -6v-813l-16 -12h-336l-6 6q0 408 -2 787q0 162 -1.5 332.5t-2.5 334.5t-1 311.5v262.5v8zM143 25q35 0 59.5 18t45.5 47q6 10 17 30.5t11 22.5v901l9 9h682q4 0 32.5 11t44.5 17q43 20 84 55t58 81q2 6 7 19t9 26.5t7 24.5t3 13v310q-6 10 -14 34.5 t-17.5 50t-20.5 45t-27 19.5l-7 -2q-29 -14 -49 -31.5t-59 -33.5v-2v-4q10 -14 24.5 -33t14.5 -37v-328q0 -4 -4 -19.5t-9 -21.5q-8 -10 -27.5 -29.5t-23.5 -21.5l-26 -6h-494q-10 8 -20 8q-29 0 -54.5 -20.5t-47 -44t-37 -44t-23.5 -20.5q-12 0 -12 18v779q0 2 6 8 q4 0 11 3t9 3h670q14 0 35.5 -11t41 -24.5t35 -25t17.5 -11.5h4q29 49 62.5 79t86.5 52q-16 18 -36.5 28.5t-42 18t-43 14.5t-39.5 21h-953v-1996zM473 1241q0 -4 2 -6q6 -6 4 -6q0 -6 6 -6h469q29 0 49.5 25.5t20.5 51.5v304q0 35 -25.5 50t-50.5 25q-88 6 -173 7.5 t-175 1.5h-32.5t-40 -1t-33.5 -1h-15l-6 -13v-432z" />
<glyph unicode="q" horiz-adv-x="1480" d="M399 74q-6 4 -23.5 11t-21.5 11q-61 25 -104 64t-90 90q-29 35 -38 72.5t-32 74.5v1342q10 14 13 22t5.5 15.5t2.5 16.5t4 26q6 25 30.5 57.5t55 62t63.5 53t58 29.5q23 6 35 6.5t28 20.5h707q4 -4 19 -11t19 -9q4 0 18.5 -2.5t18.5 -4.5q2 0 7.5 -5t7.5 -7q4 0 6 -2 q4 -4 6 -4q33 -12 66.5 -41t61.5 -66.5t46 -78.5t18 -78v-1348q0 -51 -34.5 -106.5t-67.5 -91.5v-33q2 -4 9 -13.5t14.5 -19.5t13.5 -19.5t8 -11.5q10 -14 30.5 -39.5t20.5 -44.5q0 -4 -1 -8t-5 -4h-340q-10 0 -18 11.5t-16.5 25.5t-17.5 25.5t-17 11.5h-566zM854 225 q18 0 32.5 -15t26 -33.5t22.5 -38t23 -29.5q23 -18 41.5 -29.5t40.5 -34.5l4 -2q8 0 14.5 14.5t9.5 31.5t4 33.5t1 20.5q0 27 -17.5 60t-40 65.5t-47 62t-36.5 48.5l-2 2l-4 4l-129 180q-6 4 -14.5 17.5t-15.5 27t-14.5 23.5t-13.5 10h-114q12 -18 26.5 -38.5t28.5 -43 t23.5 -45t9.5 -45.5v-22q-2 -6 -11.5 -15.5t-13.5 -9.5h-149q-53 0 -77 43t-26 86h-2h-4q-41 -35 -60.5 -85t-21.5 -101q-4 -10 -14 -15h-2q-16 0 -29.5 24.5t-23 56.5t-15.5 63.5t-6 44.5l6 1065q0 61 25.5 111t66.5 86t95.5 54.5t113.5 18.5h367q41 0 74.5 -16.5 t72.5 -16.5q10 0 11.5 12.5t7.5 20.5l51 51q2 2 15.5 6t17.5 6q2 2 11 6.5l13 6.5q-20 31 -59 38t-68 25h-680q-16 -20 -29.5 -20t-35.5 -4q-23 -6 -52.5 -27.5t-57 -49.5t-49 -57.5t-28.5 -52.5q-4 -16 -4 -24t-2 -15.5t-5 -15.5t-13 -23v-1316q10 -16 12 -35t12 -35 q18 -39 43 -75t60 -64q29 8 42 24.5t22.5 36t16.5 37.5t23 29q4 -4 12.5 -10.5t12.5 -8.5q12 -8 29.5 -18t35 -20.5t30.5 -18.5l13 -8l33 -6zM1034 535q27 -41 46.5 -68t49.5 -64q4 -6 11.5 -12t17.5 -6q16 0 25.5 15.5t9.5 29.5v1188q0 41 -24.5 92t-59.5 74h-2 q-4 0 -16.5 -12.5t-27.5 -29t-31.5 -30.5t-24.5 -18v-6l39 -52v-1077q-2 -2 -6.5 -9t-6.5 -9v-4v-2zM463 578q10 -12 12 -33t6 -41.5t18.5 -34.5t51.5 -14h123q8 0 8 8v12q0 18 -17.5 44t-39 51.5t-39 48t-17.5 36.5q0 6 7.5 12.5t15.5 6.5h340q6 0 16 -16.5t21.5 -37 t24 -37t22.5 -16.5v1057q0 14 -12.5 23.5t-30 15.5t-32.5 9t-21 3h-375q-16 0 -30.5 -9t-26 -23.5t-18.5 -32t-7 -31.5v-1001z" />
<glyph unicode="r" horiz-adv-x="1495" d="M1087 2048q18 -16 29.5 -16t34.5 -11q23 -10 41 -25.5t41 -25.5q39 -33 82 -79t59 -99q4 -14 7 -28.5t12 -28.5v-559q0 -4 -2 -9l-5 -10q-6 -16 -8 -32.5t-10 -30.5q-35 -70 -94.5 -139.5t-134.5 -96.5q-6 -2 -22.5 -3t-32 -5t-28 -12.5t-12.5 -20.5q0 -10 7.5 -26.5 t11.5 -26.5q61 -139 120.5 -275.5t121.5 -277.5q8 -18 21 -45t26.5 -54.5t23.5 -54t10 -45.5q0 -4 -1 -8t-5 -4h-362q-8 0 -17.5 5t-13.5 13q-10 23 -17 48.5t-16 48.5q0 6 -6 12q-18 25 -28.5 58.5t-22.5 62.5q-8 20 -18.5 39.5t-18.5 42.5q-33 76 -60.5 155.5t-68.5 149.5 q0 2 -2 9t-4 11q-4 12 -13.5 42t-23.5 60.5t-31.5 53.5t-33.5 23h-146l-10 -13v-803l-4 -4q-2 -2 -3 -4t-3 -4l-4 -4l-2 -2h-330l-12 6l-7 6v2036h985zM135 33h70q8 6 16 14l23 23q14 16 24.5 41.5t10.5 48.5v862q0 2 3 6t5 8q6 0 6 6q25 0 90.5 -1t138 -2t138 -2t92.5 -1 h10h8q20 0 55 1t69 2t58.5 2t28.5 1q74 4 120 47.5t68 104.5q10 25 14.5 46.5t4.5 49.5v287q0 49 -16.5 91t-41.5 79l-2 2l-4 -2q-2 -2 -15 -12.5t-15 -12.5q-10 -4 -41 -19t-41 -20q8 -10 20 -30.5t12 -32.5v-330q0 -4 -3 -20.5t-9 -24.5l-51 -51l-33 -6h-477l-20 14 q-2 0 -33 -7t-47 -13q-4 -2 -13.5 -9.5t-18.5 -15.5t-16.5 -16t-9.5 -11q-6 -10 -9 -28.5t-17 -28.5l-6 21v761l12 15h682q2 0 12 -3t23.5 -7.5t27 -9.5t19.5 -7q2 0 14 -7t16 -11q0 -2 5.5 -7.5t7.5 -5.5l2 -2q2 0 4 2q23 16 38 40t38 42q16 12 25.5 14.5t19.5 18.5 q-18 20 -37 31.5t-38 19t-39.5 15.5t-39.5 22h-938v-1982zM674 846q29 -23 37 -56.5t20 -64.5q10 -23 22.5 -45.5t22.5 -44.5q10 -27 17.5 -54.5t21.5 -54.5q10 -18 24.5 -41.5t20.5 -46.5t13.5 -48t17.5 -48q8 -23 19.5 -42t19.5 -38q12 -31 23.5 -61.5t27.5 -59.5 q0 -4 3 -8t3 -6q6 -18 13.5 -45t17.5 -43q4 -8 17.5 -8h17.5q20 0 32.5 10t18.5 24.5t7 31t1 30.5q0 63 -28.5 118.5t-51.5 114.5q-41 92 -79 182.5t-74 182.5q-8 20 -20.5 54t-27 69t-32 65.5t-35.5 47.5q-14 -37 -29.5 -70t-60.5 -45zM483 1221h453q33 0 54.5 25.5 t21.5 56.5v301q0 31 -24.5 52t-51.5 21h-465v-444z" />
<glyph unicode="s" horiz-adv-x="1478" d="M90 336v11t4 11l31 31h33.5t31.5 10q2 0 10.5 7.5t10.5 7.5q4 2 25.5 3t25.5 1q12 4 20.5 10t18.5 10q4 2 11 4t10 2q4 0 22 2.5t23 2.5q4 0 10 6q16 10 25.5 12t29.5 2q31 0 39 -9t10 -22.5t6.5 -26t26.5 -18.5q12 -4 21 -4h434q4 0 10 1t8 3q8 4 19.5 16.5t11.5 14.5 v190q0 2 -11.5 13.5t-19.5 17.5q0 2 -4 3t-6 3q0 2 -8 10.5t-11 10.5q-2 0 -8 2t-8 2q-4 0 -10 6q-18 10 -38 21.5t-38 23.5q-2 2 -12 10t-13 11q-4 0 -8 2q-4 0 -6 2q-33 12 -60.5 32.5t-56.5 36.5q-2 2 -12 6t-12 4q-2 2 -10.5 8.5t-10.5 8.5q-16 10 -33.5 17t-31.5 18 q-2 2 -8.5 8t-8.5 6q-2 2 -12 6t-12 4t-6 4q-2 2 -4 2q-18 14 -39 25.5t-41 24.5q-2 2 -10.5 8t-10.5 8t-12 5t-12 5q-2 0 -6.5 4t-4.5 6q-4 0 -13 6.5t-13 8.5q-2 2 -9.5 8t-9.5 6q-4 2 -14 6t-12 4q-2 2 -9.5 11.5t-11.5 9.5q-2 2 -12 5t-12 5q-4 4 -26.5 22.5t-33.5 28.5 q-4 4 -15 15.5t-15 15.5q-2 0 -3 4t-4 6q-2 0 -10 8.5t-10 10.5q0 2 -4 12t-6 14q0 2 -6.5 10.5t-8.5 10.5t-5 14t-5 14q0 2 -6 10.5t-8 10.5q2 0 -4 6q-2 2 -2 4q0 8 -2 30.5t-2 31.5q-2 2 -6.5 7t-4.5 7q-4 8 -7 29.5t-3 25.5v303q0 16 8 23.5t13 21.5q0 4 2 20.5t2 20.5 q2 4 4 11.5t2 9.5t7 7t7 7q10 14 17.5 29.5t17.5 32.5q20 27 38.5 42t47.5 33q18 10 35.5 25.5t40.5 19.5q4 0 18.5 2.5t16.5 2.5q4 2 11 8t9 8q4 0 6 2q2 0 4 2h693q4 0 13 -2t11 -2q2 -2 7 -8t7 -8q4 -2 18.5 -3.5t18.5 -1.5q10 -4 11.5 -9t13.5 -11q2 -2 14.5 -5t16.5 -5 q2 -2 7 -8.5t7 -6.5q29 -27 53.5 -52t42.5 -60q2 -2 5 -12.5t5 -12.5q0 -2 7.5 -10t7.5 -10q2 -2 3 -10.5t3 -10.5q4 -12 8 -19t8 -14.5t6 -16.5t2 -26v-28q0 -4 -1 -15.5t-9 -15.5q-16 -8 -36.5 -8t-32.5 -2q-10 -2 -18.5 -9.5t-18.5 -11.5q-2 0 -11.5 -2t-13.5 -2 q-4 -2 -17.5 -3t-17.5 -3q-2 0 -8 -4t-8 -6q-16 -10 -34.5 -10t-35.5 -5q-8 0 -14 -6q-18 -8 -26.5 -11t-30.5 -3h-19q-4 2 -9 7l-7 7q0 4 -2 16.5t-2 14.5l-15.5 15.5l-15.5 15.5q-6 4 -25.5 9t-25.5 5h-387q-2 0 -15.5 -5t-21.5 -9q-23 -10 -29 -42t-6 -54v-15q0 -2 3 -10 t3 -10q0 -4 1 -14.5t1 -23.5t1 -24.5t1 -13.5q2 -10 15.5 -31.5t19.5 -30.5q2 -2 12.5 -7t14.5 -7q4 -4 24.5 -20.5t24.5 -20.5q2 0 12 -4l15 -6q2 0 9 -6t9 -8q16 -10 31.5 -17.5t29.5 -17.5q2 -2 12.5 -10.5t12.5 -10.5t10 -3t10 -3q10 -4 13.5 -7t13.5 -11q6 -6 16.5 -8 t18.5 -9q10 -8 19.5 -17t19.5 -17q2 -2 5 -3.5t5 -3.5q4 0 14.5 -2t12.5 -2q2 -2 9 -10t11 -10q2 -2 6 -2q4 -2 9 -2q2 -2 10 -8.5t10 -8.5t4 -2q2 -2 6 -2q2 0 6 -2q8 -4 9 -4q2 0 10 -9t10 -11q2 0 10 -2t11 -2q2 0 5 -2.5t5 -2.5q0 -2 6 -8l8 -8q4 -2 15.5 -7t15.5 -7 q6 -4 19.5 -11.5t15.5 -9.5l8 -8t8 -6q0 -2 3 -3t5 -3q29 -12 58.5 -30.5t58.5 -40t53.5 -46.5t42.5 -49q14 -18 21.5 -39t13.5 -43q4 -10 12 -18.5t8 -20.5v-444q-16 -25 -24 -51.5t-27 -49.5q-4 -4 -22.5 -27.5t-26.5 -33.5q-10 -10 -26.5 -23.5t-35 -26t-36 -23.5 t-29.5 -17q-4 0 -6 -2l-8 -4q-16 -4 -35.5 -14.5t-36.5 -10.5h-676q-4 0 -10 2q-4 0 -8 1t-6 1q-4 0 -8 4q-4 2 -7 2q-2 0 -8 5t-8 5t-14.5 2.5t-16.5 2.5q-23 6 -42 22t-38 29q-2 0 -5 2t-5 2q-4 4 -17.5 18.5t-17.5 18.5q-2 2 -7 9t-9 11l-4 8l-21 21q-2 4 -3 16.5 t-1 14.5q-2 4 -10 13t-10 11q0 2 -2 9.5t-4 11.5q-6 29 -15.5 46t-9.5 48zM115 336q0 -18 4 -26.5t12 -22.5q0 -2 2 -5t2 -6q0 -2 2 -12t4 -12q0 -4 2 -11.5t2 -9.5q2 -2 10.5 -12t10.5 -12q0 -2 2 -12.5t2 -12.5q2 -4 10 -13t10 -13q10 -14 18.5 -26.5t22.5 -23.5 q12 4 25.5 6.5t26.5 8.5q29 16 45 40.5t24 59.5v10q0 16 -6 41t-14 35q-2 0 -2 2q-2 2 -2 4q-4 10 -5 16.5t-1 16.5q0 20 13 35.5t13 38.5q-31 0 -42 -11.5t-34 -15.5q-4 0 -25.5 -2t-25.5 -2q-2 -2 -10 -8t-10 -8q-12 -8 -28.5 -8t-31.5 -3l-26 -24v-2zM393 246 q0 -16 10 -25q16 -10 33 -17t37 -7h148h145q12 0 40 1t59.5 2t59 2t38.5 1q16 2 34.5 8t30.5 10q8 4 13.5 8t11.5 9q4 0 14 4t12 6q27 16 48.5 37.5t37.5 48.5q8 10 10.5 24.5t8.5 24.5v268q0 4 -7.5 26.5t-11.5 33.5q-2 4 -8 11t-8 9q-10 16 -22.5 31.5t-32.5 15.5 q-10 0 -14.5 -11t-10.5 -15q-4 -2 -15.5 -9.5t-15.5 -11.5q-2 0 -5 -2t-5 -2q-6 -4 -29.5 -11t-29.5 -9l-6 -7q4 -4 17 -14t17 -14q10 -10 28.5 -27.5t18.5 -19.5v-211l-51 -52h-475q0 -14 -20.5 -19t-28.5 -9q-57 -27 -76 -82v-6zM518 1202q0 -16 10.5 -20t20.5 -13 q8 -4 24.5 -15t20.5 -13q37 -27 76 -49.5t75 -47.5q2 -2 12.5 -10t14.5 -10q2 -2 4 -2q2 -2 4 -2q2 -2 8.5 -3t8.5 -3q2 0 10 -7.5t10 -7.5q4 -4 24.5 -16t24.5 -14t13.5 -10.5t13.5 -10.5q2 -2 14.5 -8t14.5 -6q16 -10 28.5 -20.5t26.5 -20.5q2 -2 10 -5t10 -5l7 -6l4 -5 l16 -8t14 -6q4 -2 10.5 -7t10.5 -9q0 2 2 3t2 3v2q0 16 -2 31.5t-2 31.5q0 25 6 45.5t29 34.5q-16 20 -35 28.5t-41 22.5q-2 2 -12.5 10.5t-12.5 10.5q-2 0 -10 2t-10 2q-2 2 -12.5 10t-12.5 11q-2 2 -10 5t-10 5t-10.5 8t-10.5 6q-2 2 -8 3t-6 3q-4 2 -13.5 10.5 t-13.5 10.5q-2 0 -10 2t-10 2q-8 0 -8 6q-2 2 -10.5 8t-16.5 12.5t-15.5 12.5t-9.5 6q-2 2 -8 3t-6 3q-4 0 -6 2q-2 0 -4 2q-4 2 -13.5 10.5t-13.5 10.5q-2 2 -10 3t-10 3q-2 0 -12.5 8t-12.5 10q-8 6 -20.5 16.5t-22.5 10.5h-2q-2 -2 -5 -8.5t-5 -8.5q-23 -29 -43.5 -33.5 t-52.5 -11.5q-2 0 -9.5 -2t-11.5 -2v-4zM135 1358q0 -8 2 -31.5t4 -30.5q2 -2 2 -4q0 -6 2 -6q2 -2 8.5 -10t6.5 -10q2 -2 6 -14.5t4 -16.5q2 -2 8 -9t8 -9q0 -2 4.5 -10.5t6.5 -10.5q2 -4 11 -15.5t13 -15.5l51 -51q16 -16 33 -20t33 -19l4 4q2 4 3 15.5t3 15.5q0 2 4 8 t6 6q0 2 2 5.5t2 5.5q0 4 4.5 16t6.5 14t13 14.5t17 16.5q4 2 9.5 4t5.5 8v2q-16 20 -34.5 29.5t-35.5 26.5q-10 10 -24.5 27.5t-26.5 36t-21.5 36.5t-9.5 31v106v107q2 29 10.5 58.5t20.5 55.5q0 2 7 10.5t7 10.5q2 4 6.5 11t4.5 9q6 8 29.5 31t31.5 31q4 2 10 7t10 7 t19.5 8t19.5 6l7 7q4 2 16 6t14 4h580l8 -4q4 -2 6 -4t6 -2q4 -4 14.5 -9.5t10.5 -7.5q6 -4 25.5 -23.5l25.5 -25.5q4 -16 9 -24.5t16 -20.5q12 -18 22 -32.5t33 -22.5q6 -4 17.5 -7t13.5 -3h86q0 2 2 2l2 2t4 8t2 8v18q0 20 -10.5 34t-16.5 32q0 2 -2 10t-2 10 q-2 2 -8 10.5t-6 10.5q-2 2 -6 12t-4 12q-8 14 -21.5 32t-29 35t-32 30.5t-30.5 19.5q-2 0 -6 2l-8 4q-2 0 -12.5 9.5t-12.5 9.5q-4 2 -18.5 3t-18.5 3q-2 0 -9 7t-9 7q-4 2 -11.5 4t-9.5 2h-671q-2 0 -5 -2q-2 -2 -4 -2t-2 -2q-2 -2 -9 -8t-11 -6q-2 -2 -16.5 -3t-18.5 -3 q-23 -4 -40 -18.5t-36 -26.5q-2 0 -10 -4t-10 -6q-6 -4 -25.5 -24t-23.5 -26q-10 -14 -18.5 -30.5t-18.5 -30.5q0 -2 -6.5 -10.5t-8.5 -10.5q-6 -10 -6 -27.5t-4 -27.5q-4 -14 -12 -21.5t-8 -23.5v-283q0 -4 4 -25.5t6 -29.5q2 -2 5 -7t5 -7z" />
<glyph unicode="t" horiz-adv-x="1433" d="M510 1677h-424q-2 0 -4 2q-6 6 -6 7q-10 4 -10 10v338l14 14h1261q6 0 13.5 -7t7.5 -13v-328q0 -2 -5 -7t-9 -7t-13.5 -4.5t-13.5 -2.5h-408l-12 -10v-1655l-18 -14h-334q-6 0 -19.5 8t-13.5 17v1640zM543 35q0 -4 6 -4h8q16 0 27.5 7t25.5 13q4 2 20.5 7t20.5 8 q8 4 17.5 22t11.5 29q2 4 3 11t5 15q2 8 6 19v1693q0 4 9.5 11.5t13.5 7.5h510q4 2 10 4q4 2 9 4t9 4q8 4 23.5 12.5t17.5 8.5q10 10 13.5 24.5t27.5 14.5v77h-1247v-204q10 0 16.5 9t14.5 13q2 2 12 5t12 5q4 2 16.5 8.5t14.5 6.5q4 2 9 4t8 2h432q2 0 9 -2t11 -4 q4 0 10.5 -4t6.5 -9q0 -12 -18.5 -14t-29.5 -8q-2 -2 -14 -10.5t-14 -10.5q-31 -18 -39 -47.5t-12 -62.5v-6q0 -8 8 -19v-1640z" />
<glyph unicode="u" horiz-adv-x="1492" d="M96 2013q0 8 7.5 21.5t17.5 13.5h338l18 -14v-1606q0 -6 15.5 -18.5t21.5 -16.5q4 -2 9 -3t9 -3l13 -4h403q2 0 15.5 4t19.5 6q2 0 6 2t4 4q4 2 7.5 4.5t7.5 6.5t10 8v1616l16 14h344l15 -14v-1717q0 -4 -3.5 -28.5t-7.5 -36.5q-2 -10 -9 -15.5t-11 -15.5q0 -2 -2 -9 t-2 -9q-4 -10 -12.5 -19.5t-14.5 -17.5q-29 -41 -68.5 -77t-86.5 -58q-2 0 -7 -2l-8 -4q-18 -4 -38.5 -14.5t-37.5 -10.5h-675q-16 0 -24.5 8t-20.5 12q-55 20 -93.5 48t-78.5 73q-4 4 -13.5 15.5t-13.5 15.5q-2 2 -7 14.5t-7 16.5l-11 8q-2 4 -5 14.5t-5 12.5q0 2 -2 5 t-2 5q-2 0 -6 6t-4 8q-2 4 -3 20.5t-3 20.5q0 4 -6.5 24.5t-8.5 24.5v1661zM121 362q4 -4 9 -24.5t7 -24.5q0 -4 2 -20.5t2 -20.5l4 -8q2 -4 7 -6q20 -37 41 -76q12 4 19 6t12 4.5t11.5 5.5t16.5 13q2 2 10 8t10 8q10 10 28.5 41t18.5 45t-11 15.5t-15 13.5q-2 6 -6 17.5 t-4 13.5q-2 6 -3 21.5t-1 19.5v1513q0 16 15 34.5t23 31.5q6 10 16.5 13t10.5 17h-213q-2 0 -2 -2q-2 -2 -2 -4q-6 -6 -6 -14v-1641zM338 324q0 -6 8 -17.5t20.5 -23t24.5 -21.5t19 -14q2 -2 10 -6t10 -4q0 -2 4 -7l4 -4q2 -2 14.5 -5t16.5 -5q2 0 10 -2t10 -4q2 0 12.5 -4 t12.5 -4q8 -2 30.5 -4t30.5 -2h400q4 2 10 4q4 2 9 3t10 3q12 4 38.5 17.5t36.5 23.5q2 2 8.5 10t8.5 10q16 20 31.5 39t27.5 41q4 8 11.5 20.5t13.5 25t10 21.5l4 9v1493q0 4 2 8t2 6t2 6q2 2 3 5.5t3 5.5t3 6t5 8q2 6 7 10q4 6 22.5 23.5t22.5 21.5v6h-224v-1613 q0 -2 -14 -15.5t-24 -21.5q-2 -2 -5 -2q-2 -2 -4 -2h-2q-6 -4 -19 -7.5t-16 -3.5h-423q-23 0 -42.5 17.5t-33.5 34.5q-2 2 -2 4q-2 2 -2 4q0 4 -2 14t-4 12q-2 4 -11 5h-4q-4 -2 -19.5 -9.5t-21.5 -11.5l-4 -4q-2 -2 -10 -12.5t-10 -12.5l-7 -6l-4 -4q0 -2 -2 -7t-2 -9 q-2 -2 -4 -10.5t-2 -10.5t-5 -12t-5 -12v-4z" />
<glyph unicode="v" horiz-adv-x="1427" d="M535 4q0 2 -2.5 3t-2.5 3q-2 2 -6 12.5t-4 12.5q-2 2 -6 8t-4 8q-6 6 -6 10t-2 30t-2 30q-2 16 -9.5 30.5t-11.5 30.5q-2 4 -3 13.5t-1 11.5q-2 4 -1 20.5t1 20.5l-4 8q-2 4 -4 6t-2 6q-16 27 -15 41.5t-1 42.5q-2 16 -8.5 23.5t-12.5 23.5q0 2 -2 9.5t-2 9.5 q-2 10 -3 36.5t-3 34.5q-23 20 -20 49t-5 58q0 4 -9 19.5t-11 19.5q0 2 -1 12t-1 21.5t-1 20.5t-1 11q-2 10 -7.5 18.5t-9.5 18.5q0 2 -2 9.5t-2 9.5q-2 8 -3 33.5t-3 31.5q-4 10 -9 20.5t-9 16.5q0 8 -2.5 35t-4.5 35q0 4 -6 16t-8 14l-4 9q-2 4 -2 6q0 10 -2 40.5t-2 41.5 q-4 10 -11.5 15t-9.5 15q-2 4 -3 19.5t-1 19.5v27q-4 14 -10 18.5t-10 20.5q-2 2 -3 14.5t-3 16.5q0 4 -2 27.5t-2 27.5q-2 4 -8.5 15.5t-8.5 15.5q-2 0 -2 2v6q-2 4 -2 6q-2 10 -3 39t-3 37l-12 20t-6 21q-2 8 -4.5 32.5t-2.5 32.5q0 2 -2 5t-2 5q-6 8 -10 14.5t-6 16.5 q0 10 -2 40t-2 40q-4 10 -11.5 18.5t-11.5 12.5v76l-12 16t-10 18q-2 8 -3 33t-3 33q-2 16 -10.5 25.5t-10.5 19.5l-10 92q-2 2 -8 11.5t-6 13.5q0 2 -1.5 12t-1.5 14t1.5 10.5t1.5 8.5l10 10h338q16 0 23 -14.5t12 -26.5q0 -6 2 -14q2 -6 2 -11.5t2 -9.5q0 -4 2 -25.5 t2 -25.5q2 -2 8 -14.5t8 -14.5q0 -4 2 -10t2 -10t2 -25.5t2 -25.5q2 -10 7.5 -17.5t9.5 -17.5q6 -16 6 -35.5t4 -36.5q2 -10 6 -17t8 -18q6 -14 7 -31.5t4 -33.5q4 -16 10 -29.5t10 -30.5q0 -2 1 -11t1 -19.5t1 -19.5t1 -11q4 -14 11.5 -25.5t9.5 -25.5q2 -4 3 -24.5 t3 -24.5q0 -4 2 -11.5t2 -9.5q2 -4 8 -15t8 -16q0 -2 2 -11t2 -13t2 -25.5t2 -25.5q0 -8 7 -15q0 -2 5 -10t5 -10q0 -4 2 -14.5t3 -23.5t3 -24.5t2 -13.5t7 -14.5t7 -16.5t2 -15t3.5 -24.5t3.5 -25.5t2 -15q2 -4 8 -18t6 -16q4 -10 5 -25.5l2 -31t6 -25.5t18 -10q18 0 20 20 q0 2 1 12.5t2 20.5l2 20t1 13q0 4 9.5 20t9.5 20q0 2 1 12.5t2 20.5t2 20.5t1 12.5q2 10 8 19.5t12 15.5q0 8 2 32.5t2 32.5q2 16 10.5 27.5t10.5 28.5q0 2 1 10t2 17.5t2 17.5t1 10q2 18 11.5 33.5t13.5 31.5q4 27 4 48.5t16 44.5l10 80q0 6 4 10q2 2 8.5 9t10.5 11v86 q6 8 13 18.5t9 20.5q0 2 1 12.5t1 21.5t1.5 20.5t1.5 11.5q2 4 11 20.5t9 20.5q0 2 1 12t2 20.5t2 20.5t1 12q0 10 6 19.5t13 15.5q2 8 3 33.5t3 32.5q0 4 4 14t10 20.5t13.5 18.5t13.5 8h338q8 0 9 -14.5t1 -18.5q0 -16 -5 -26.5t-12 -26.5q0 -2 -2 -11t-2 -14q0 -2 -1 -10 t-2 -17t-2 -17.5t-1 -10.5q-2 -14 -9 -25.5t-11 -25.5q-4 -23 -2 -38t-9 -32q0 -4 -6 -16t-8 -14q-4 -23 -4 -43.5t-6 -42.5q0 -2 -4 -10.5t-6 -10.5q-10 -33 -10.5 -60.5t-20.5 -60.5l-8 -86q-18 -23 -20.5 -52.5t-6.5 -53.5q-2 -4 -2 -6q-2 -4 -2 -9q-2 -2 -6 -12t-4 -12 q0 -4 -2 -13.5t-4 -20.5t-3 -20.5t-1 -11.5q-4 -14 -11.5 -25.5t-9.5 -25.5q0 -2 -1 -11t-1 -19.5t-1 -19.5t-1 -11q-4 -16 -7 -22.5t-9 -22.5q-4 -16 -5.5 -35t-5.5 -35q-2 -16 -9 -27.5t-11 -27.5q0 -4 -2 -25.5t-2 -26.5q-2 -4 -3 -16t-3 -14t-4 -6l-5 -9q-6 -6 -6 -14 q-2 -16 -3 -37.5t-7 -38.5q-4 -12 -8 -18t-6 -19q-4 -29 -7.5 -54t-19.5 -50q0 -10 -3 -41t-5 -41q-2 -2 -6 -12t-4 -13q-2 -2 -2 -4t-2 -4q-2 -4 -2 -6q0 -4 -1.5 -15t-3.5 -23.5t-4 -24t-2 -13.5q0 -4 -7 -16t-7 -14t-2 -12.5t-4 -14.5q0 -4 -2 -22.5t-2 -22.5 q-2 -10 -7.5 -19.5t-9.5 -19.5q0 -4 -2 -15.5t-2 -15.5t-2 -22.5t-2 -22.5q0 -2 -2 -7t-4 -9q-4 -14 -8 -22.5t-6 -22.5q-2 -4 -3 -22.5t-3 -22.5q-2 -14 -15.5 -41t-23.5 -35h-138h-135q-10 0 -36.5 2t-34.5 2zM479 293q12 -16 15.5 -27.5t4.5 -22t1 -22.5t4 -28t11 -31 t9 -31q0 -2 1 -11t2 -19.5t2 -19.5t1 -11t11.5 -20.5t13.5 -18.5h66l51 55q0 4 2 8q0 4 1 6t1 6t2 25t2 25q2 4 3 11t3 9q4 14 22.5 12t28.5 9q10 10 13.5 37.5t5.5 41.5q4 12 8 21.5t8 19.5q4 23 7 43.5t7 42.5q2 4 6.5 15.5t4.5 15.5q0 2 3 15.5t5 28t5 26.5t3 16 q0 2 4 14.5t4 14.5q8 23 10.5 44t10.5 42q2 4 4 9t2 7q10 53 22.5 105.5t22.5 105.5q12 16 14 44t6 48q0 2 4.5 14.5t6.5 14.5q2 6 5 20.5t5 16.5q0 4 2 19.5t2 19.5q4 16 10 30.5t10 30.5t4.5 38t10.5 38q6 6 6 10q4 23 6 45.5t8 44.5q0 2 3 9.5t5.5 15.5t5.5 16.5t3 10.5 q0 4 4 29.5t6 29.5q2 10 7 20.5t7 20.5q0 2 1 12t3 22.5t4 23t2 12.5q0 4 5.5 13t5.5 13q0 2 2 14.5t5 25.5t5 24.5t2 15.5q2 4 8 25.5t8 25.5q4 16 5.5 35t9.5 35v2q0 2 2 4q0 2 2 4q10 35 13 66.5t13 64.5q2 8 9.5 34t11.5 32q10 8 13 16t12 19q6 10 16 15t14 15v6h-186 q-2 0 -9 -10t-12 -16q-2 -2 -4 -9.5t-2 -9.5q0 -8 -2 -33.5t-2 -33.5q-6 -6 -12 -15.5t-8 -19.5q0 -2 -1 -12.5t-2 -20.5t-2 -20.5t-1 -12.5q0 -4 -9.5 -19t-9.5 -19t-1 -13.5t-2 -21t-2 -20.5t-1 -11q-2 -12 -9 -22.5t-14 -18.5v-86q-2 -4 -8 -10l-10 -10q0 -2 -2 -5.5 t-2 -5.5l-10 -80q-12 -16 -15 -26q-2 -16 -2 -39t-8 -41q-2 -2 -8 -14.5t-8 -16.5q0 -2 -2 -9t-2 -11q0 -2 -1 -10.5t-2 -17.5t-2.5 -17.5t-1.5 -10.5q-2 -16 -9 -27t-9 -28q-2 -6 -4 -31.5t-2 -33.5q-6 -6 -12.5 -15.5t-8.5 -19.5q0 -2 -1 -12.5t-1 -20.5t-1 -20.5 t-1 -12.5q-2 -4 -11 -20.5t-9 -20.5q-4 -12 -3 -26.5t-1 -28.5t-7.5 -26.5t-19.5 -18.5q-4 -2 -15 -4t-16 -2q23 -10 22 -37t-1 -45q0 -78 -4 -151.5t-8 -153.5v-21l-13 -227q0 -8 -6 -14q-2 -4 -7 -15.5t-7 -15.5h-4q-10 0 -12.5 6t-4.5 14q0 2 -2 12.5t-5 20.5t-5 20.5 t-2 12.5t-2 4q-4 4 -4 6t-2 7t-2 7q-12 53 -23.5 108.5t-27.5 109.5q-6 23 -8.5 45t-12.5 45q0 2 -2 8t-2 8q-6 23 -10 45.5t-10 44.5q0 4 -5.5 15.5t-5.5 15.5t-2 17.5t-2 17.5q-4 20 -10 36.5t-10 34.5q0 2 -3 14.5t-5.5 26t-5.5 24.5t-3 15q0 2 -4 12.5t-4 12.5t-2 12 t-4 21.5t-3 20.5t-1 11q-4 14 -8 24.5t-8 22.5q-4 23 -8.5 45.5t-12.5 45.5q-12 41 -22.5 88t-16.5 88q-2 4 -3 20.5t-3 20.5q0 2 -5 7t-5 7q-2 6 -7.5 28.5t-7.5 32.5v15q-2 4 -8 22.5t-8 22.5q-4 25 -6 49.5t-12 46.5l-5 8q-2 2 -2 6q-12 68 -30 138q0 2 -3 12t-6.5 20.5 t-6.5 20.5t-3 12q-2 2 -2 13.5v17.5v17.5t2 13.5q2 10 6 18t6.5 16.5t6.5 14.5q2 0 2 2t2 4t2 4l45 45q0 2 2 5t2 5v2q0 2 1 2t1 2h-256q0 -12 4 -24t14 -21l11 -92q0 -10 8 -19t10 -26q2 -8 4 -32.5t2 -32.5q4 -10 10.5 -18.5t12.5 -16.5v-76q4 -4 12 -13.5t10 -17.5 q0 -10 2 -39.5t5 -40.5q0 -10 5 -16t9 -14q0 -2 2 -5t2 -6q2 -8 3 -32.5t3 -32.5q2 -10 8 -20.5t13 -20.5q0 -8 2 -37t2 -39q0 -2 2 -6l4 -8q0 -4 7 -15.5t7 -15.5q2 -4 3 -27.5t3 -27.5q0 -4 2 -16.5t2 -14.5q4 -16 11.5 -20t9.5 -19v-26q0 -6 2 -22.5t2 -18.5q2 -2 8 -9.5 t8 -9.5q0 -4 2 -6q0 -2 2 -4q0 -10 2.5 -41t4.5 -41q2 -2 2 -6q0 -8 2 -8q2 -4 8 -15.5t6 -15.5q2 -8 4 -34.5t2 -35.5q4 -6 10.5 -16t10.5 -21q0 -8 2 -32.5t2 -32.5q0 -2 2 -9t4 -9q4 -10 8 -18.5t6 -18.5q0 -2 1 -12.5t2 -20.5t2 -20.5t1 -12.5q0 -4 9.5 -19.5t9.5 -19.5 q8 -29 5 -57.5t21 -48.5q0 -8 2.5 -35t2.5 -37q0 -2 2 -9t4 -9q0 -2 4 -8.5t6 -8.5q0 -2 2 -5t2 -5q8 -23 8 -46.5t2 -43.5z" />
<glyph unicode="w" horiz-adv-x="1482" d="M184 414q-4 4 -8 15t-6 15q0 4 -1 17.5t-2 28t-2 26.5t-1 19v14l-8 379l-13 20v101l-10 16v377q-2 2 -4 6t-4 4q-2 2 -6 10q-2 4 -4 6l-15 484q-2 4 -6 15t-4 15v11q0 12 3 33.5t22 21.5h338l16 -14q0 -2 2 -19.5t2 -27.5q0 -8 1 -41t2 -72t2 -72t1 -41q0 -4 2 -20.5 t2 -20.5v-71l11 -19q0 -6 1 -23.5t2 -36t2 -34.5t1 -23q0 -4 1 -15t3 -15l4 -4l4 -2l2 2l4 4q2 10 3 38.5t3 37.5q0 8 5.5 18t9.5 16q10 20 10 40v42l10 11q37 0 74 2q31 0 63.5 1t55.5 1h79h80q29 -4 29 -29t2 -47q4 -20 11.5 -37.5t9.5 -38.5q0 -2 1 -12t2 -22.5t2 -23 t1 -12.5t2 -8t2 -8h2h2l4 4q2 2 4 2v211q6 14 7 30.5t1 34t3 32t16 24.5v244l4 4q2 2 4 3t4 3q2 0 5 2t5 2h338q18 0 19 -18v-13q0 -8 -1 -22.5t-1 -28.5t-1.5 -25.5t-1.5 -13.5q0 -4 -3 -13t-5 -11v-359l-12 -20q0 -6 -1 -21.5t-1 -34t-1 -34t-1 -21.5q0 -4 -2 -11t-4 -9 q0 -14 -1 -52t-1 -79t-1 -79t-1 -53v-71q0 -4 -2 -19.5t-4 -19.5q-4 -35 -5.5 -71t-9.5 -70l-12 -359v-16q0 -2 -1 -14.5t-2 -28t-3 -29.5t-2 -22q0 -4 -2 -13.5t-2 -13.5l-11 -369q0 -6 -11 -10t-15 -4h-318q-6 0 -21.5 2t-19.5 12q0 8 -1 30t-3 26q0 4 -2 11t-2 9 q-2 4 -8 18.5t-8 18.5q0 2 -2 13.5t-2 15.5q-2 10 -4 38.5t-2 36.5q0 2 -2.5 5.5t-2.5 5.5q-2 2 -6 8t-4 8t-2 16.5t-4 22.5q0 8 -2 32.5t-2 32.5q-23 29 -22 63t-3 69q0 2 -2 7t-4 9l-9 22.5t-5 22.5q0 6 -1 18.5t-2 26.5t-2 27.5t-1 17.5l-23 37v90q-6 10 -13 19.5 t-9 21.5q0 8 -2 37t-2 37q-4 8 -11 16q-2 -2 -3 -5t-3 -5q-2 -16 -3 -42t-7 -44q0 -2 -4 -12.5t-6 -12.5q-6 -23 -6 -42t-4 -44q-2 -20 -9.5 -36.5t-9.5 -34.5q0 -4 -2 -17.5t-4 -29t-3 -28.5t-1 -20q-4 -6 -9 -17t-8 -19q0 -6 -2 -19.5t-3 -28t-3 -27.5t-2 -20 q-2 -4 -7 -16t-7 -21q0 -2 -1 -11t-1 -20.5t-1 -21.5t-1 -12q-4 -27 -13.5 -52.5t-13.5 -51.5q-2 -23 -3 -42.5t-7 -39.5q-2 -2 -2 -5q-2 -2 -2 -4v-2q-2 -4 -6 -16t-4 -14q-2 -4 -4.5 -25.5t-2.5 -30.5l-8 -8t-10 -6h-313q-4 0 -15.5 2t-15.5 2l-7 7t-7 9q-4 4 -8.5 13.5 t-4.5 11.5v369zM209 55q0 -4 4 -13t8 -11q2 0 7 -1t8 -1h10q4 0 6 2q2 0 7 9t7 11t10.5 8.5t17.5 13.5t17 14t11 9q2 0 6 6.5t4 8.5q2 2 10 12t10 14q8 10 11.5 23.5t9.5 25.5q6 10 14 13.5t17.5 6.5t16.5 9t11 23q12 45 19.5 90t17.5 90q4 14 8 25.5t6 25.5q0 2 2 13.5 t3 24.5t3.5 23.5t2.5 14.5q2 4 8 22.5t6 22.5q0 2 2 13t4 22.5t3 21.5t1 15q2 4 4 13t2 11l4 4q8 29 9.5 57.5t11.5 55.5q0 2 2 4q4 4 4 6q0 4 4 24.5t6 30.5q4 20 6 39t13 37q2 10 5 40t5 40q4 16 8 27.5t8 27.5q0 2 1 13.5t3 22.5t4.5 21.5t2.5 14.5q0 2 3 12.5t6 22.5 t6 22.5t3 12.5t2 13t4 24.5t3 23.5t1 14q2 4 4 10.5t6 10.5q6 53 18.5 105.5t22.5 105.5q8 35 15.5 65.5t7.5 65.5h-150q0 -18 -1 -37.5t-7 -38.5q-4 -6 -9 -16.5t-7 -18.5q0 -8 -2 -36.5t-2 -38.5q-16 -29 -45 -25v-2q0 -18 5 -36.5t5 -37.5q0 -2 -1 -4t-1 -4v-6 q0 -4 -2 -14.5t-2 -12.5q0 -6 -1 -20.5t-2 -31.5t-1 -31.5v-20.5q-2 -2 -4 -8.5t-2 -8.5q0 -4 -1 -15t-3.5 -24.5t-4.5 -25.5t-2 -15q-6 -47 -8 -91t-12 -91q0 -2 -2 -10t-2 -10q-6 -45 -8 -90t-9 -90q0 -4 -1 -15.5t-3 -26t-4 -26.5t-2 -14t-2 -10.5t-2 -10.5 q0 -4 -1 -15.5t-1 -24.5t-1 -25.5t-1 -14.5q0 -10 -2 -23.5t-4 -27.5t-3 -24l-1 -11l-6 -10q0 -10 -2.5 -35.5t-5.5 -54.5t-5 -55.5t-2 -36.5q0 -4 -2 -17.5t-4 -17.5q-2 -10 -8 -10q-14 0 -21 10q-6 47 -9 91t-7 91q0 2 -2 9.5t-2 11.5l-10 362q-14 31 -10 69t-7 72 l-22 480v14q0 23 -3 79t-5 120.5t-5.5 121t-3.5 78.5q0 2 -1 14.5t-1 16.5q0 35 7.5 58.5t29.5 52.5l4 4q10 6 18.5 9t8.5 17h-213q-2 0 -2 -2q-2 -2 -2 -4q-2 -4 -4 -13t-2 -11q2 -4 5 -15.5t5 -15.5l16 -483q2 -2 4 -6q4 -8 7 -11q0 -2 2 -4q0 -2 1 -2t1 -2t2 -2v-377 l10 -16v-101l12 -20l8 -379v-14q0 -6 1 -18.5t2.5 -27t2.5 -27.5t3 -17q0 -4 4 -15.5t8 -15.5v-369zM903 242q0 -8 2 -37t2 -39q0 -4 2 -15.5t2 -13.5q2 -4 8.5 -18.5t8.5 -18.5q0 -2 2 -9t2 -11q2 -4 4 -24.5t2 -24.5h6q16 0 24.5 7t18.5 17q2 2 8 5t9 6q2 2 5 10t5 10 q0 2 7 12.5t7 12.5q4 23 2 39t8 32q10 12 22.5 13.5t12.5 21.5l17 277q0 4 2 18t2 18q0 6 2 29t4 48.5t3 49t1 29.5q0 2 3 14.5t3 16.5q0 12 1 36.5l2 49t2 45t1 24.5v21q0 2 2 22.5t4 46l4 51t2 42.5q2 4 3.5 12t3.5 12l8 166v21q0 8 2 29.5t4 46t4 46t2 29.5v17q0 2 2 14 t2 14q0 6 1 27.5t2 46.5t2 46.5t1 27.5q0 4 1 14t3 14v2q0 2 2 5l5 4q0 4 -1 25.5t1 25.5q0 2 1 7t3 7l10 203q2 29 20.5 50.5t34.5 39.5q2 2 3 5t3 5v6h-215v-243q-10 -10 -13 -24.5t-3 -32t-1 -34t-7 -30.5v-211q0 -2 -9.5 -9t-15.5 -12q-2 -2 -9 -3t-9 -1q0 -4 4 -11 t4 -9q2 -2 6 -3t4 -3q10 -10 11 -29.5t1 -34.5q0 -53 -3 -103t-3 -104v-57q0 -14 1 -51t3 -78t4.5 -77t2.5 -50q0 -4 2 -11t2 -9q4 -35 4 -63t6 -58l10 -324q4 -8 5 -16t1 -19v-20l-6 -6h-2q-16 0 -25.5 17.5t-13.5 29.5q0 4 -2 17.5t-5 28.5t-5 28.5t-2 19.5 q-4 6 -9.5 17.5t-5.5 19.5q-2 4 -3 22.5t-3 22.5q0 2 -5 23.5t-9 31.5q0 2 -2 8.5t-4 6.5q-10 47 -17.5 91t-17.5 91q-4 27 -12 50.5t-13 49.5q0 4 -2 20.5t-4 20.5q0 2 -4 12.5t-6 12.5q0 2 -1 11t-3 19.5t-4 19.5t-2 11q-4 18 -9.5 34.5t-9.5 35.5q0 2 -2 12t-4 20.5 t-3 20.5t-1 12q-2 4 -6 16.5t-4 14.5q-2 4 -3 11.5t-3 9.5q0 4 -2 20t-2 21q-2 4 -3 16t-3 12q0 2 -4.5 10.5t-6.5 10.5q-2 6 -5 25.5t-3 25.5l-6 4l-10 -373l-15 -14q27 -8 35 -37q0 -8 2 -37t2 -39q2 -10 9.5 -20t15.5 -19v-92l22 -35q0 -4 1 -17t1 -27.5t1 -27t1 -18.5 q2 -10 6.5 -22.5t8.5 -22.5q2 -4 4 -9t2 -7q4 -35 3 -69t22 -62q0 -8 2 -33t4 -33q0 -8 2 -22.5t2 -16.5t5 -8t5 -8q2 -2 3 -5t3 -5z" />
<glyph unicode="x" horiz-adv-x="1492" d="M90 76v31.5t4 29.5q4 10 10.5 17.5t10.5 17.5q2 2 3 10t3 11q0 2 6 9t8 9t3 6t3 4q0 2 2 10.5t2 10.5q2 2 8.5 10t6.5 10q6 6 6 10q0 2 4 15.5t6 15.5q0 2 7 7t7 7q2 2 3.5 10.5t3.5 10.5q4 12 10 18t10 17q0 4 4 16t6 14q0 2 6.5 7.5t8.5 7.5q2 4 5 18.5t5 18.5 q0 2 7 10t7 10q2 2 5 14.5t5 14.5t8.5 10t8.5 10q0 2 2 5t2 6q0 2 2 10t2 10q2 2 8 10t8 10q0 2 2.5 5.5t2.5 5.5q2 2 3 10t3 10q0 2 6 9.5t8 9.5q6 10 8 18t8 19q0 2 6.5 10t8.5 10q0 4 2 8q0 4 1 6t1 4q2 2 3 6.5t3 4.5q2 2 8 10t6 10q2 2 3 10.5t3 10.5q4 10 10.5 17 t10.5 17q0 4 4 16.5t4 14.5q2 2 8 10.5t9 10.5q2 2 5 14t5 16q0 2 2 4q0 2 4 7l8 8q2 4 6 14t4 12q2 2 3 5.5t3 5.5q0 2 6.5 9t8.5 11q0 2 2 12.5t2 12.5q2 2 8 10t8 10q6 10 6 15.5v19.5v19.5t-6 15.5q-2 2 -8 10t-8 10q0 2 -2 10.5t-2 10.5t-2 5t-2 5q-2 2 -8.5 10 t-8.5 10t-5 14.5t-5 16.5l-8 8q-6 6 -6 11q-2 2 -3 10t-3 10q0 4 -2 9t-2 8q-2 0 -8.5 6t-8.5 8t-2 6q0 2 -1 4t-1 4t-2 10.5t-2 10.5l-16 16q-2 2 -2 4q-2 2 -3 6q-2 2 -3 12.5t-3 12.5q0 2 -6 8t-8 6q-2 2 -3 5t-3 5q0 2 -2 12.5t-2 12.5q-2 2 -8.5 8t-6.5 8q-6 6 -7 14.5 t-3 16.5q-2 0 -3 4t-3 6t-8 9.5t-6 9.5q-2 4 -3 14t-3 12q0 2 -9.5 12.5t-11.5 12.5q0 2 -2 10t-2 10q-2 2 -2 9q0 2 -2 6q-2 2 -8 10t-9 10q-2 4 -5 15.5t-5 15.5q0 2 -7 10t-7 10q-2 2 -5 14.5t-5 16.5q-2 2 -8.5 9.5t-6.5 9.5q2 0 -4 6q-2 2 -2 4t-2 10t-2 10 q-2 2 -8 10.5t-8 10.5q-2 4 -5 15t-6 16q0 2 -6 10t-8 10q-2 0 -3 4t-3 6q0 2 -2 9.5t-2 9.5q-2 2 -8 10t-6 10q-6 10 -6.5 15.5t-4.5 15.5q-2 2 -3 5t-3 5t-8 10.5t-6 10.5q-2 2 -3 10t-3 10q-4 10 -5 10t-10 11q-10 12 -10 32.5v36.5v31q0 4 2 17.5t2 17.5l6 6q2 0 5.5 2 t5.5 2h338q2 -2 4 -2q2 -2 6 -2q2 -2 7 -13.5t9 -24.5t8 -25.5t6 -18.5q0 -2 2.5 -5t2.5 -5q2 0 6 -4t4 -6q0 -4 2 -7q0 -4 1 -5t1 -3q2 -2 3 -10t3 -10t10 -12.5t11 -12.5q0 -4 4 -16.5t6 -14.5q0 -2 7 -10t7 -10q2 -2 3 -10.5t3 -10.5q0 -6 4 -10q2 -2 8.5 -10t6.5 -10 q2 -2 6 -14.5t4 -14.5q2 -2 8 -10t8 -10q0 -4 4 -15.5t7 -15.5q0 -2 7 -10.5t7 -10.5q2 -2 5 -14t5 -16q0 -2 2 -5.5t2 -5.5t2 -2t2 -1t2 -1l4 -4q2 -2 3.5 -7t3.5 -9q0 -2 2 -12.5t2 -12.5l16 -16q0 -4 2 -6q0 -4 1 -5t1 -3t2 -10.5t4 -10.5q0 -2 6.5 -10t8.5 -10 q0 -2 2 -5v-4q0 -2 2 -2q2 -2 3 -10t3 -8l15.5 -15.5l15.5 -15.5h2h2q10 4 9 17.5t1 17.5l20 20q2 2 3.5 14.5t1.5 16.5q2 2 10 9.5t10 11.5q2 2 3 14t3 14q0 4 9.5 11.5t11.5 9.5q0 2 2 6q0 4 1 6t1 4t2 9.5t2 9.5l16 16q0 2 2 12.5t2 12.5q4 12 13.5 18t13.5 16 q0 4 1 16.5t3 14.5l21 21q2 2 3 15t1 15q2 2 11 9.5t9 11.5q2 2 3 14t3 14q0 4 9.5 11.5t11.5 9.5q0 2 1 15.5t3 15.5l20 20q2 2 3 14.5t1 16.5q4 4 11.5 11t11.5 9v56l18 14h338q6 0 10.5 -10t4.5 -15v-112q0 -2 -1 -9.5t-4 -9.5q0 -2 -4 -8t-6 -8q-4 -8 -17 -34.5 t-18 -35.5q-23 -45 -43 -89t-43 -87q-10 -18 -20 -35.5t-21 -35.5q0 -2 -4 -12.5t-6 -12.5q-2 -4 -8 -17.5t-14 -28.5t-14.5 -28.5t-8.5 -17.5q-2 -2 -5 -14.5t-5 -14.5q0 -2 -4 -8t-6 -8t-2 -4q-2 -2 -2 -4v-3q-2 -2 -5.5 -12t-5.5 -12t-8 -10.5t-6 -10.5q-2 -2 -6 -14 t-4 -16q-2 -2 -8.5 -9.5t-8.5 -9.5q-2 -4 -5 -16t-5 -14q0 -2 -7 -10.5t-7 -10.5q-2 -4 -5 -15.5t-5 -15.5q-2 -2 -8.5 -10t-6.5 -10q-2 0 -4 -4t-2 -6q-14 -41 -35.5 -79t-40.5 -77q0 -4 6 -10q29 -47 51.5 -99.5t49.5 -101.5q16 -33 31.5 -64.5t33.5 -62.5q4 -8 7.5 -17.5 t7.5 -17.5q8 -12 13 -25.5t13 -25.5q10 -16 13.5 -26.5t11.5 -28.5q0 -2 4 -8.5t6 -6.5q6 -10 10 -23t11 -24q20 -33 36.5 -68.5t32.5 -72.5q0 -2 2 -4l4 -4q23 -37 39.5 -76t36.5 -76q0 -2 4 -8t6 -8q10 -18 10.5 -43t0.5 -45q0 -6 -1 -26.5t-1 -26.5q0 -4 -4.5 -14.5 t-10.5 -10.5h-313q-8 0 -18.5 1t-16.5 9q-10 14 -8 29.5t-6 30.5l-10 10q0 4 -7 10q-4 14 -12 25.5t-12 25.5q0 2 -4 14.5t-6 16.5q0 2 -7.5 10t-7.5 11q-2 2 -5 14t-5 14t-8 10.5t-8 10.5q0 4 -4.5 16t-6.5 14q0 2 -6 10.5t-8 10.5t-5 14t-5 17q0 2 -6.5 10t-8.5 8 q-2 2 -3 6t-3 4q0 4 -2 13.5t-2 13.5q-2 2 -8 7t-8 7q0 2 -2 5t-2 5t-2 12.5t-2 12.5l-17 16q-4 6 -5 14.5t-5 16.5l-4 8q-2 2 -8 10.5t-8 10.5q0 2 -2.5 10t-2.5 10q0 4 -6 11q0 2 -6 10t-8 10q-2 4 -4 17.5t0 17.5h-4q-2 0 -4 2q-2 0 -2 -1t-2 -1h-5q-2 0 -9 -8.5 t-11 -12.5q-2 -2 -2 -4q-2 -2 -2 -4v-2q-2 -2 -5 -14.5t-5 -14.5q0 -2 -4.5 -6t-6.5 -4q0 -2 -2 -5t-2 -5q-2 -4 -6 -16.5t-4 -14.5q-2 -2 -8 -10t-8 -10q0 -2 -4 -14.5t-7 -16.5q0 -2 -8 -10q-4 -4 -6 -8t-5 -16.5t-5 -14.5q0 -2 -7 -10.5t-7 -10.5q-2 -4 -6.5 -18 t-4.5 -16q-2 -4 -8 -11.5t-8 -9.5q0 -4 -4 -16.5t-6 -14.5q0 -2 -6.5 -10t-8.5 -10q-4 -4 -4 -10q-2 -2 -3 -12.5t-3 -12.5q0 -2 -7 -10t-7 -10q-2 0 -3 -4.5t-3 -6.5q0 -2 -1 -3t-1 -5q-2 -4 -2 -6q-2 -2 -3.5 -6t-3.5 -4q-8 -10 -9 -10t-5 -11q-4 -10 -4 -15t-6 -15 q-2 -2 -8.5 -10.5t-6.5 -10.5q-2 -2 -4 -10t-2 -10t-2 -7.5t-2 -7.5q-4 -4 -6 -8t-4 -6q-2 -4 -3 -13.5t-3 -13.5t-7 -9t-7 -5h-304l-41 4q-2 0 -5 4t-5 6q-4 12 -4 31v31zM115 76q0 -12 1 -23.5t5 -21.5h22h23.5t23.5 4q4 2 16.5 9t25 16.5t22.5 17.5t12 12q4 6 13.5 26.5 t13.5 24.5q0 2 2 12.5t2 12.5q0 4 2 9t2 7q4 8 15.5 29.5t23.5 45.5t22.5 45.5t14.5 31.5q2 0 6 6t4 8q2 2 8 14.5t8 16.5q0 2 7.5 10t7.5 10q2 2 5 14.5t5 14.5t8 10t6 11q2 4 6.5 16t4.5 14l2 2q2 2 2 3t2 3q2 4 4 7q8 14 12 26t14 25l5 4q2 4 5 16.5t5 14.5v2q0 2 2 4 q0 2 2 4q8 10 10 10t6 10q16 53 45 90q0 2 2 5.5t2 5.5q2 4 6.5 16t4.5 14q4 10 10 20.5t10 20.5q2 2 3 5.5t3 5.5q0 2 7.5 10t7.5 10q2 2 5 14.5t5 14.5t8 10t6 10q2 4 6 15.5t4 15.5q6 12 13.5 24.5t13.5 26.5q0 2 2 5t2 5q10 10 23.5 34t13.5 36q0 16 -14.5 32.5 t-22.5 33.5q-10 20 -20.5 39.5t-20.5 39.5q-2 0 -2 2v5q-2 2 -2 4q-16 27 -30.5 53.5t-30.5 52.5q-4 8 -6.5 17.5t-8.5 17.5q-16 23 -28.5 47.5t-26.5 48.5q-16 31 -33.5 60.5t-31.5 60.5l-5.5 11t-5.5 10q-16 29 -34.5 55t-30.5 55q-2 4 -5 13.5t-6 13.5q0 2 -7 9t-7 9 q-25 45 -46 87t-21 93q0 23 5 40.5t15 37.5q8 10 22.5 23.5t14.5 27.5h-217q-2 0 -3 -12t-3 -18v-21q0 -27 3 -37t17 -32q2 -2 3 -6.5t3 -4.5q0 -2 2 -10t2 -10q2 -2 8.5 -10.5t6.5 -10.5q6 -10 8 -20t8 -21q2 -2 8 -10t6 -10q2 -2 3.5 -9t3.5 -9q0 -4 2 -7q0 -2 2 -4t8 -10 t8 -10q0 -4 4 -16.5t6 -14.5q0 -2 6.5 -10t8.5 -10q0 -2 2 -10.5t2 -10.5q2 0 3 -4t3 -6t8 -10.5t6 -10.5q2 -2 5 -14t5 -14t8.5 -10.5t8.5 -10.5q0 -4 4 -15t4 -15q2 -2 8 -10.5t8 -10.5q0 -4 2 -6q0 -4 1.5 -5t1.5 -3q2 -2 3 -10.5t3 -10.5t10 -12t10 -12q0 -4 2 -13.5 t2 -13.5q0 -2 8 -10q4 -4 7 -8q0 -2 4 -7q2 -2 2 -4t2 -10t2 -10q2 -4 11 -13.5t9 -13.5q2 -2 3 -12t3 -12q0 -2 9.5 -12.5t11.5 -12.5q0 -2 2 -12t2 -15q2 -2 10 -11t11 -13q0 -2 2 -10.5t2 -10.5q4 -12 13 -21t13 -24q0 -2 2 -10t2 -10q2 -2 8.5 -10.5t8.5 -10.5 q0 -2 4 -14t4 -14q2 -2 8 -10.5t8 -10.5q0 -2 2 -5t2 -5q2 -2 3 -10t4 -10q0 -2 6 -10.5t8 -10.5q0 -2 4 -6q2 -2 2 -4v-70q0 -2 -2 -4t-2 -4t-2 -2q-2 -2 -8 -10t-6 -11q-2 -2 -3.5 -12t-3.5 -12q0 -4 -6 -11.5t-8 -9.5q0 -4 -6 -10q0 -2 -4 -12t-4 -12q-2 -2 -8.5 -10.5 t-8.5 -10.5q-2 -4 -5 -16.5t-5 -14.5q0 -2 -7 -10t-7 -10q-2 -2 -6 -14.5t-4 -16.5q-4 -10 -10.5 -17t-10.5 -18q0 -2 -2 -10t-2 -10q-2 -2 -8 -10.5t-8 -10.5t-2 -4q-2 -2 -3 -4v-2q-2 -2 -3 -9t-3 -9q0 -2 -6 -10.5t-8 -10.5t-3 -5t-3 -5q0 -2 -2 -8t-2 -8q-2 -2 -3 -5.5 t-3 -5.5q-2 -4 -7 -8l-6 -6q-2 -2 -2 -4t-2 -10t-2 -11q-2 -2 -3 -5t-3 -5t-8 -10t-6 -10q-2 -2 -3 -10.5t-3 -10.5q0 -2 -2.5 -5t-2.5 -5q-2 -2 -8 -10t-8 -10q0 -2 -4 -14.5t-4 -14.5q-2 -2 -8 -10.5t-9 -10.5q-2 -4 -5 -18t-5 -16q0 -4 -6 -11.5t-8 -9.5 q-8 -10 -13.5 -24.5t-11.5 -26.5q-6 -6 -6 -10q0 -2 -2 -10.5t-2 -10.5q-2 -2 -8 -10t-8 -10q-4 -8 -7.5 -16.5t-7.5 -18.5q-2 -2 -8 -10.5t-8 -10.5q0 -2 -2 -10t-2 -10t-2 -4l-4 -4q0 -2 -6.5 -10.5t-8.5 -10.5q0 -2 -2 -10t-2 -10q-2 -2 -3 -5t-3 -5q0 -2 -4 -8.5 t-6 -6.5q-8 -14 -9 -29.5t-1 -31.5zM756 621q2 -2 8 -3.5t8 -3.5l14 -14q2 -2 3.5 -16.5t1.5 -18.5q2 -2 8 -10t8 -10q0 -2 2 -5t2 -5t2 -10.5t4 -10.5q0 -2 6 -10t8 -10q2 0 3.5 -4.5t3.5 -6.5q0 -2 2 -9t2 -9q2 -4 10 -13.5t10 -13.5q0 -2 2 -12t2 -12q2 -4 10.5 -13.5 t10.5 -11.5q2 -4 3 -13t3 -14q0 -2 2 -4v-4q0 -2 2 -2q2 -2 8 -9t6 -9q2 -4 6.5 -16.5t4.5 -14.5q2 -2 8 -10t8 -10q2 -4 5 -15.5t5 -15.5q0 -2 7.5 -10.5t7.5 -10.5q2 -2 5 -14t5 -14t8 -10.5t6 -10.5q2 -4 6 -16t4 -14q8 -18 19.5 -37t21.5 -35q2 0 3 -6t3 -8 q0 -4 2.5 -17.5t2.5 -17.5h22h24.5t22.5 4l17 16q2 0 7 4t7 6h2q2 0 4 2q2 0 4 3q12 8 16.5 26.5t4.5 32.5q0 23 -7.5 40t-17.5 38q-8 14 -12 25.5t-15 23.5q0 2 -2 5t-2 5q-10 23 -20 45.5t-25 40.5q0 2 -2 4q-4 4 -4 6q-2 0 -2 2v7q-2 4 -2 6q-6 14 -13 26.5t-12 24.5 q-2 2 -6 9t-4 11q-2 0 -6 6.5t-4 8.5q-2 2 -6 12t-4 12q-2 2 -8.5 10.5t-8.5 10.5q-4 6 -12 23.5t-12 21.5q-2 4 -8.5 18.5t-6.5 18.5q-4 4 -15 25.5t-15 29.5q-2 2 -6 7t-4 7q-2 4 -5.5 15.5t-5.5 15.5q-8 18 -19 35.5t-22 34.5q-10 23 -19 42t-20 40q-4 4 -11 19t-17 34 q-10 23 -25 47h-2q-2 -2 -6 -7t-4 -7q0 -16 -1 -59.5t-2 -90.5t-2 -90t-1 -59v-2v-2zM762 1130q0 -2 4 -6t6 -4h2h2l4 4q2 4 6.5 16.5t4.5 14.5q2 2 8 10.5t8 10.5q0 2 4 14t6 16q0 2 7 10.5t7 10.5q2 2 5.5 14t5.5 14q0 2 4 8.5t6 8.5q8 12 12 25.5t13 23.5q0 6 6 6 q6 14 11 25.5t13 23.5v2q0 2 1 2t1 2t2 4t3 10.5t4 10.5q2 4 10 15.5t10 15.5l8 20t12 21q6 10 9.5 22t9.5 23q4 4 6 8q2 2 4 6q2 2 4 10t2 11q0 2 2 5t2 5q2 2 8.5 10t8.5 10q4 10 8 20.5t12 20.5l4 8q2 4 5.5 16.5t5.5 14.5q6 14 13 25.5t11 25.5q6 6 6 11 q10 14 21.5 33.5t17.5 35.5q2 2 3 10.5t3 10.5q2 4 10.5 15t10.5 15q2 2 5 14.5t5 16.5l10 10q0 2 2 4q0 2 1 3.5t1 3.5q8 18 16.5 35.5t18.5 33.5q8 10 23.5 24.5t15.5 26.5h-196v-55q-4 -4 -12.5 -13t-10.5 -13q-2 -2 -3 -12.5t-3 -12.5q-2 -4 -10.5 -13.5t-10.5 -11.5 q0 -4 -2 -13t-2 -13q-2 -2 -10 -12.5t-10 -12.5q0 -2 -2 -12t-2 -12q-2 -4 -11.5 -13.5t-9.5 -13.5q-2 -2 -3 -12.5t-3 -12.5q0 -2 -9 -12t-11 -12q0 -2 -2 -12.5t-2 -14.5q0 -2 -3 -4l-4 -4q-2 -4 -10 -13.5t-8 -13.5q-2 -2 -3 -12t-3 -12q0 -2 -7.5 -10.5t-7.5 -10.5 q-2 -2 -5 -15t-5 -15t-10 -12.5t-10 -12.5q0 -2 -2 -12.5t-2 -12.5q-2 -4 -11.5 -13t-9.5 -13q-2 -2 -3 -12.5t-3 -12.5t-10 -12t-10 -12q0 -4 -2.5 -14.5t-2.5 -12.5l-9 -9t-11 -9q0 -2 -4 -3t-6 -4v-2v-2q0 -16 1 -58t2 -89t2 -88.5t1 -57.5z" />
<glyph unicode="y" horiz-adv-x="1427" d="M524 707v272q0 8 -6 11t-8 9q-2 2 -5 14.5t-5 14.5t-8.5 10.5t-8.5 10.5q-6 10 -7 20t-7 21q-2 2 -8 10t-6 10q-2 2 -4 10t-2 10q-2 2 -3 5q-2 2 -2 6q-2 2 -8 10t-8 10q0 2 -4 14.5t-6 14.5q0 2 -6 10t-9 10q-2 4 -5 15.5t-5 15.5q0 2 -7 10.5t-7 10.5q-2 2 -5 14t-5 16 q-2 2 -8.5 9.5t-8.5 9.5q-6 10 -7 20t-7 21q0 2 -5 5t-5 5q-2 4 -5.5 15.5t-5.5 15.5q0 2 -2 5t-2 5q-2 2 -8 10t-8 10q0 2 -4 14.5t-6 14.5q0 2 -7.5 10t-7.5 11q-2 2 -3 12t-1 14q-6 6 -6 14q0 2 -7 10.5t-7 10.5q-2 2 -6 14.5t-4 16.5q-2 2 -8.5 9t-8.5 9q-2 0 -2 2v4 q-2 2 -2 4t-2 10.5t-4 10.5q0 2 -6 10t-8 10q-6 10 -6.5 15.5t-4.5 15.5t-5 10t-9 11q-2 0 -3 4t-3 6q0 2 -4 14t-6 14q0 2 -7.5 10.5t-7.5 10.5q-2 4 -5 16.5t-5 14.5q0 2 -7 10t-7 10q-2 2 -6.5 14.5t-4.5 16.5q-2 2 -8 9t-8 9q-6 16 -7 29.5t-17 21.5v142l10 10h338 q4 0 9 -8t5 -12q2 -4 3 -20.5t3 -20.5l4 -9l11 -10q2 -4 6 -16.5t4 -14.5q2 -2 3 -6t3 -4q8 -10 9 -10t5 -10t4 -15.5t6 -15.5q2 -2 8.5 -10t6.5 -11q2 -2 4 -9t2 -9q0 -4 2 -6q0 -2 2 -4t8 -10.5t8 -10.5q0 -4 4.5 -16t6.5 -14q0 -2 6 -10.5t8 -10.5t5 -14t5 -17 q0 -4 6 -10l9 -8q2 -4 5 -16.5t5 -14.5t8 -10t8 -10q0 -4 4 -15.5t4 -15.5q2 -2 3 -5t4 -5q10 -16 11 -25.5t9 -23.5q0 -2 7 -10.5t7 -10.5q2 -4 5.5 -16t5.5 -15q2 -2 8 -10t6 -10q4 -4 9 -19.5t9 -15.5h2l15.5 15.5l15.5 15.5q2 2 3 14.5t3 14.5q0 4 9.5 11t9.5 9 q2 2 3 15.5t3 15.5l20 20q0 2 2 12.5t2 12.5t2.5 6t4.5 4l2 2q0 2 4 6t8 6q2 4 3 14.5t3 12.5q0 2 2 5t2 5q2 2 10.5 12.5t10.5 12.5q0 2 2 15.5t2 15.5q2 2 10 9t10 11q2 2 3 14.5t3 14.5q0 4 9.5 11t9.5 9q2 4 3 16.5t3 14.5l20 20q2 2 3.5 14.5t1.5 16.5q2 2 10 9t10 12 q2 2 3 14t3 14q0 4 9.5 11.5t9.5 9.5q2 2 4 15t2 15q2 12 10 39t25 27h337l17 -14v-113q-12 -23 -23 -43q-10 -18 -19 -36.5t-16 -31.5q0 -2 -4 -7t-4 -7q-2 -4 -8 -22.5t-8 -22.5q0 -2 -4 -8t-6 -8t-2 -4q-2 -2 -2 -5v-2q-2 -2 -5.5 -12t-5.5 -12t-8 -10.5t-8 -10.5 q0 -2 -4 -14t-4 -16q-2 0 -6 -6.5t-4 -8.5q-2 0 -4.5 -4t-2.5 -6q-6 -12 -13 -24.5t-11 -26.5q-2 -2 -5 -14.5t-5 -14.5t-8.5 -10t-8.5 -10q-4 -10 -4 -15.5t-4 -15.5t-6 -10t-10 -10q-4 -6 -5.5 -13.5t-5.5 -17.5t-10 -14.5t-10 -14.5q0 -4 -2 -13t-2 -14q0 -2 -2 -4t-2 -4 t-2 -2q-6 -12 -11.5 -24.5t-13.5 -24.5t-13 -26.5t-12 -24.5q-2 -2 -8 -10.5t-8 -10.5q0 -2 -2 -10t-2 -10q-6 -23 -17.5 -43.5t-23.5 -40.5q-10 -23 -19.5 -44.5t-19.5 -41.5q-2 -4 -8 -13.5t-8 -13.5q0 -2 -2 -5t-2 -5q-6 -16 -11.5 -28.5t-17.5 -26.5v-959l-16 -14h-344 q-2 0 -7.5 5t-7.5 9t-4 9.5t-2 7.5v645zM541 41l14 14q2 2 8 5t6 6q2 2 5.5 8t5.5 6q0 2 2 2t4 2t4 2l10 10q0 2 2 4t2 3t2 3t6 5q4 2 9 6q6 6 15 14t18.5 17.5t15.5 16.5l6 7l8 363v14l2 516q0 2 -3 17.5t-7 21.5q0 2 -4 7t-6 9l-4 4q-10 18 -14.5 28.5t-16.5 27.5 q-4 8 -13.5 26.5t-19.5 40t-19.5 40t-13.5 24.5q-4 8 -15 29.5t-15 25.5l-3 4l-2 2q-2 4 -8 20.5t-8 20.5q-2 2 -4 6t-4 5t-2 3q-4 6 -14.5 30t-14.5 32q-2 2 -6 12t-4 12q-10 16 -20.5 33t-20.5 33q-16 31 -30.5 62.5t-31.5 64.5q-18 37 -38.5 71.5t-36.5 73.5q0 4 -4 11.5 t-7 9.5q-8 14 -16 27.5t-8 31.5q0 29 14.5 48.5t30.5 37.5l-4 6h-203v-112q4 -2 9 -9.5t7 -9.5q0 -4 4.5 -18t6.5 -19q0 -2 7 -9t7 -9q2 -4 5 -16.5t5 -14.5q0 -2 7.5 -10t7.5 -10q2 -4 6 -15.5t4 -15.5q2 -2 8 -10t8 -10q0 -2 4 -14.5t7 -14.5q0 -2 6 -10t8 -10q0 -4 2 -7 q0 -2 2 -4q4 -10 5 -15t5 -15q2 -2 8.5 -10.5t8.5 -10.5q0 -2 2 -10t2 -10t2 -5q6 -6 4 -6q0 -2 7 -10t7 -10q2 -2 5 -14.5t5 -14.5q0 -2 7.5 -10t7.5 -10q2 -2 3 -7.5t3 -9.5q0 -2 2 -12t2 -12q2 -2 8 -10.5t8 -10.5q0 -2 4.5 -14t6.5 -14q0 -2 6 -10.5t8 -10.5 q6 -10 12 -24.5t12 -26.5q6 -10 8.5 -20.5t8.5 -20.5q0 -2 7 -10t7 -11q2 -2 5 -14t5 -14t8.5 -10.5t6.5 -10.5q2 -4 6 -15t4 -15q2 -2 8 -10.5t8 -10.5q0 -2 4.5 -14t6.5 -17q0 -2 6 -9t8 -9t3 -6t3 -4q0 -2 1 -10.5t3 -10.5q0 -2 7.5 -10t7.5 -10q6 -10 6 -15.5t4 -15.5 q4 -12 12 -22.5t14 -22.5q4 -8 11.5 -17.5t7.5 -17.5v-293l-8 -30v-625zM721 1169q8 4 10 14.5t6 16.5q4 8 15.5 27.5t13.5 23.5l4 2q2 0 2 2q2 4 7 20.5t7 20.5q12 27 28.5 52.5t33.5 48.5q2 4 5 9t5 7q0 2 2 10.5t2 10.5t2 4l4 4q0 2 7.5 10t7.5 10q2 2 3 8.5t1 8.5 q2 0 5 6t5 8q6 0 6 6q2 2 8.5 16.5t6.5 18.5q16 33 35.5 64.5t35.5 66.5q0 2 2 5t2 5q16 23 27.5 45.5t23.5 44.5q8 16 16.5 31.5t18.5 30.5l2 2q2 0 2 1t2 1q10 23 21.5 45t23.5 45q2 4 8.5 14.5t6.5 12.5q2 0 8 4t6 6l20.5 20.5t20.5 18.5q10 8 18.5 10t8.5 16h-213 q-6 0 -12.5 -22.5t-8.5 -28.5q0 -2 -2 -14t-2 -16q-2 -2 -10 -12.5t-10 -12.5t-3 -12.5t-3 -12.5q0 -4 -9.5 -13t-9.5 -13q-2 -2 -3 -12.5t-3 -12.5t-10 -12t-10 -12q0 -4 -2.5 -13.5t-2.5 -13.5q-2 -2 -10 -11.5t-10 -13.5q-2 -2 -3 -12t-3 -12q0 -4 -9.5 -13.5t-9.5 -13.5 q-2 -2 -3 -12t-3 -12t-10 -12.5t-10 -12.5q0 -2 -2 -5t-2 -5t-2 -12.5t-5 -12.5q0 -4 -9 -13t-9 -13q-2 -2 -3 -12.5t-3 -12.5q-2 -4 -10.5 -13.5t-10.5 -11.5q0 -4 -2 -13t-2 -13q-2 -2 -10 -12.5t-10 -12.5q-2 -4 -4 -12t-2 -12l-39 -45v-248z" />
<glyph unicode="z" horiz-adv-x="1488" d="M96 379q16 10 27.5 34.5t23.5 41.5q10 14 19.5 26.5t19.5 28.5q2 0 4.5 4t2.5 6t2 6q0 4 1 5t1 4l20 20q10 12 15.5 27.5t15.5 27.5l20 21q6 8 7 17t8 18q8 10 17 20t17 21q2 0 4.5 4t2.5 6q6 16 12 28.5t18 26.5q2 2 10.5 9t8.5 12q2 0 4 9t2 11l2 4q0 2 2 4l16 17 q10 14 17.5 29.5t17.5 29.5q2 2 8.5 10t6.5 11q4 4 12 16t8 14q2 4 8 15.5t8 15.5q0 2 6.5 7t8.5 7q0 2 2 4t2 3t2 4q8 23 29 51q2 2 10 9t10 11q2 2 5 14.5t5 14.5q0 2 4 6t6 4q0 2 4.5 8t6.5 8t10 12.5t10 12.5v2q0 4 2 6q0 4 2 6q4 10 8.5 15.5t12.5 15.5q10 16 17 30.5 t18 31.5q2 2 8 7t8 7q2 4 9 15.5t11 15.5q0 2 6.5 14t8.5 16q10 14 20.5 27.5t20.5 28.5q0 2 2 4q0 2 1 3t1 3t2 6l4 8q0 2 9 10.5t9 10.5q2 2 6.5 12t4.5 12q2 2 8 10.5t8 10.5v2q0 2 2 4q0 2 2 4l21 20q2 2 5 14.5t5 16.5q6 12 19.5 22.5t21.5 22.5q0 2 2 6q0 2 1 4.5 t1 4.5t2 10t4 10q6 10 17.5 18.5t11.5 24.5v2q0 2 -1 3t-1 3l-2 2h-793q-2 0 -11 2t-14 7q-4 0 -7 4t-3 6v342l2 2q0 2 1 2t1 2q4 0 6 2q2 0 5 2h1261q2 -2 4 -2q2 -2 6 -2l7 -6v-373q-4 -4 -9.5 -11t-7.5 -9q-2 -4 -7 -15.5t-7 -15.5q-8 -10 -18.5 -21.5t-16.5 -23.5 q-2 -2 -8 -14.5t-8 -16.5q-8 -12 -17.5 -22.5t-17.5 -22.5q-10 -16 -20.5 -34.5t-20.5 -35.5q-10 -16 -22.5 -30.5t-22.5 -30.5q0 -2 -1 -3t-1 -5q-2 -4 -2 -6q-10 -16 -23.5 -30.5t-23.5 -31.5q0 -2 -4.5 -12t-6.5 -12q0 -4 -7 -15.5t-11 -15.5q-37 -49 -68.5 -99.5 t-62.5 -103.5q-10 -16 -23.5 -29.5t-23.5 -29.5q0 -2 -1 -3t-1 -5q-2 -4 -2 -7q-2 -2 -8.5 -10t-6.5 -10q-12 -18 -21 -33.5t-20 -32.5q-2 -2 -8 -10t-8 -10q0 -2 -4 -8t-4 -9q-2 0 -8.5 -6t-8.5 -8t-5 -12t-5 -12q-8 -16 -19.5 -28.5t-19.5 -27.5q-2 -2 -6 -10t-4 -10 q-2 -2 -10 -12.5t-10 -14.5q-10 -14 -18.5 -29.5t-18.5 -29.5q0 -2 -6.5 -8.5l-8.5 -8.5q-10 -12 -15 -26.5t-15 -28.5q-2 -2 -10.5 -12t-10.5 -12q-10 -14 -17 -30t-18 -30q-10 -14 -27.5 -35.5t-17.5 -38.5q0 -2 1 -9t5 -7h777q14 0 27.5 -5t13.5 -22v-348l-11 -10h-1261 q-4 0 -12.5 6t-8.5 8v365zM121 117q18 18 34.5 33.5t37.5 31.5q2 2 13 5t23.5 7.5t21.5 7.5t9 5v100q0 2 7 13.5t12 17.5l2 2q0 2 4 6t8 6q2 2 3 8.5t3 8.5q0 2 8 14t10 16q2 0 4.5 4.5t2.5 6.5q4 6 13 21t11 18l17 16q2 2 7 14.5t7 14.5q2 4 9 15t11 15l8.5 8.5t6.5 8.5 q2 2 8 14t8 14t8 12.5t14.5 21.5t14.5 20.5t8 11.5q8 14 14.5 25.5t16.5 25.5q0 2 8 12.5t10 12.5t6.5 10t4.5 10l10 10q10 14 18 29.5t17 32.5q12 18 25 35.5t26 33.5q10 12 15 25.5t16 26.5q2 0 8 6t6 8t2 4t2 3t2 3v2q0 4 2 6q0 4 2 7q4 4 15.5 22.5t15.5 24.5l4 4l6 6 q10 16 19.5 32.5t21.5 32.5l14 15v2q0 4 2 6q0 4 2 6t5.5 7t5.5 9l4 3q2 0 2 2q2 4 7 15t7 15t9.5 15.5t11.5 15.5q2 2 10 12.5t10 12.5q2 4 7 15t7 15q8 10 18.5 22.5t18.5 22.5q23 35 42.5 69t41.5 69q2 2 10.5 12t10.5 12q10 14 18 29.5t19 30.5q16 27 34.5 51t34.5 51 q0 2 4 10t6 8q0 2 4.5 6.5t6.5 4.5q0 2 4 10t6 10q2 4 10 13.5t10 13.5q0 2 3 6q0 4 1 5t1 3q2 4 8 15.5t10 15.5v114q0 2 4 5.5t8 5.5q12 8 23.5 7t27.5 3q6 4 32 15.5t34 15.5q4 12 12 23.5t17 21.5q10 16 11 35.5t1 35.5h-1243v-223q4 4 15 15.5t16 15.5q10 10 18 12 t23 8q2 2 14 8.5t16 6.5q4 2 14.5 4t14.5 2h868q8 0 19.5 -4t11.5 -15q0 -6 -16.5 -20t-37 -29.5t-40 -31t-27.5 -21.5l-41 -41q-2 -2 -8 -12t-6 -12q-6 -6 -6 -7l-11 -4q0 -2 -2 -10t-2 -10q-2 -4 -5 -11.5t-5 -9.5t-10 -12t-10 -12q-2 -4 -5.5 -16.5t-5.5 -14.5 q-4 -4 -20 -25.5t-21 -25.5q-2 -2 -2 -4q-2 -2 -2 -4v-2q0 -2 -2 -7l-4 -8q0 -2 -8 -10l-10 -10q-10 -12 -16.5 -26.5t-14.5 -29.5q-2 -2 -10 -12t-10 -12q-8 -12 -14.5 -25.5t-16.5 -25.5q-2 -2 -10.5 -12.5t-10.5 -12.5q-2 -4 -7 -16.5t-7 -14.5q-2 -4 -9 -15t-11 -15 q-2 -2 -10.5 -12.5t-10.5 -12.5q-8 -12 -14 -25.5t-17 -25.5q-8 -10 -11 -14.5t-7 -14.5q-2 -2 -3 -8t-3 -8q-12 -20 -27.5 -39t-23.5 -41l-45 -55q-4 -16 -9.5 -24.5t-15.5 -22.5q-12 -18 -25.5 -37t-25.5 -39q-10 -14 -17.5 -29.5t-17.5 -30.5q-10 -12 -17.5 -20t-7.5 -25 l-45 -55q-6 -31 -25.5 -50.5t-29.5 -45.5q-2 -2 -2 -3t-2 -3t-2 -4q-2 -2 -10.5 -12.5t-10.5 -12.5q-4 -4 -10 -15.5t-10 -15.5q0 -2 -4 -10t-6 -10t-9.5 -12.5t-9.5 -12.5q-10 -12 -16 -25.5t-14 -25.5q-2 -2 -10.5 -12.5t-10.5 -12.5q-12 -20 -23.5 -41.5t-27.5 -40.5 v-245zM358 203h889q10 4 27.5 7t28.5 11q23 20 42 47t19 58q0 4 -1 11t-1 11q-2 6 -12.5 9t-12.5 3h-776l-20 19l-6 -6q-20 -29 -49 -44.5t-56 -35.5q-27 -18 -47.5 -37.5t-34.5 -48.5z" />
<glyph unicode="{" horiz-adv-x="598" d="M446 1444q6 2 19 2q29 0 44 -17.5t15 -39.5q0 -18 -11 -36t-36 -28q-18 -4 -37.5 -5t-36.5 -11q-43 -23 -55 -75t-12 -112q0 -35 2 -66.5t2 -54.5q2 -31 2 -62.5v-64.5q0 -86 -15.5 -162.5t-72.5 -136.5q8 -4 15 -7t16 -7q45 -29 60 -80t15 -112q0 -76 -12 -159t-12 -155 q0 -57 14 -98q14 -39 40 -57.5t55.5 -30.5t61.5 -23.5t58 -35.5q23 -23 23 -50q0 -25 -17.5 -42t-44.5 -17q-20 0 -43 16q-16 16 -37.5 23.5t-44.5 15.5q-66 23 -101.5 56.5t-63.5 95.5q-16 35 -21.5 72.5t-5.5 78.5q0 53 7 106.5t11 100.5q0 -4 -2 -18.5t-2 -24.5 q4 31 9.5 71t5.5 79q0 53 -17 84l-25 2q-24 2 -57 8t-65.5 18.5t-48.5 30.5q-14 20 -15 43q0 37 39 55q8 2 30.5 6.5t41.5 8.5q4 4 15 13t23.5 20.5t23 22.5t16.5 22q16 29 21 59.5t5 60.5q0 16 -1 30.5t-1 31.5q-2 53 -6 106.5t-4 106.5q0 88 22.5 167t96.5 144 q23 20 54 22.5t60 8.5z" />
<glyph unicode="|" horiz-adv-x="151" d="M10 1534q4 33 22.5 49t41.5 16t39 -15t20 -48q0 -514 4 -1020t4 -1020v-4q0 -2 -2 -4q-2 -12 -10 -23l-4 -4q-6 -8 -14 -14q-4 0 -5 -2l-18 -6h-12q-8 0 -21 4q-8 4 -12 8q-10 4 -12 12q-8 8 -13 27q0 514 -4 1022t-4 1022z" />
<glyph unicode="}" horiz-adv-x="645" d="M80 1329q-33 0 -51.5 18.5t-18.5 43.5q0 16 8.5 31.5t30.5 25.5q10 4 22.5 6t22.5 2q23 0 44.5 -7t43.5 -17q63 -27 102.5 -56.5t61 -62.5t28.5 -68t7 -71q0 -43 -5 -89.5t-5 -95.5q0 -39 6 -80t22 -84q14 -39 41 -63.5t55.5 -39.5t56.5 -23.5t44 -14.5q39 -20 39 -57 q0 -18 -12.5 -35t-34.5 -27q-55 -2 -88 -22.5t-51.5 -54t-24.5 -77.5t-6 -92q0 -47 3 -93t3 -87q0 -49 -6 -113.5t-26.5 -124t-59.5 -104.5t-105 -57q-31 -6 -61.5 -10t-61.5 -11q-35 0 -52 18.5t-17 41.5q0 20 14 38.5t43 24.5q27 4 48.5 5t39 6.5t33.5 14.5t35 30 q39 41 49 107.5t10 144.5q0 41 -1 81.5t-1 81.5q0 96 16.5 182.5t81.5 137.5q-55 43 -98 106.5t-49 126.5q-2 8 -2 16.5v18.5q0 41 4 95.5t4 107.5q0 59 -10 109.5t-41 70.5q-29 18 -55.5 27.5t-55.5 21.5h-6q-4 0 -6 -1t-8 -3z" />
<glyph unicode="~" horiz-adv-x="1153" d="M131 449q-8 -29 -25.5 -42.5t-37.5 -13.5q-23 0 -40.5 16.5t-17.5 49.5v8q12 53 53 109.5t97.5 102.5t121 75.5t126.5 29.5q59 0 106 -32q27 -20 59.5 -61.5t65.5 -82.5t64.5 -73.5t56.5 -34.5h8q47 0 86 27.5t73 67.5t62.5 82t57.5 73q25 10 38 10q27 0 42.5 -15.5 t15.5 -39.5q0 -23 -13 -43q-33 -35 -69.5 -84.5t-79.5 -95.5t-92 -77.5t-107 -31.5q-10 0 -19 1t-20 3q-68 14 -113.5 60t-82.5 95.5t-74 88t-88 38.5q-35 0 -77 -21.5t-97 -72.5q-29 -27 -49.5 -52t-30.5 -64z" />
<glyph unicode="&#xa1;" d="M55 346q20 20 26.5 44t27.5 42l817 817q6 14 17 29.5t15 30.5q0 2 1.5 12t5.5 14q0 8 10 15q0 6 2 8q0 2 2 4v237q-10 10 -20.5 28t-20.5 26q-10 2 -27.5 7t-21.5 5h-385q-2 -2 -4 -2t-4 -1t-4 -1q-10 -6 -24.5 -17.5t-23.5 -23.5q0 -2 -1 -12.5t-3 -14.5q-4 -14 -18 -16 t-25 -2q-12 0 -22 1t-23 7q-4 0 -16 7t-17 9q-4 0 -21 1.5t-19 5.5q-16 2 -27.5 9t-26.5 11q-4 0 -19.5 1t-17.5 5q-4 0 -13 1t-9 3q-2 0 -10.5 7.5t-10.5 9.5q-6 2 -21 2t-30.5 3t-27 8t-11.5 15v60q0 8 6.5 12t10.5 8v2q0 2 2 4q0 2 2 5q0 4 3 16t3 16q0 2 6 8.5t10 6.5 q4 6 7.5 17t3.5 15l137 138q2 0 12 1t14 5q2 2 12.5 10t14.5 10q2 0 13.5 3t13.5 3q10 2 21 11.5t22 9.5h680q14 -18 33.5 -19.5t37.5 -13.5q16 -10 43 -23.5t41 -27.5q4 -4 13.5 -12.5t19.5 -18.5t18.5 -19.5t12.5 -13.5q6 -16 22.5 -37.5t26.5 -37.5q4 -10 6 -22.5 t8 -24.5q4 -10 10.5 -19.5t6.5 -23.5v-506q-2 -4 -2 -6q-4 -8 -5 -9q-2 -4 -8 -17t-6 -15t-3 -10.5t-3 -10.5t-2 -5t-2 -5q-4 -2 -6 -4q-6 -4 -6 -8q-2 -2 -7.5 -15.5t-7.5 -15.5q-4 -4 -22.5 -26.5t-26.5 -33.5q-6 -4 -14 -12t-13 -18l-583 -586q-4 -2 -9.5 -10t-7.5 -10 v-7v-10t4 -8h693q8 0 17 -9.5t13 -13.5q4 -6 5.5 -32.5t1.5 -34.5v-131v-133q-4 -27 -27 -27h-1239q-2 0 -9 1t-12 5q-4 0 -4 2q-2 0 -2 2v336zM82 117h6q2 4 7 15t7 15q8 12 20.5 15.5t22.5 11.5q2 4 7 8q4 4 6 5t4 3q2 0 17.5 4.5t19.5 6.5q4 0 10 3t10 7q25 4 50.5 5 t49.5 1l7 6v23.5t1 37t2 36t1 22.5t2 20.5t4 16.5q0 4 7 13t9 18q0 4 1 15t3 11q0 4 9.5 13.5t13.5 9.5l4 8q2 4 4 6q0 -2 6 4q2 0 4 2q10 8 11.5 14.5t15.5 12.5l201 201l10 6l176 174l25 22l180 176q10 6 28.5 20.5t28.5 22.5q10 10 8 10.5t13 10.5l2 2q0 2 2 4 q12 23 21 38t32 36l12 57l11 12l4 64l-4 270q-14 4 -15.5 20.5t-11.5 28.5q0 2 -4 6.5t-6 4.5q-4 4 -6.5 17t-8.5 13q-4 0 -11 -8t-13 -12q-2 0 -14.5 -3t-16.5 -7q-2 0 -11 -6.5t-14 -8.5q-8 0 -14 -6q-4 0 -19.5 -1t-19.5 -5q-8 0 -7 -7t1 -11q0 -16 14.5 -26.5 t14.5 -27.5v-231l-4 -4q-2 -2 -2 -8q-10 -10 -14.5 -18.5t-6.5 -22.5l-4 -9q-2 -4 -2 -8q-2 -2 -8 -10t-6 -10q-4 -4 -5.5 -11.5t-1.5 -11.5q-2 -2 -12 -14t-14 -16l-803 -803q-16 -18 -23.5 -39t-23.5 -41v-219zM588 381q-10 0 -11.5 -9.5t-9.5 -13.5q-18 -10 -40.5 -19 t-39.5 -22q0 -4 -6 -4q-2 -4 -15 -8t-15 -4q0 -2 -2.5 -6t-4.5 -4q0 -2 -9 -11.5t-11 -9.5q0 -2 -2 -6t-4 -4q0 -4 -6 -7t-11 -3q-2 -4 -3 -13.5t-1 -13.5h830q10 0 23.5 11.5t27.5 15.5q0 4 4 15t8 16q2 0 8.5 7t6.5 9q4 0 5 4t1 6q2 10 4 19.5t2 19.5v6q0 2 -4 5t-8 3 h-691q-4 8 -10 14.5t-16 6.5zM145 1681q0 -2 2 -2l5 -2q2 -4 10 -9t10 -7q18 23 39.5 30t40.5 27q0 10 4 11q0 4 7 10t9 6q4 8 7.5 17.5t9.5 15.5q0 2 4 7t6 7q0 4 4 13.5t6 9.5q0 2 4 3t6 1q0 4 4.5 8t6.5 4q0 2 2 6t4 4q4 0 8 2q4 0 6 1t6 1t14.5 3t12.5 3l14 11 q4 2 18.5 4t18.5 2h555q4 0 19.5 -2t19.5 -4q2 -4 6 -7l8 -4q10 -4 15.5 -4t15.5 -6q4 -4 9 -10t14 -6q10 0 12 12t2 14q6 6 21.5 22.5t19.5 20.5q2 0 4 1t4 1t4 2q2 0 10.5 3.5t10.5 3.5l2 4q0 2 2 6q4 2 8 5t4 5q-6 10 -23.5 19.5t-29.5 17.5l-8 4q-2 0 -6 4l-3 2 q0 4 -9 10.5t-11 6.5q-4 2 -21.5 2t-21.5 4q-2 2 -11 9t-14 11h-673q-16 -16 -28.5 -17t-31.5 -9q-2 0 -10 -9q-4 -4 -10 -8q-6 -2 -17.5 -3t-15.5 -7l-121 -121l-4 -4q-2 -2 -2 -4v-2q-2 -4 -2 -8q-2 -2 -2 -6v-2q-4 -4 -10 -11.5t-6 -11.5q0 -2 -3.5 -12.5t-3.5 -12.5 q-2 -2 -2 -4q-2 -2 -2 -8q-4 0 -10 -9t-6 -11v-25v-22q2 0 7 -3.5t9 -3.5h47z" />
<glyph unicode="&#xa2;" d="M59 373q0 2 2 4t2 3t3 3q4 8 12 8t18 2q4 0 21.5 2t21.5 4q2 0 4 2q2 0 3 1t4 1q2 2 8 6.5t8 6.5q6 0 12 2q4 0 10.5 1t10.5 1t20.5 2t20.5 4q4 0 11 7t11 9q4 0 23.5 2t23.5 2q25 4 41.5 15.5t44.5 11.5h21q2 0 3 -2t3 -2q0 -4 4 -19.5t6 -19.5q6 -10 21.5 -25.5 t31.5 -15.5h430q4 0 19.5 3t23.5 7q8 2 10.5 19.5t6.5 27.5v330q0 20 -18.5 41t-41.5 21h-376l-7 6q-8 8 -10 12q0 4 -6 10q0 2 -1 4t-1 7q-2 4 -2 6v299q2 6 6 12q4 4 5 9t5 9q2 4 5.5 9.5t5.5 5.5h393q6 6 12 14q4 6 10.5 11t10.5 10q4 4 7 18t3 18v320q0 29 -27.5 46 t-52.5 17h-389q-2 0 -14.5 -6t-16.5 -10q-12 -8 -19 -20.5t-13.5 -24.5t-15.5 -21.5t-28 -9.5q-12 0 -24.5 1t-22.5 5q-2 0 -8 5.5t-8 5.5q-2 2 -9.5 3t-11.5 3q-16 4 -27.5 4t-25.5 6l-33 16q-4 2 -21.5 3t-21.5 4q-12 2 -18 6t-18 8q-6 2 -21.5 4t-31 6t-27 10.5 t-11.5 18.5v84q0 8 9.5 15t11.5 11t3 16.5t3 16.5l8 8t8 6q2 4 5.5 12.5t5.5 10.5q18 29 41.5 53.5t48.5 46.5q20 8 40.5 22.5t39.5 27.5q16 10 31.5 13t31.5 13q4 0 6 2q2 0 4 2h688q10 0 16.5 -6t14.5 -10q2 0 7 -2t10 -2q2 0 13 -2t13 -4q2 0 10.5 -7.5t10.5 -9.5 q4 0 14 -4t12 -6q2 0 8.5 -7t8.5 -9q31 -29 62.5 -55.5t53.5 -61.5q2 -4 8.5 -13.5t12.5 -20.5t11 -21.5t5 -12.5q6 -20 9.5 -34.5t13.5 -30.5v-553q0 -2 -2 -6q-4 -8 -4 -11q-4 -10 -8.5 -22t-8.5 -25q-6 -20 -26.5 -44.5t-20.5 -43.5v-8q2 0 8.5 -4t8.5 -6q20 -20 26 -41 t17 -43q0 -2 2 -6t2 -6l4 -9q2 -4 2 -6v-586q0 -2 -2 -6q-4 -8 -4 -10t-5.5 -13t-5.5 -14q-4 -14 -4 -25t-6 -22q-29 -53 -62.5 -94t-80.5 -76q-6 -6 -12 -6q-4 0 -9 -2q-2 -2 -4 -2t-2 -2q-2 0 -10 -7t-12 -7q-4 -2 -18.5 -6t-18.5 -7q-2 0 -13.5 -4t-13.5 -6q-4 -2 -9 -3 t-9 -3l-13 -4h-649q-18 0 -30.5 5t-28.5 11q-2 0 -7 2t-10 2q-4 2 -18 6.5t-18 6.5q-2 0 -14.5 8t-16.5 12q-23 16 -46.5 31.5t-39.5 38.5q-4 4 -11.5 15.5t-9.5 15.5q-2 2 -6 11t-6 11q0 2 -9 10.5t-11 10.5t-3 8t-4 8q-2 0 -2 2v4q-2 2 -2 4q-2 2 -8 10.5t-8 10.5 q-2 4 -3 12t-3 10q-4 8 -9 18.5t-12 18.5v70zM86 309q0 -10 9 -16t11 -17q2 -2 3.5 -10t3.5 -10q0 -2 6 -10t10 -13l4 -4q2 -2 3 -11t3 -11t11.5 -12.5t9.5 -14.5q2 0 3 -7t3 -7q0 -2 8 -12.5t12 -14.5l7 -6q2 0 8 2t8 4q4 0 23.5 2t23.5 2q16 4 23.5 9.5t19.5 13.5l4 4 q4 18 5 32.5t1 30.5q0 12 -7 19.5t-14 15.5t-14.5 19.5t-7.5 27.5v15q2 2 6 10t4 10q2 4 4.5 16.5t2.5 16.5q4 10 13 15t9 14q0 2 -2 4l-4 4h-2q-29 0 -38 -12.5t-30 -14.5q-4 0 -23.5 1t-23.5 -1q-4 0 -21.5 -10t-21.5 -10q-6 -2 -26.5 -4t-26.5 -2v-58zM410 223 q14 0 53 -1t81 -2t80 -2t52 -1h170h172q4 2 20.5 4t20.5 2q6 0 12 6q0 2 2 4q0 2 1 3.5t1 3.5q4 4 19.5 18t17.5 18q2 2 6 13.5t4 13.5q2 2 9.5 10.5t7.5 10.5q2 4 4 13t2 13v449q0 4 -2 24.5t-4 28.5q-2 6 -7.5 13t-13.5 7l-8 -5t-18.5 -11t-18.5 -12t-8 -8l-80 -11l10 -22 v-393q0 -8 -13 -25.5t-24 -17.5h-495q-37 0 -44 -17.5t-20 -46.5q-4 -10 -18 -26.5t-25 -26.5q16 -4 29 -14.5t25 -12.5zM555 1202q-2 0 -5 -4t-7 -6q-2 -2 -6 -10q-2 -4 -5 -6v-224q2 4 5.5 18.5t5.5 18.5l5 5t7 5q0 2 4 3.5t6 3.5t5 11t5 9q0 2 7.5 3t9.5 3q6 4 13 14.5 t18 10.5h282q16 16 38 17t42 11q2 0 8 7.5t8 9.5q2 0 5 2q2 0 3 1t3 1q2 2 8 4t8 2q10 4 26.5 14.5t26.5 16.5q16 14 27.5 38.5t30.5 30.5l6 54v415l-6 54h-2l-9 -7q-8 -6 -17 -14t-17.5 -14t-12.5 -8q-23 -10 -43 -10.5t-37 -22.5q-6 -6 -6 -10v-387q0 -2 -2 -6.5t-2 -6.5 l-25.5 -25.5t-17.5 -15.5l-16 -6h-377zM86 1735q2 -6 5 -6h7h8q6 0 22.5 1t35 2t34 2t21.5 1q2 0 5 2t5 2l24.5 24.5t22.5 24.5q2 4 5.5 13t7.5 14q14 14 24.5 27t28.5 20q2 0 6 2l8 4q2 0 6.5 7t6.5 7q0 2 4 4t6 2q20 4 28.5 4t24.5 13h526q16 -10 32 -11.5t32 -5.5 t21.5 -9t15.5 -11q2 -2 11 -4t11 -2q4 0 9.5 -2t5.5 -5q2 0 4 -4t2 -6h6q2 0 15.5 9.5t15.5 13.5q2 0 2 2l2 4t2 8t2 7t2 5q14 16 31.5 20.5t17.5 16.5v4l-49 50q-14 -4 -19.5 6t-17.5 14q-2 2 -15.5 4t-15.5 2q-10 2 -18 11.5t-19 9.5h-682q-8 0 -15 -9.5t-11 -11.5 t-21.5 -3t-21.5 -3q-6 -2 -16.5 -11t-21.5 -18.5t-20.5 -15.5t-15.5 -2l-80 -80q0 -20 -8 -25.5t-18 -21.5q-2 -4 -3 -12.5t-4 -10.5q0 -2 -2 -5t-2 -5q-2 -2 -9 -10t-7 -10t-1 -10.5t-1 -12.5q0 -2 1 -10t1 -10z" />
<glyph unicode="&#xa3;" d="M678 483q0 2 -3 3t-5 3l-4 5q-6 6 -7 4h-616q-2 4 -4 6l-6 6t-6 12v330q0 16 17 39.5t26 40.5q0 2 4 12t6 14q0 2 7 10.5t9 10.5t5 15.5t5 17.5q2 2 11.5 10t9.5 10q2 2 3 13.5t3 13.5q0 2 7 8t10 8q2 2 5 15.5t5 15.5q0 2 7 11t9 11q0 2 2 5q0 2 1 3t1 3q2 2 3 8t3 8 q0 2 7.5 10.5t9.5 10.5q0 4 4 16t6 16q8 16 20.5 31.5t22.5 32.5q0 2 2 10t2 10q2 2 11.5 10.5t11.5 12.5q0 2 1 15t3 16q2 2 11 10t11 12q0 2 4 15.5t6 15.5q0 2 7.5 10t9.5 12q0 2 2 10.5t2 10.5q2 2 8 10t8 10q0 4 6 11q10 29 31 59q2 2 8.5 10t8.5 10t3 11.5t3 11.5v2 q0 2 2 4q0 2 2 4l16 17q2 2 5 15t5 15l17 17q0 2 2 6t2 6t2 4q2 12 5 17.5t6 10.5t7.5 10t8.5 15q0 2 2 8.5t2 8.5q10 16 21 33.5t22 35.5q0 2 2 6q4 8 4 9q0 4 9 14t11 12q0 2 2 11.5t4 11.5q4 10 10.5 15t10.5 15q0 2 2 11.5t4 11.5q0 2 9.5 10t11.5 11q0 2 2 13t4 13v2 q0 2 2 4q0 2 2 4l16 17q0 2 2 13t2 13q2 2 9.5 8.5t7.5 8.5q4 4 7 12t9 8h352l11 -10q0 -2 4 -6l4 -4v-1166l12 -8h256l4 -65v-289l-10 -12h-234l-28 -9v-446q0 -29 -25 -43h-133h-133q-8 0 -20.5 1t-24.5 2t-21 2l-8 1l-14 10v467zM739 586q0 -10 -6 -17q0 -2 -7 -8t-7 -8 q-2 0 -3 -10.5t-3 -16.5q-2 -8 -4 -21t-2 -16v-446q0 -6 6 -6h16q10 0 21.5 1t21.5 5q0 2 2 4q0 2 1 3t1 3l21.5 21.5l21.5 21.5q2 2 5 12.5t5 14.5l5 4l6 6q2 0 2 2t2 4l4 4v537q0 8 7 19.5t11 11.5h330l39 8q6 12 17.5 19t13.5 18q2 4 4 9t2 7q10 16 18 24.5t8 28.5v4 q-6 6 -10 7h-239q-10 0 -32 -5.5t-32 -11.5l-16 -16q-2 0 -3 -1t-5 -1q-4 -2 -9 -2q-2 -2 -6 -11.5t-4 -11.5q-8 -14 -16 -23.5t-17 -23.5h-20h-23q-4 0 -6 2q-2 0 -4 2l-10 1032q-2 0 -3 -4t-3 -6q0 -2 -2 -10t-2 -10q-2 -2 -8.5 -11.5t-8.5 -11.5q-6 -10 -10 -20.5 t-10 -20.5q-6 -6 -6 -12q-4 -12 -4.5 -26.5t-6.5 -26.5q-2 0 -6 -9q-2 -4 -4 -6q-8 -16 -9 -32.5t-7 -32.5q-2 -2 -6.5 -10.5t-4.5 -10.5q-8 -20 -7 -42.5t-9 -41.5q-2 -4 -5 -7l-5 -5q-2 -4 -4 -20.5t-2 -20.5q0 -6 -1 -17.5t-2 -23.5t-2 -22.5t-1 -12.5q0 -23 -1 -82 t-1 -126.5t-1.5 -127t-1.5 -84.5l-32 -34h-217l-54 -13q-4 -12 -10 -15t-16 -11q-4 -4 -18.5 -16.5t-18.5 -16.5q-2 2 -9.5 -7t-15.5 -21.5t-14 -25t-6 -18.5h502l8 -4q8 -4 12 -4q6 -2 14.5 -7t8.5 -11v-2l-6.5 -6.5t-4.5 -6.5q-4 -2 -17 -7t-15 -7q-4 -4 -11.5 -11 t-16.5 -15.5t-16.5 -16.5t-9.5 -10zM707 2032q-20 0 -24.5 -20.5t-12.5 -33.5q-12 -16 -25.5 -39.5t-21.5 -44.5q-2 -2 -3.5 -6t-3.5 -6q0 -2 -7 -10t-7 -10q-2 -2 -4 -13.5t-2 -13.5l-16 -16q-20 -25 -31 -54l-4 -8q-2 -4 -2 -6q-2 -4 -11.5 -14.5t-9.5 -12.5q-2 -4 -4 -14 t-2 -12q-2 -4 -11 -14.5t-9 -12.5q-2 -2 -1 -8t1 -8q-2 -2 -3 -5t-4 -5q-2 -4 -11 -14.5t-9 -12.5q-2 -2 -3 -11.5t-3 -11.5t-8 -10t-9 -10q0 -2 -2 -11.5t-2 -11.5q-10 -16 -24.5 -30.5t-24.5 -32.5q0 -2 -2 -10.5t-2 -10.5q-2 -2 -3 -6t-3 -4q-2 -2 -8 -11t-8 -11 q0 -2 -2.5 -10.5t-2.5 -10.5q-2 -2 -3 -6t-3 -4q-2 -2 -8 -11.5t-8 -11.5q0 -2 -2 -10t-2 -10q-2 -4 -11.5 -13.5t-11.5 -13.5q0 -2 -2 -13t-2 -13q-2 -4 -11 -14.5t-11 -12.5q0 -2 -2 -8t-2 -8q-2 -2 -3 -5.5t-4 -5.5q-10 -16 -24 -30.5t-19 -32.5v-10q-2 -8 -10 -18.5 t-10 -14.5q-2 -2 -3 -8t-3 -8q0 -2 -2 -5.5t-2 -5.5q-2 -2 -9.5 -10t-7.5 -10q-2 -4 -3 -14.5t-3 -12.5q0 -4 -9 -14t-11 -12t-3 -6.5t-3 -6.5q0 -2 -2 -10t-2 -10q-2 -2 -9.5 -10.5t-7.5 -10.5q-2 -2 -3 -8t-3 -8q0 -2 -9 -13.5t-12 -13.5q-2 -2 -3 -13t-3 -13 q0 -2 -9 -10.5t-11 -10.5t-6 -11t-4 -11q-2 -2 -6.5 -8.5t-4.5 -8.5q-2 -2 -2 -3t-2 -3t-2 -4v-248q12 0 28.5 24.5t41.5 33.5q2 0 10 2t10 2l11 10q10 6 19 7t20 5q6 0 8 2q2 0 4 2v107q2 0 15 23.5t27.5 53t28 56.5t17.5 33q10 20 19.5 39.5t23.5 40.5l6 6l8 8q2 4 4 14 t2 13q2 4 11.5 14t9.5 12q2 4 4 14.5t2 12.5l16 16q0 2 2 5t2 5q2 4 3.5 14.5t3.5 12.5l16 16q6 10 6 23.5t10 19.5q8 6 10.5 8.5t4.5 12.5q0 4 4 16q2 6 2 11l16 16q0 2 2 11t2 11l4 9q2 2 2 6q0 2 7.5 8t9.5 8t5 15.5t5 17.5q0 2 7 7t9 9q0 2 2.5 10.5t2.5 10.5q2 4 4 9 t2 7l4 4l6 6q2 0 3 4.5t3 6.5q0 4 4 16t6 16q0 2 7.5 7.5t9.5 7.5q0 2 2 11t2 11q4 12 11 18.5t11 18.5q0 2 2 10.5t2 10.5q2 4 11.5 14t11.5 12q2 4 3 18.5t7 20.5l10 4q8 8 9.5 20.5t7.5 22.5q2 2 8 10.5t8 10.5q4 6 14.5 28.5t20.5 46t19.5 43t13.5 21.5l12 6t10 4 q8 2 32 4t32 2q4 23 13 37.5t20 36.5q4 8 14 22.5t16 20.5q8 6 14.5 8t6.5 13h-223zM469 879q4 -12 14 -13h187v373l-4 6q-4 -2 -9.5 -12t-12.5 -24.5t-13 -27t-8 -16.5q-10 -18 -22.5 -36.5t-20.5 -38.5l-5 -15q-2 -2 -9 -11t-7 -11q-2 -2 -6 -12.5t-4 -14.5q-2 -2 -8 -10 t-9 -10q-2 -2 -3 -5.5t-3 -5.5q0 -2 -2 -8t-2 -8q-2 -2 -8 -10t-8 -11q-2 -2 -3 -6t-3 -6l-4 -14q-2 -2 -9.5 -11.5t-7.5 -11.5q-2 -4 -6 -15t-4 -15z" />
<glyph unicode="&#xa4;" d="M53 336q0 12 1 25.5t16 21.5q4 2 11 6t9 4q4 2 29.5 6t30.5 4q2 2 8 6.5t8 6.5q12 6 28.5 6t28.5 4q10 2 18.5 7t18.5 9q16 6 34.5 8.5t35.5 6.5q16 4 26.5 10t28.5 6h18q2 0 6.5 -4t6.5 -6q0 -4 2 -18.5t2 -18.5q16 -10 26.5 -23.5t32.5 -13.5h430q2 0 12.5 1t14.5 3 q27 6 28 24.5t9 39.5v293q0 25 -11.5 55.5t-41.5 30.5h-431q-16 0 -28 -9.5t-21.5 -22.5t-16.5 -27.5t-13 -26.5h-9h-8q-10 2 -31.5 6t-25.5 4q-4 2 -16.5 9t-16.5 7q-2 2 -15.5 4t-17.5 2q-14 4 -25.5 10.5t-25.5 10.5q-4 0 -14 3t-12 3q-4 0 -12.5 2t-10.5 2q-2 2 -15.5 9 t-15.5 7q-23 8 -50.5 11.5t-35.5 31.5v35q0 25 2 47.5t23 40.5v95q6 10 14 20t8 23q0 2 1 15t2 27.5t2 26.5t1 17q2 16 10.5 31.5t10.5 31.5q0 2 1 15.5t2 27.5t2 26.5t1 16.5q0 8 6 19.5t11 17.5q10 23 10 50.5v49.5l24 43v97q23 35 21 68.5t8 74.5q0 2 7 14.5t9 16.5 q0 2 1 13t1 24.5t1 23.5t1 14q2 4 3.5 16.5t3.5 14.5q0 4 7 16.5t9 16.5q0 2 1 13t1 23.5t1 24t1 13.5q2 4 3 11t3 11l4 4h1071l11 -10v-340l-6 -6q-2 -2 -3.5 -2t-3.5 -2l-4 -4h-536l-27 -11h-186q-6 0 -6 -8q0 -4 -5.5 -21.5t-5.5 -21.5q-2 -4 -8 -23.5t-8 -23.5 q0 -2 -1 -12t-1 -21.5t-1 -22.5t-1 -13q-4 -16 -8 -23.5t-9 -24.5q-2 -4 -4 -13t-2 -13q0 -2 -1 -12.5t-1 -21.5t-1 -22.5t-1 -13.5q0 -4 -4 -15t-7 -24.5t-7 -26t-4 -14.5v-24v-29q0 -4 2 -8t4 -4h506q18 -18 47 -25q2 0 15 -2t16 -4q2 0 6 -4l6 -6q8 -6 18 -7t19 -10 q2 0 8 -7t8 -7q2 -2 12.5 -8t14.5 -8q35 -23 56.5 -50.5t49.5 -62.5q12 -16 23.5 -32.5t17.5 -35.5q4 -10 13.5 -34.5t9.5 -34.5v-565q-4 -4 -9.5 -22.5t-7.5 -25.5q0 -2 -2 -13t-4 -13q0 -2 -7 -10.5t-7 -10.5q-6 -10 -8 -19t-9 -17q-49 -68 -116 -119q-2 0 -6.5 -4 t-6.5 -7q-4 -4 -8 -6t-6 -4t-11 -3t-11 -3q-2 0 -10.5 -7t-10.5 -7q0 -2 -6 -3t-10 -3q-20 -6 -41 -16.5t-43 -10.5h-623q-4 0 -18.5 2t-20.5 4q-2 0 -12 4t-14 6q-2 0 -7.5 2t-7.5 2q-4 2 -19.5 6.5t-19.5 6.5q-2 0 -10 7t-10 7q-2 2 -10.5 6t-10.5 6q-57 33 -96 91 q-2 2 -3 8t-3 8q-6 16 -18.5 31.5t-22.5 31.5q-6 6 -6 11q0 2 -2 15t-4 15q-2 12 -6.5 17.5t-7.5 10.5t-5 13.5t-2 24.5zM78 319q0 -6 2 -10t11 -14t9 -12q2 -4 3 -19.5t3 -19.5q4 -16 18.5 -31.5t25.5 -32.5q0 -2 4 -10t6 -10q2 -4 8 -9.5t8 -7.5h8q20 0 27.5 3.5 t21.5 13.5q10 6 21.5 6t15.5 10q2 2 6.5 10.5t6.5 10.5q8 16 14 27.5t6 31.5t-3 18t-17 9q-2 0 -8.5 7t-8.5 7q-4 2 -23.5 8t-23.5 8l-6 6q-4 2 -9 6.5t-7 4.5t-9.5 2t-16.5 4t-17.5 3t-10.5 1q-8 4 -13 8t-13 8q-4 2 -17 6q-6 2 -10 5l-10 -11q0 -2 -1 -9t-1 -11v-17z M346 283q0 -2 2 -4q0 -2 2 -3q2 0 8.5 -4t8.5 -6q6 -6 7 -8t2 -3l3 -3t10 -8q4 -4 7 -11.5t7 -9.5l43 -6h490q4 0 18.5 2t18.5 4q10 2 12 6t10 11q6 4 15.5 6t15.5 4q4 2 12.5 9t16.5 16.5t15 16.5t9 11q2 2 8.5 15.5t8.5 17.5l4 4l6 6q2 2 6 15.5t4 15.5q4 10 10.5 16 t6.5 17v409q0 2 -2.5 10.5t-2.5 10.5l-6 6q-8 12 -7 21.5t-3 25.5q0 6 -6 12h-2h-2q-10 -10 -24.5 -25.5t-28.5 -23.5q-16 -10 -32 -14t-28 -23v-4v-6q0 -6 2 -26.5t4 -26.5v-303q-2 -4 -4 -16.5t-2 -16.5q-2 -8 0 -10t-4 -11q-4 -6 -14 -16t-13 -10q-4 -2 -16 -4t-16 -2 h-473q-4 0 -11 6q-6 4 -22.5 18.5t-20.5 18.5q-16 -10 -20 -23.5t-12 -30.5q-2 -2 -8.5 -12t-8.5 -14t-3 -23.5t-1 -23.5zM80 928q0 -6 -1 -16.5t7 -18.5h2q14 0 32.5 9t38 21.5t36 28t24.5 27.5q10 16 17.5 34.5t19.5 35.5q2 0 4 2q2 0 3 1t3 1h707q4 0 16 -2t17 -2 q0 -2 2 -5q2 -2 4 -2q4 -2 11 -6t9 -4q2 -2 15.5 -3t17.5 -3q2 0 8 -6t6 -8l6.5 13t4.5 11q2 4 4 7.5t2 5.5h2q2 0 4 2q2 0 4 2t6 11t4 11q2 0 6 2t6 2q0 2 2.5 3t2.5 3q6 10 6 12.5t10 8.5q4 2 11 6t9 4q-2 2 -9 6t-11 6q-2 2 -12.5 10.5t-14.5 10.5q-2 2 -10 3t-10 3 q-2 0 -10.5 7t-12.5 7q-2 2 -12 4.5t-14 2.5q-4 2 -12.5 3t-8.5 3q-2 0 -10 7t-10 7q-4 2 -13.5 4t-13.5 2h-485q-10 -6 -25.5 -9t-21.5 -7q-43 -16 -84 -42t-60 -69h-49v41l10 12l13 107l14 31l12 129q0 4 5 10t10 10q0 6 1 18.5t2 27t2 27.5t1 17q2 14 2 27.5t8 26.5 q6 0 6 6q0 2 2 9t2 11q0 6 2 23.5t4 38t4 38t2 23.5l15 31l12 129l14 14q8 8 13 8h770q2 0 7 3t9 5q10 6 21.5 11.5t21.5 11.5q0 2 2 4q0 2 1 3t1 3l43 43q0 2 2 4t2 3t2 4q4 4 16.5 7t14.5 3v2v4q0 4 -1 9t-1 9q-2 6 -2 13h-1028l-4 -4q0 -6 -2 -27t-4 -27q0 -4 -2 -12 t-2 -10q-6 -12 -13.5 -17.5t-9.5 -19.5q-2 -23 1 -53.5t-11 -53.5q0 -2 -5 -8t-5 -8q-2 -2 -4.5 -12.5t-2.5 -14.5v-79q-25 -35 -25.5 -74t-4.5 -80q-16 -14 -19.5 -32.5t-3.5 -38t-1 -40t-13 -39.5q-2 0 -5 -4t-3 -6v-106q-23 -18 -23 -35t-2 -45q0 -6 -2 -26.5t-4 -26.5 q-2 -16 -8 -24.5t-13 -23.5v-59q0 -6 -2 -19.5t-4 -17.5q0 -2 -7 -10t-7 -10q-6 -10 -6 -20.5v-20.5z" />
<glyph unicode="&#xa5;" d="M72 1735q2 4 5 15t5 15q2 10 1 28.5t9 31.5q2 0 6 4t4 6q2 4 6.5 16.5t4.5 16.5q10 14 18 17t8 20l76 73q2 2 10 5.5t11 5.5q2 2 8 9t8 7q2 2 13 6t14 4q2 2 10 9.5t10 7.5q4 2 19.5 3t17.5 3q2 0 6 2t6 2q0 2 7 6t7 6q4 0 7.5 2t5.5 2h723q23 -16 43 -20q2 0 15 -2 t15 -4q4 0 12.5 -7.5t10.5 -9.5q2 0 12.5 -4t14.5 -6q2 0 8 -7t6 -9q45 -35 80 -80q2 0 9 -6.5t7 -8.5q2 -4 3 -14t3 -12q0 -2 4.5 -10.5t6.5 -12.5l10 -14q2 -4 4 -21.5t2 -21.5q4 -18 12 -36.5t8 -35.5v-8q-4 -4 -15 -16.5t-15 -16.5q-2 0 -10.5 -2t-12.5 -2 q-4 -2 -21.5 -3t-21.5 -3q-2 -2 -15 -8t-16 -8q-10 -4 -26.5 -6.5t-26.5 -4.5q-2 0 -8 -2t-8 -4q-2 0 -10.5 -4t-10.5 -6q-2 0 -10 -2t-12 -2q-4 -2 -18.5 -3t-18.5 -3q-2 -2 -15.5 -8.5t-15.5 -8.5q-12 -4 -21 -5t-24 -1q-4 0 -18.5 1t-16.5 12q-4 8 -4 20t-8 23 q-2 4 -9 11t-11 9q-4 4 -14.5 10t-12.5 6h-420q-2 0 -14 -6t-19 -10q-31 -18 -30 -53v-385h583q2 0 7.5 -3t9.5 -5q2 -2 8 -6.5t8 -4.5q2 -2 9 -3t12 -3q4 0 16 -2t16 -4q2 0 6.5 -4t4.5 -6q10 -6 19 -8t17 -9q41 -25 76 -53.5t64 -66.5q16 -23 26.5 -46.5t26.5 -44.5 l10 -86v-532q-2 -4 -3 -15.5t-3 -15.5q0 -4 -2 -24.5t-2 -24.5q-2 -4 -12.5 -23.5t-14.5 -29.5q0 -2 -2 -4t-2 -4t-2 -2q-4 -4 -13 -16.5t-20.5 -26t-21.5 -25.5t-14 -16q0 -2 -1 -2t-1 -2l-3 -3q-29 -18 -55 -37.5t-57 -35.5q0 -2 -6 -3t-11 -3q-14 -4 -42.5 -15.5 t-41.5 -11.5h-638q-4 0 -21.5 4t-26.5 6q-2 0 -10 5t-12 5q-2 2 -10.5 4.5t-10.5 2.5q-4 2 -9 3t-7 3q-2 0 -10 7t-10 7q-2 2 -8.5 4t-8.5 2q-14 6 -34.5 23.5t-42 40t-40 46t-26.5 40.5q-2 2 -6 12t-4 14q-4 10 -11.5 19.5t-11.5 21.5q0 4 -2 24.5t-2 24.5q-2 4 -5 15.5 t-5 15.5v1385zM92 356q0 -8 7 -20t10 -17q0 -2 2 -14t2 -18v-17q4 -10 11 -18t11 -19q0 -2 2 -10t2 -10q16 -31 37 -42t49 -21h2q12 0 18.5 6t16.5 10q2 0 8 2t9 2q10 10 18 18.5t12 18.5q2 2 4 8t2 8q2 2 9.5 10.5t7.5 10.5v16v16q-12 4 -16.5 11.5t-10.5 15.5l-16 16 q-2 4 -5 21.5t-5 21.5q-2 2 -8.5 7.5t-8.5 7.5q-12 25 -7 54.5t-13 51.5v1149q16 20 14 48t12 44l11 5q6 10 6 24t10 25q2 2 6 4q8 4 8 6q4 4 14.5 13t12.5 14q2 0 6 7t6 9q2 0 15.5 4t15.5 6q10 4 16 11.5t17 9.5q6 2 28.5 4t28.5 2q10 10 26.5 12t26.5 2h479l43 -4 q8 -12 13.5 -12t19.5 -11l15 -14q0 2 6 -4q2 -2 4 -2q6 -4 8 -10t8 -10q0 -2 8 -7l9 -4q2 -2 3 -8t3 -8q0 -2 7 -8t7 -8q8 -8 13.5 -16.5t13.5 -16.5q10 -8 24.5 -10.5t24.5 -10.5q2 -2 5 -3t5 -3q8 0 37 -2t37 -2q2 0 11 -3t11 -3h2h2q4 2 10.5 8t6.5 8v4q0 16 -8.5 29.5 t-12.5 30.5q0 4 -2 21.5t-4 21.5q0 2 -4 8t-6 8q-2 4 -6 11.5t-4 9.5v10q0 2 -2 6t-4 4l-97 96q-4 2 -13 4.5t-13 6.5q0 2 -6.5 9t-8.5 7q-4 2 -16 4t-16 2q-10 2 -22.5 11.5t-20.5 9.5h-717q-4 -2 -11.5 -8.5t-11.5 -8.5q-2 0 -5 -2t-5 -2t-15.5 -2t-17.5 -4q-2 0 -10 -7 t-10 -9t-4 -2q-2 -2 -4 -2h-2q-2 0 -8.5 -2.5t-8.5 -4.5t-13 -10t-13 -10q-10 -6 -13.5 -4t-7.5 -6q-2 -2 -3 -6.5t-3 -6.5l-10 -4l-11 -10v-4v-2q-2 0 -6 -2t-4 -4q-2 0 -6 -4t-6 -7q0 -2 -2 -8t-2 -8q-2 -2 -11.5 -12t-11.5 -15q0 -2 -2 -10t-2 -10q-2 -2 -11 -12.5 t-11 -14.5q0 -4 -2 -23.5t-2 -23.5q-2 -4 -7.5 -16t-9.5 -16v-1373zM385 283q0 -2 7 -8.5t9 -8.5q0 -2 4.5 -8t6.5 -8q4 0 8 -2l8 -4q10 -4 15.5 -10.5t15.5 -10.5q6 -2 20.5 -4t16.5 -2h495q4 0 20.5 2t22.5 4q4 0 10 6q0 2 3 4q2 2 2 3.5t2 3.5l2 2l4 4l8 4 q10 8 27.5 25.5l21.5 21.5q0 2 4 13.5t6 13.5q4 8 8.5 13t8.5 13q4 14 6 30.5t4 29.5q2 16 2 37.5t14 35.5v289q-8 14 -12 27q-2 8 -7 38.5t-7 41.5l-2 2q-2 0 -4 2q-4 0 -11.5 -2t-9.5 -2q-2 -2 -6 -8.5t-6 -8.5q-10 -10 -27.5 -11t-30.5 -11q0 -2 -2 -2q-2 -2 -4 -2 q-2 -2 -12 -4.5t-14 -2.5v-2v-2q6 -6 6 -12l4 -8q2 -4 2 -6v-346q0 -4 -6 -11q-2 -2 -8 -11t-9 -11q0 -2 -2 -10.5t-2 -10.5q-10 -14 -21 -23t-28 -9h-456q-2 0 -10.5 4t-12.5 6q0 2 -6 7t-8 5t-10.5 -4t-12.5 -8q-4 -2 -11 -10.5t-9 -10.5t-6.5 -15t-4.5 -17q-2 0 -6 -2.5 t-6 -2.5q-4 -6 -4 -14v-16v-6zM455 469q0 -8 1 -23.5t3 -19.5t12 -13.5t14 -13.5q2 -2 8.5 -4t8.5 -2h442q20 0 22.5 13.5t8.5 23.5l16 16q2 4 4 16.5t2 16.5v277q0 8 -2 25.5t-4 21.5t-12 14t-14 12t-17.5 4.5t-19.5 2.5h-463l-10 -11v-356zM305 1073v-9t4 -7h672 q2 0 14.5 -3t16.5 -5l4 -5l2 -2q4 -2 11 -6t9 -4q4 -2 14.5 -3t12.5 -3q2 0 6 -2t6 -2q0 -4 2 -6q0 -2 2 -4t10.5 -6.5t10.5 -6.5q6 -4 8 -10t6 -6l2 2q2 0 4 4t2 6q16 16 28.5 26.5t25.5 27.5l4 4q4 2 14 6t12 4l13 12q2 0 12 2t14 2l-18.5 18.5t-20.5 18.5q-2 2 -15 8 t-15 9q-2 2 -10.5 9t-12.5 7q-2 2 -12 4t-15 2q2 0 2 2t-2 2q-10 10 -18 11t-23 6q-4 2 -12 3t-10 3q-2 0 -10 7t-11 7q-4 2 -18 4t-18 2h-553q-10 0 -24.5 -13t-24.5 -20q-2 0 -8.5 -2t-8.5 -2q-6 -6 -10 -6q-10 -8 -22.5 -17t-20.5 -20q0 -2 -7 -13t-7 -13 q-2 -2 -9.5 -8.5t-7.5 -8.5v-6z" />
<glyph unicode="&#xa6;" d="M309 20q0 4 2 11.5t4 11.5q0 2 7.5 10t9.5 10q0 4 2 16.5t2 16.5q2 2 8 10.5t8 10.5q8 12 7 22.5t3 26.5q4 8 7.5 10t9.5 10q8 10 6 18.5t4 24.5q2 2 8 10.5t9 10.5q2 2 3 6t3 4q0 4 1 19.5t3 17.5q2 4 11 14.5t11 12.5q0 4 2 19t2 19q2 2 8.5 10.5t8.5 10.5q0 4 2 8t2 7 t2 5q0 4 2 14.5t2 12.5q2 4 11 14.5t12 12.5q0 4 2 19.5t2 19.5q2 2 8 10t8 10q0 2 2 13.5t4 13.5q0 8 2 12q0 4 2 8l17 17q0 2 2 7t4 9q0 2 2 15.5t2 15.5q2 4 8 12t8 10q0 2 2 15.5t4 15.5q0 6 2 10q0 4 2 6l17 17q2 4 3 18t3 19q0 4 7 12t7 10q10 12 9.5 26.5t7.5 26.5 q2 2 8 10.5t8 10.5q0 4 2 18.5t4 18.5q0 2 7.5 11t7.5 11q8 10 7 17.5t3 23.5q4 10 11 16.5t11 16.5q0 4 2 18.5t2 18.5q2 2 9.5 10t7.5 10q2 4 6 21.5t4 21.5q2 4 8 12.5t8 10.5q6 6 7 10q0 2 2 15.5t2 15.5q2 4 9 12t7 10q2 2 4 13.5t2 13.5q4 23 13.5 30t13.5 23 q0 2 2 15.5t2 15.5q2 4 9 11t7 11q2 4 3 21.5t3 21.5q0 2 9.5 12.5t11.5 14.5q2 2 4 15.5t2 15.5t2 8t2 8q2 2 9.5 13.5t7.5 13.5q2 2 3 15t3 16q0 4 7 9t9 7q6 10 6 24.5t4 24.5q2 10 9.5 18.5t11.5 18.5q6 20 8 29.5t18 23.5q2 4 3.5 23.5t3.5 23.5v4v2l-2 2q-2 0 -5 3 l-6 6q-2 2 -4 2h-889l-10 14v340l10 10h1282l5 -2l2 -2q2 -6 3 -20.5t1 -18.5v-329q0 -6 -6.5 -19.5t-8.5 -17.5q-2 -2 -6 -15.5t-6 -15.5q0 -2 -2 -6t-2 -6q-10 -16 -14 -34t-13 -34l-16 -33q-2 -2 -3 -10t-3 -10q0 -2 -2 -5t-2 -7q-10 -16 -12.5 -28.5t-10.5 -29.5 q0 -4 -7 -16.5t-7 -16.5q-2 -2 -6 -17t-6 -19q0 -2 -4.5 -8.5t-6.5 -8.5q0 -2 -2 -5t-2 -5q-2 -2 -3 -13.5t-3 -13.5q-2 -4 -11 -21.5t-9 -21.5q-2 -2 -4.5 -10t-2.5 -10q-4 -12 -10 -21.5t-10 -21.5q-23 -61 -49 -123q-2 -2 -2 -6q-2 -2 -2 -6v-2q-2 -2 -3 -11.5t-3 -11.5 q-2 -4 -11.5 -20.5t-9.5 -20.5q-2 -4 -3 -14t-3 -13q0 -4 -7 -14t-9 -12q0 -4 -4.5 -19.5t-6.5 -19.5l-10 -14q-8 -14 -9 -27.5t-7 -26.5q0 -2 -5.5 -8t-5.5 -8q-6 -10 -8 -23.5t-8 -25.5l-10 -15q-8 -12 -9 -22t-8 -27q-2 -2 -2 -4q-2 -2 -2 -4v-2q-2 -2 -6 -8t-6 -8 q0 -2 -2 -12.5t-2 -14.5q0 -2 -3 -8t-3 -8q-23 -45 -41.5 -93.5t-32.5 -97.5q-4 -10 -11 -18t-11 -19q0 -2 -2.5 -11t-2.5 -11l-4 -8q-2 -4 -2 -7l-16 -32q0 -2 -2 -13.5t-2 -13.5q-2 -2 -8 -10t-9 -10q-2 -4 -5 -21.5t-5 -21.5t-11 -21.5t-11 -21.5q0 -2 -2 -13.5t-2 -13.5 q-2 -2 -8.5 -10t-8.5 -10q-2 -4 -5 -21.5t-5 -22.5l-16 -32q0 -2 -2 -6l-5 -9q-4 -12 -14 -35.5t-26 -23.5h-293l-50 6l-2 2q-2 0 -2 2q2 0 -4 6q-2 2 -2 4zM991 1686q-2 -14 -1 -34t-9 -34q-2 -2 -9 -11.5t-7 -11.5q-2 -2 -4.5 -10t-2.5 -10t-1 -4t-1 -6q-2 -4 -2 -6 q-2 -2 -9 -10.5t-7 -10.5q-2 -4 -3 -21.5t-3 -21.5q0 -2 -2 -5t-2 -5q-2 -2 -9.5 -10.5t-7.5 -12.5q-2 -2 -4 -12t-2 -14q-2 -2 -2 -4q-2 -2 -2 -5v-2q-2 -2 -9 -10t-7 -10q-2 -4 -3 -21.5t-3 -21.5q0 -2 -2.5 -5t-2.5 -5q-2 -2 -9 -10.5t-7 -12.5v-14q-2 -14 -9 -23.5 t-13 -19.5q-6 -14 -6.5 -27.5t-8.5 -25.5q-2 -2 -9 -10.5t-7 -12.5v-14q-2 -12 -6 -17.5t-11 -15.5q0 -2 -2 -6t-4 -4q0 -4 -4 -21.5t-6 -21.5q0 -2 -7 -10.5t-9 -10.5q-4 -12 -6 -24.5t-9 -24.5q-2 0 -6 -7t-6 -7q-4 -10 -4 -24.5t-6 -24.5q0 -2 -7 -10.5t-10 -10.5 q0 -2 -2 -11t-2 -11q-2 -2 -3 -8.5t-3 -6.5q0 -4 -7 -14t-9 -12q-4 -12 -4 -25.5t-6 -24.5q0 -2 -7.5 -10t-7.5 -10q-2 -2 -4 -13.5t-2 -13.5t-2 -4t-2 -4t-2 -2q0 -4 -7 -14t-7 -13q-2 -4 -3 -19t-4 -19q-2 -2 -11 -12.5t-9 -14.5v-8v-6q-4 -16 -13.5 -27.5t-13.5 -26.5 q-2 -4 -3 -19t-3 -18q-2 -4 -11 -14t-9 -12q-2 -2 -1 -8t1 -9q-4 -14 -11.5 -22t-11.5 -21q0 -2 -2 -13t-2 -13q-2 -4 -2 -6t-2 -6t-2 -9q-2 -2 -8 -11t-8 -11q-2 -4 -5.5 -18.5t-5.5 -18.5q0 -2 -5 -8t-5 -8q-6 -6 -6 -11q-4 -16 -3 -23t-7 -20q-2 -2 -8.5 -10t-8.5 -10 q-4 -10 -3 -26.5t-7 -26.5l-16 -17q0 -2 -2 -15t-2 -15q-2 -2 -3 -6.5t-3 -6.5t-8.5 -10t-8.5 -10q-2 -4 -3 -21.5t-1 -21.5q-2 -2 -11 -12.5t-12 -14.5q0 -2 -2 -15.5t-2 -15.5l-6 -12t-6 -10h6q12 0 18.5 3t10.5 7t9 8t16 8q2 0 10 2.5t10 4.5q2 0 11 7t12 9q2 0 5 2t5 2 t10 2t10 4q8 4 8 10.5t15 10.5l57 59q2 16 10.5 23.5t12.5 23.5q0 4 4 26.5t6 26.5q0 2 7 10.5t9 10.5q6 10 10.5 21.5t10.5 21.5q2 2 3 6t3 4q4 20 5 34.5t11 31.5q2 4 5 11t6 9q4 14 5 30.5t9 29.5q2 0 6 4l6 6q0 2 2 10t2 10q4 10 9.5 14.5t7.5 12.5q0 2 2 10t4 17.5 t3 16.5t1 9q4 12 11 21.5t11 21.5q0 4 4.5 23.5t6.5 23.5q10 6 13 19.5t7 23.5q2 4 9 16.5t7 16.5q6 14 6.5 29.5t10.5 27.5q2 0 2 2t2 5q2 2 6 4q2 4 5 21.5t5 21.5q2 0 2 2t2 4t7 4q6 6 6 12q2 2 3 17.5t3 19.5q2 2 2 4q0 4 2 6t8 13.5t8 13.5q2 6 6.5 26.5t4.5 26.5 q16 10 17 25.5t9 32.5q2 2 6 8t4 8q2 0 3 2q0 2 2 4t2 4q0 4 2 16.5t4 16.5q4 10 10 18.5t10 18.5q0 4 2 19.5t4 17.5q0 4 2 12t2 10t5.5 5t5.5 5q2 0 3 6.5t3 10.5q4 10 5 16t5 15q2 2 8 10t8 12q0 4 2.5 18.5t4.5 18.5q4 14 10 17t10 26q0 2 2 15.5t4 15.5q4 14 9.5 24 t11.5 25q0 2 2 6l4 8q0 4 7 12.5t7 10.5t2 9t4 16t3 17.5t1 10.5q4 10 9.5 13t7.5 14q6 23 8 42t18 37v160q-10 -4 -10 -7t-10 -9q-8 -4 -18.5 -5t-14.5 -12q-6 -14 -13 -30.5t-18 -26.5q-2 -2 -9 -6t-7 -6q-10 -16 -11 -32.5t-26 -20.5zM82 1812h2l2 3q2 0 4 4t2 6l31 30 q2 2 11 6.5t11 6.5q2 0 5.5 7t5.5 7q4 4 11 6t9 2h985l5 5t5 3q2 2 11 7q4 2 6 4q20 8 30.5 6t22.5 16l4 4q2 2 8.5 6.5t8.5 6.5q6 6 15 14t17.5 16.5t14.5 15.5l6 7v31h-1233v-220z" />
<glyph unicode="&#xa7;" d="M66 889q12 23 11 45t9 45q6 10 19.5 25.5t13.5 27.5q0 18 -16.5 33.5t-20.5 36.5q-4 16 -4 34.5t-12 32.5v566q2 4 6 15t4 15q2 4 3 21.5t3 21.5v2q0 2 2 5q0 2 2 4t9 8t7 8q2 2 4.5 13.5t2.5 13.5q4 10 8 13t12 13t15.5 21.5t17.5 21.5q16 16 33.5 29.5t35.5 28.5 q0 2 6.5 9t8.5 7q4 2 17 6t16 4q2 2 8 9.5t8 7.5q2 2 17.5 3t19.5 3q2 0 4 2q2 0 3 1t3 1q2 2 8 6t8 6h2q2 0 5 2q2 0 4 2h696q14 0 23.5 -8t19.5 -12q4 0 16.5 -2t16.5 -4q2 0 10 -7.5t10 -9.5q2 0 5 -2t5 -2t8.5 -2t8.5 -4q4 -2 16.5 -12.5t16.5 -14.5l84 -84 q14 -25 28.5 -47t24.5 -49q2 -4 4 -18.5t2 -18.5t2 -13t2 -13v-570q0 -37 -17.5 -73.5t-45.5 -59.5v-6q29 -20 46 -56t17 -71v-569q0 -4 -2 -13.5t-2 -13.5t-2 -21.5t-4 -21.5q-2 -10 -9.5 -18.5t-11.5 -18.5q-20 -51 -61 -91t-82 -73q-6 -6 -12 -6q-12 -4 -21.5 -10 t-19.5 -10q-2 -2 -7.5 -3t-9.5 -3q-18 -4 -37.5 -15.5t-35.5 -11.5h-650q-12 0 -24 6t-25 10q-2 0 -7 2t-9 2q-2 2 -17.5 6.5t-19.5 6.5l-10 10q-8 6 -18.5 7t-18.5 9q-35 25 -64.5 53.5t-52.5 63.5l-13 19.5t-17.5 29t-15.5 29.5t-7 22q0 4 -2 23.5t-4 24.5q0 4 -4 16 t-6 16v533zM86 362q10 -23 14 -40t9 -39v-13q2 -6 14 -24.5t16 -28.5q2 0 3 -2t3 -2t5 -2q0 -2 4 -2q2 0 2 -2q6 -10 8 -23.5t20 -13.5t27.5 13.5t19.5 23.5q2 2 10.5 10t10.5 12q0 2 2 7l4 8q0 4 2 7t2 5q10 12 15.5 20.5t5.5 26.5q0 20 -10.5 31.5t-14.5 27.5q-4 6 -7 29 t-5 29l-10 10l-5 53v16.5t-1 32t-1 36v28.5v38.5t1 49.5t1 43v23q0 10 1 37.5t4 37.5q16 8 17 32t5 36q2 10 10 26.5t15 22.5q2 2 9 5t7 5q2 2 6 13.5t4 13.5q2 0 6 5t7 5q0 2 4 8.5t6 8.5q-8 0 -26.5 1t-40 2t-40 2t-26.5 1q-6 0 -26.5 2t-27.5 2l-36 -47q2 -23 -2.5 -46.5 t-20.5 -39.5v-521zM352 303l6 -6l11 -4q2 -2 3 -6t3 -4q0 -2 2 -4q0 -2 2 -3q2 0 8 -2t8 -4q6 -2 16.5 -10t21.5 -16t19.5 -14.5t12.5 -6.5h563q2 4 10.5 11.5t12.5 9.5q0 2 4 4t6 2l47 47q2 2 6 13.5t4 13.5q2 4 9.5 14t7.5 12t2 10.5t4 12.5q0 2 2 15t2 15q4 10 10 11.5 t6 11.5v350q0 2 -2 4q-4 4 -4 6l-2 5l-2 2q-10 14 -9 29.5t-7 29.5q-2 4 -8.5 4h-10.5q-16 0 -27.5 -8t-27.5 -12q-4 -2 -21.5 -3.5t-21.5 -3.5q-2 0 -5 -2t-5 -2l10 -22q0 -74 2 -144q2 -59 2 -123.5t2 -105.5v-2v-2q-2 -4 -4 -14.5t-2 -12.5q0 -6 -6 -6h-11q-2 -2 -6 -10 t-4 -10l-6 -6h-500l-16 6q-2 0 -19.5 18.5t-27.5 28.5q0 2 -2 6t-4 4q0 2 -6 2q-8 0 -9 -2q-4 -2 -11 -9l-11 -11q0 -2 -2 -10.5t-2 -10.5q-4 -12 -12.5 -18t-10.5 -21v-22v-25zM481 399q4 -4 13.5 -7t13.5 -3h424q16 0 37.5 18.5t21.5 34.5v351q0 4 -6 10l-27 26 q-2 2 -12 4.5t-14 2.5h-424q-35 0 -47 -22.5t-12 -53.5v-330q0 -2 12 -14.5t20 -16.5zM86 1176q20 -16 23 -43q0 -4 -1.5 -18.5t1.5 -18.5q2 -4 12 -16.5t14 -16.5q0 -2 2 -4v-4q0 -2 2 -2h19q25 0 32 3t25 19q12 10 27.5 19.5t15.5 27.5q0 6 -1 20.5t-3 29t-6 25.5t-12 15 l-5 54v415l5 84q10 6 14 19.5t8 23.5q10 29 45 54.5t66 25.5h622q4 0 11.5 -2t9.5 -4q2 0 8 -7t8 -7q2 -2 10.5 -4t12.5 -2t9 -2t5 -5q2 0 6 -4l6 -6q2 0 12.5 -6t12.5 -8q10 -10 8 -14.5t14 -4.5q2 0 5.5 1.5t5.5 1.5q0 16 11 32.5t27.5 30.5t35 25.5t32.5 17.5 q-33 35 -70 64q-14 -4 -23 6t-20 14q-2 2 -12 4t-14 2q-10 4 -18.5 12.5t-18.5 8.5h-696q-16 -16 -43 -20.5t-31 -10.5q-2 -2 -3 -6t-3 -6q-2 0 -13.5 -2t-13.5 -2q-2 -2 -10 -11.5t-10 -11.5q-2 0 -8.5 -4t-8.5 -6l-16 -17q-2 0 -8 -2t-8 -2t-3 -2q-2 -2 -2 -4q-2 0 -4 -4 t-2 -6q-2 -4 -9 -12.5t-14 -17.5t-14.5 -17t-9.5 -13q0 -4 -2 -13t-4 -11q-2 -4 -11 -14.5t-9 -12.5q-2 -4 -3.5 -24.5t-3.5 -24.5q0 -2 -4 -8t-6 -8t-2 -3t-2 -3t-2 -4v-553zM326 1116q8 -8 13 -11t13 -15q2 0 3 -2.5t3 -2.5q2 -2 10.5 -6t10.5 -4q4 -2 11 -8t11 -8h500 q2 0 4 2q2 0 3 1t3 1q2 2 8.5 6t8.5 6q2 0 15 4t15 6q2 0 11.5 7.5t11.5 9.5q2 0 8 2t8 2q16 8 26.5 14t27.5 13q6 6 10 6q25 18 46 41.5t44 48.5l10 10v426q0 4 -6 10h-4q-4 4 -4 18.5t-10 14.5h-2q-2 -2 -8.5 -9t-8.5 -7q-16 -8 -31.5 -8.5t-25.5 -16.5h-60q2 -2 6.5 -9 t4.5 -9t4 -7q2 -2 2 -4v-376l-53 -54q0 -2 -10.5 -3t-16.5 -3h-2h-4q-25 0 -90.5 1t-138 2t-137 2t-91.5 1q-27 16 -47 41q-2 2 -6 9.5t-6 7.5h-2q-2 0 -4 2q-20 0 -25.5 -17.5t-15.5 -27.5l-11 -4l-6 -7q0 -2 -2 -12t-2 -14q-2 -2 -8 -10.5t-8 -10.5q-6 -10 -6 -14v-14v-21 zM481 1235q0 -2 4 -4t7 -2h430q2 0 12 2t14 4h2q2 0 4 2q2 0 4 2q12 10 22.5 23.5t10.5 29.5v336q0 12 -9 21.5t-23.5 16.5t-29 11t-24.5 4h-393q-2 0 -14.5 -6t-16.5 -10q-33 -23 -32 -63v-336l12 -13q4 -4 10 -9t10 -9zM997 1675q-4 0 -4 -5t4 -5t4 5t-4 5z" />
<glyph unicode="&#xa8;" d="M76 356q0 8 2 10.5t8 10.5q14 18 34.5 17t39.5 5q2 0 8 4.5t8 6.5q16 10 36.5 9t39.5 7q2 2 6 4q8 4 8 6q2 0 6 4q2 2 4 2q4 0 30 2t30 2q2 0 4 3q2 2 3 2t3 2q2 0 8 4t8 6q0 2 3 2q2 0 4 2t4 2h63q8 0 11.5 -10t5.5 -22.5t5 -24t11 -13.5q6 -4 20.5 -7t16.5 -3h436 q2 0 10.5 3t12.5 7q6 4 18 16.5t12 14.5v395l-10 13h-579q-25 12 -49.5 15t-47.5 13q-18 10 -40.5 21.5t-39.5 27.5q-6 4 -18 17.5t-26.5 28t-28 26.5t-17.5 19q-2 2 -9 14t-11 16q-6 6 -6 13q0 2 -2 6l-5 8q0 4 -7 12t-7 10q-6 10 -7 25.5t-5 22.5q0 4 -6 14t-8 12v586 q16 25 14 46t12 44q0 2 7 10t7 10q2 2 3.5 9.5t3.5 7.5q0 2 7 8t9 8l16 33l31 31q4 4 16.5 14t16.5 12q2 2 10 6.5t10 4.5q12 10 29.5 24.5t34.5 18.5q4 2 21.5 3t21.5 3t13 9t13 11h709q12 0 21.5 -8t19.5 -12q4 0 16.5 -2t16.5 -4q2 0 8 -7.5t8 -9.5t4 -2q2 -2 6 -2 q2 0 10.5 -2t10.5 -4q2 0 8 -7t8 -9q29 -23 54.5 -47.5t46.5 -53.5q2 -2 6 -10t6 -10q0 -2 7 -11.5t7 -11.5q2 -2 6.5 -15t6.5 -15q0 -2 4 -8.5t6 -8.5q0 -2 1 -3t1 -3t2 -4v-1505q-2 -4 -7 -16.5t-7 -16.5q-2 -2 -6.5 -15.5t-6.5 -17.5q0 -2 -7 -10t-7 -10q-2 -2 -6 -10.5 t-6 -10.5q-66 -92 -170 -143q-14 -8 -30.5 -12.5t-33.5 -10.5q-4 -2 -9 -3t-9 -3l-13 -4h-645q-12 0 -22 6t-21 10q-4 2 -20.5 8.5t-20.5 8.5q-43 18 -70.5 50t-58.5 67q-10 14 -21 25t-20 28q-2 2 -6 12t-6 14l-8 9l-6 6q-6 6 -6 12q0 2 -2 12.5t-5 14.5l-8 8l-6 6 q-8 10 -8 22.5t-4 20.5q-2 0 -2 2v4q-2 2 -2 4v6zM106 346q2 -4 3.5 -16.5t3.5 -16.5q2 -2 11 -12t9 -14q2 -2 3 -10.5t3 -10.5q0 -2 7.5 -10t9.5 -12q0 -2 2 -4v-4q0 -2 2 -3q2 -2 3 -10t3 -10q10 -18 25.5 -32.5t27.5 -30.5q0 -6 6 -7q10 -4 20.5 -4h20.5q37 0 57.5 24.5 t18.5 59.5q-4 29 -18.5 46.5t-14.5 47.5q0 41 19.5 59.5t40.5 43.5l2 4q0 2 2 2h2q2 0 4 2q2 0 4 2l6 6q-2 6 -10 6h-6q-2 -2 -10.5 -9t-10.5 -7q-16 -8 -29.5 -6t-29.5 0t-29.5 -12.5t-34.5 -14.5q-4 0 -21.5 -2t-21.5 -2q-2 -2 -10 -9t-10 -7q-2 -2 -9 -4t-12 -2h-32 q-2 0 -6.5 -4.5t-4.5 -6.5zM516 213q4 -4 11.5 -7t11.5 -3h346q18 16 48 16t52 4q12 4 19.5 10.5t17.5 10.5q2 2 8 4t8 2l17 16q10 10 17 12.5t13 14.5q2 2 6.5 8t4.5 8q2 0 9 6.5t7 8.5q2 4 6 14t4 12q6 10 10.5 10t6.5 13q2 6 4 22.5t2 20.5v436l-2 2q-2 0 -4 2 q-10 0 -22.5 -6t-20.5 -10q-6 -4 -17.5 -6.5t-24 -5.5t-21.5 -5t-9 -4v-393q0 -4 -9 -14.5t-21.5 -20.5t-22.5 -17t-13 -7h-489q-2 0 -12.5 -3.5t-14.5 -7.5t-10 -22.5t-22 -30.5l-11 -74q0 -2 4.5 -3t6.5 -3q27 -8 55 -9t51 -1zM373 2032q-8 -8 -16.5 -13.5t-20.5 -7.5 q-4 0 -21.5 -2t-21.5 -4q-2 0 -10.5 -7t-10.5 -9q-2 0 -8 -4.5t-8 -6.5t-10 -8t-10 -8q-2 0 -11.5 -4t-11.5 -6q-4 -4 -22.5 -21.5t-24.5 -25.5q-10 -10 -5 -14.5t-11 -12.5q-2 -2 -8.5 -10t-12.5 -18.5t-11 -19.5t-5 -11v-27q0 -2 -2 -6l-5 -8q-4 -10 -12 -20.5t-8 -22.5 v-559l10 -21q0 -2 2 -4t4 -2q2 -4 6.5 -9t4.5 -7t-1 -15.5t1 -15.5q0 -4 7 -12.5t9 -10.5q2 -4 6 -9t4 -7v-14q0 -2 8.5 -12.5t12.5 -14.5l49 -49h4q47 0 73.5 34.5t43.5 71.5l2 4l-2 2q-4 4 -15.5 21.5t-15.5 21.5l-15.5 15.5t-17.5 15.5q-6 8 -8 18.5t-6 18.5t-10 15.5 t-6 17.5v430q0 18 8 30.5t12 28.5q0 2 2 10.5t4 10.5q4 10 21.5 27.5l25.5 25.5q0 6 6 12q12 12 27.5 21.5t30.5 19.5l10 10q10 4 26.5 7.5t22.5 15.5l43 4h531q10 0 13 -5t9 -9q2 -2 15.5 -6t15.5 -7q20 -10 37.5 -25t31.5 -32q0 -2 2.5 -6t4.5 -4l2 -2l2 2q2 29 23.5 46 t39.5 34q2 0 8.5 7t8.5 7q4 2 14 6t12 6q4 0 6 2q2 0 4 2l2 5l-2 2q-16 20 -36.5 42.5t-42.5 37.5q-2 0 -10.5 2t-10.5 2q-2 2 -12 11t-15 11h-16q-12 2 -16 5t-15 12q-4 0 -6 2q-2 0 -4 2h-698zM383 1106q25 -29 64.5 -41t74.5 -12h436q4 0 25 2t29 4q2 0 8 2t8 2q0 2 2 6 t2 6q4 2 16.5 6t16.5 4l53 54q2 6 4 16t6 14l6.5 6.5t4.5 6.5q2 2 3 15t3 22q2 10 3 37.5t1 31.5v19.5t1 41t1 48v39.5v38.5t-1 48t-1 42v20.5q0 8 -1 23.5t-1 30t-1 25.5l-1 11l-6 11q-6 -4 -14.5 -11.5t-16.5 -9.5q-2 0 -10 -2t-17.5 -3t-16.5 -3t-9 -2q-4 -2 -12.5 -8.5 t-10.5 -8.5q0 -2 -3 -3t-5 -3v-420l-6 -4q-106 0 -205 -2q-84 -2 -174 -3t-150 -1h-2h-2q-2 0 -6 2t-4 4q-6 4 -24.5 22.5l-24.5 24.5q-2 0 -2 2v5q-2 2 -2 4l-6 6l-6 -6l-11 -54q-16 -10 -16 -34.5v-38.5v-33zM442 1319q4 -12 5.5 -29.5t11.5 -27.5q4 -6 14 -16.5t12 -10.5 l490 -6q6 0 13 7t7 13v353q0 41 -35.5 60t-70.5 19h-373q-2 0 -14.5 -6t-16.5 -10l-26 -27q-8 -10 -10.5 -25.5t-6.5 -27.5v-266z" />
<glyph unicode="&#xa9;" horiz-adv-x="1908" d="M426 262q0 4 -9 12.5t-14 10.5q-10 2 -33.5 2t-33.5 -2q2 4 10 12t12 10q2 0 14.5 1t18.5 1q8 0 20.5 -1t14.5 -1q4 -2 12 -10t11 -12q0 -2 1 -15.5t1 -19.5t-1 -18.5t-1 -14.5q-4 -8 -21.5 -33.5t-24.5 -33.5l46 -21h-113q4 6 14 18.5t20.5 25.5t19.5 25.5t13 18.5 q4 8 13.5 25.5t9.5 19.5zM489 217q0 14 1.5 40t1.5 28q0 4 9 12t15 10q2 0 13.5 1t19.5 1q6 0 18.5 -1t14.5 -1q4 -2 13 -10t9 -12q0 -2 1 -28t1 -40t-1 -39.5t-1 -27.5q0 -4 -9 -11.5t-13 -9.5q-2 0 -14.5 -1t-18.5 -1q-8 0 -19.5 1t-13.5 1q-6 2 -15 9t-9 12 q0 2 -1.5 27.5t-1.5 39.5zM649 262q4 8 20.5 24.5t24.5 20.5q4 2 11.5 4t9.5 2v-184h-21q0 6 -3 22.5t-7 34t-8 32.5t-6 22q-2 4 -9.5 12t-11.5 10zM780 217q0 10 1 26.5t1 18.5q2 10 10.5 26.5t12.5 18.5h12q4 0 9 1t10 1q8 0 20 -1t16 -1q4 -2 13.5 -10t9.5 -12 q0 -2 1 -28t1 -40t-1 -39.5t-1 -27.5q0 -4 -9 -11.5t-14 -9.5q-4 0 -16 -1t-20 -1h-19q-6 0 -12 2q-4 2 -12.5 18.5t-10.5 26.5q0 2 -1 18.5t-1 24.5zM1028 285q2 4 10.5 12t10.5 10q4 0 17 1t21 1q4 0 15.5 -1t15.5 -1q6 -4 22.5 -20.5t20.5 -24.5q-2 8 7.5 24.5t17.5 20.5 q2 2 19.5 3t25.5 1t24.5 -1t18.5 -3t9 -27.5t11 -39.5v-23v-22q-4 -12 -11 -38t-9 -28t-19.5 -5t-25.5 -3t-24.5 3t-18.5 5q-6 2 -13.5 14.5t-14.5 25.5t-12 27.5t-5 20.5l-68 -76h68l-113 -12q0 2 -1 5t-1 7v4q0 2 2 5q4 4 22.5 23.5t22.5 21.5q4 4 12.5 22.5t8.5 22.5 q2 4 0 22.5t-2 22.5h-64zM1339 262q4 8 21.5 24.5t23.5 20.5q4 2 11.5 4t11.5 2v-184h-23q0 6 -3 22.5t-6 34t-6 32.5t-5 22q-4 4 -12.5 12t-12.5 10zM537 150h22v135h-22v-135zM827 145q4 0 11.5 1t11.5 4q4 2 13 11t9 13q0 2 1 13.5t1 19.5q0 2 -1 7t-1 11v15 q-4 6 -11 23.5t-11 21.5h-4h-4q-2 0 -2 2q-4 0 -7.5 -1t-5.5 -1v-140zM1204 217q0 -8 1 -24.5t1 -18.5q0 -4 9.5 -13t13.5 -11q6 2 14 11t8 13q0 2 1 18.5t1 24.5q0 10 -1 26.5t-1 18.5q0 4 -8 12.5t-14 10.5q-4 -2 -13.5 -10.5t-9.5 -12.5q0 -2 -1 -18.5t-1 -26.5z M1006 195q-8 -10 -33 -10.5t-33 10.5q-4 6 7 8t25.5 2t26 -2t7.5 -8zM559 573q6 0 23.5 1t21.5 1q10 0 26.5 -1t18.5 -1q4 0 12.5 -8t8.5 -12q2 4 11 12t13 8h4q2 0 3 1t4 1q2 0 4 -1t4 -1h2q4 -2 11 -21.5t11 -23.5q4 -2 6 -2h7h6q2 0 4 2q4 6 13 23.5t9 21.5h158v-133h-35 v113q-4 0 -17.5 -9t-15.5 -16q-4 -4 -7 -16t-7 -26.5t-6 -27t-2 -18.5h-35v88q-2 -6 -10 -21t-17.5 -32.5t-17.5 -33t-10 -21.5q0 -4 -9.5 -13.5t-13.5 -11.5t-8 -2h-14q-2 0 -10.5 1t-10.5 1q4 2 11.5 11.5t9.5 13.5v8q0 4 1 6t1 4q0 4 -1 13.5t-1 11.5q0 4 -3 14 t-6.5 20.5l-6.5 19.5t-5 11q0 -6 -6 -18t-13 -26.5t-14.5 -27t-11.5 -16.5q-2 -2 -11 -5t-21.5 -6t-22.5 -6t-12 -3q-6 -4 -23.5 -12.5t-21.5 -12.5h22v178zM1049 408q-4 4 -21.5 16t-21.5 16t-13.5 12.5t-9.5 10.5t-1 18.5t-1 26.5t1 26.5t1 18.5q0 4 9 12t14 8q6 0 20 2.5 t29.5 4.5t30 3t18.5 1q0 -8 -1 -28.5t-3 -43.5t-4 -43t-2 -29q0 -8 -8.5 -25.5t-12.5 -19.5q-6 -2 -18.5 -1t-26.5 3t-26.5 4t-18.5 7h66zM1427 508q0 10 1.5 26.5t1.5 18.5q0 4 9 20.5t13 22.5q2 4 10 13t13 12v-226q-4 2 -12.5 11.5t-10.5 13.5q-4 6 -13 22.5t-9 20.5 q0 2 -1.5 18.5t-1.5 26.5zM1675 528q0 6 -3 18.5t-6 28t-7 27.5t-6 19h12h10q4 -6 13.5 -24.5t9.5 -23.5v-26q0 -10 1 -21.5t1 -17.5q0 -14 -1 -40t-1 -28q0 -4 -9.5 -21.5t-13.5 -23.5l-10 -2q-2 0 -6 1t-6 1q2 6 6 18.5t7 27t6 27.5t3 17v23v20zM201 555q0 8 2 18 t19.5 27.5t23.5 20.5h43h47q4 0 12 -9.5t10 -15.5q2 -2 3 -12.5t1 -12.5q-2 0 -13 1t-13 1l-45 23h-10h-11q-6 -2 -15 -10t-9 -13q-2 -10 -2 -18v-27q0 -6 1 -23.5t1 -19.5q0 -4 9 -12t15 -10h11h10l45 22q2 0 13 2t13 2q0 -4 -1 -14t-3 -12q-2 -4 -10 -13.5t-12 -9.5 q-2 0 -19.5 -1t-27.5 -1q-8 0 -24.5 1t-18.5 1q-6 2 -23.5 19.5t-19.5 25.5q0 2 -1 19.5t-1 23.5v27zM401 508q0 10 1 26.5t1 18.5q0 4 9.5 12t13.5 8q2 0 14.5 1t18.5 1q8 0 19 -1t14 -1q6 0 15 -8t9 -12q0 -2 1 -18.5t1 -26.5t-1 -26.5t-1 -18.5q0 -4 -9 -12.5t-15 -10.5 q-2 0 -13.5 -1t-19.5 -1q-6 0 -18.5 1t-14.5 1q-4 2 -13.5 10.5t-9.5 12.5q0 2 -1 18.5t-1 26.5zM1141 621q0 -4 8 -12.5t12 -12.5q8 -4 34 -12.5t34 -10.5v-133q0 6 -3 18.5t-7.5 27t-7.5 26.5t-5 16t-9 13.5t-11 11.5q-4 -6 -13.5 -23.5t-11.5 -21.5q-4 -8 -12 -32.5 t-8 -35.5v181zM1274 573q0 8 8 25.5t12 22.5q6 -4 15.5 -21.5t9.5 -26.5q0 -6 2 -25.5t3 -41t2 -39.5t1 -27h-33q-2 0 -6 15.5t-7 37t-5 44t-2 36.5zM1518 508q0 10 1 26.5t1 18.5q0 4 8 12t12 8q8 2 35 6.5t35 4.5v-31h-45v-90h45v-33q-8 0 -35 4t-35 6q-4 2 -12 10.5 t-8 12.5q0 2 -1 18.5t-1 26.5zM424 494q0 -4 2 -9q2 -4 10 -12t13 -10q2 -2 11 -3t11 -1v98q-2 0 -11 -1t-11 -3q-4 -2 -12.5 -11.5t-10.5 -13.5t-2 -8v-12v-14zM582 508q0 -8 9 -24.5t13 -20.5q4 2 11.5 10t11.5 12v9q0 4 1 7t1 7q0 2 -1 5t-1 7v8q-4 4 -11.5 13.5 t-11.5 11.5q-4 -4 -13 -20.5t-9 -24.5zM1004 494q0 -4 2 -9q2 -4 10 -12t12 -10q4 2 11.5 10t9.5 12q0 4 2 9q0 4 1 7t1 7q0 2 -1 5t-1 7q-2 4 -2 8q-2 4 -9.5 13.5t-11.5 11.5q-4 -2 -12 -11.5t-10 -13.5t-2 -8v-12v-14zM940 621q-4 -10 -12 -10.5t-13 10.5q-2 4 2.5 6 t10.5 2t10 -2t2 -6zM471 1155q0 2 5 13.5t12.5 24.5t14.5 27.5t13 22.5q4 4 11.5 13.5t9.5 9.5h178q4 0 20.5 -16.5t24.5 -26.5q4 -8 13 -24.5t9 -20.5v-291q0 -4 -9 -20.5t-13 -24.5q-8 -10 -24.5 -26.5t-20.5 -16.5h-199l-45 88v268zM426 1266v-33h-156v-123q8 0 34 -8 t32 -15q2 0 3 -4t1 -6t-1 -7t-3 -5q-4 -2 -14.5 -6t-22.5 -7t-23.5 -5.5t-17.5 -2.5v-225h-33v447h201zM827 1266l21.5 -21.5t23.5 -21.5q2 -4 15.5 -21.5t28 -36t27.5 -35t18 -20.5q4 -8 26.5 -24.5t28.5 -20.5v201h57v-447q-4 2 -12 10.5t-12 12.5q-8 12 -32 45 t-50.5 67.5t-51 66.5t-32.5 44v-246h-56v447zM1118 1233v33h279q0 -4 -4 -11.5t-9 -11.5q-2 -2 -11 -5t-20.5 -6t-21.5 -6t-12 -3q-10 -4 -22.5 -13.5t-12.5 -11.5v-379h-65v414h-101zM1415 961q4 0 29.5 -3.5t30.5 -3.5q2 0 10 -9t12 -13q2 -4 10.5 -23.5t12.5 -21.5 q6 -2 12 -2h18q8 0 20.5 1t14.5 1q6 2 15.5 10t9.5 12q0 2 1 23.5t1 32.5q0 8 -1 28.5t-1 26.5q-8 0 -27.5 2t-41 6t-40 8t-26.5 8q-4 2 -14.5 10.5t-22 19.5t-20.5 21.5t-11 14.5q-2 6 -2 12v21q0 4 1 18.5t1 16.5q2 6 10 23.5t13 21.5q8 8 33.5 24.5t33.5 18.5q2 0 28.5 3 t39.5 3q12 0 37.5 -3t27.5 -3q6 -2 23.5 -18.5t21.5 -24.5q2 -4 4 -17.5t4.5 -28t3.5 -26.5t1 -14q-4 0 -29 6t-29 12q-2 2 -4 11.5t-5 21.5t-6 22.5t-5 12.5q0 2 -13.5 3t-19.5 1t-19.5 -1t-17.5 -3q-6 -4 -22.5 -19.5t-20.5 -25.5q-2 -4 -2 -9v-14q0 -4 1 -12t1 -10 q2 -4 10.5 -12.5t12.5 -10.5t20 -5t34.5 -6t35 -6t20.5 -6q6 -2 16.5 -11t21.5 -19t19.5 -20.5t10.5 -16.5q2 -2 3 -22.5t1 -32.5q0 -10 -1 -32t-3 -24q-2 -8 -11.5 -21.5t-19.5 -27.5t-20.5 -26.5t-16.5 -14.5q-2 -2 -26.5 -4t-36.5 -2q-14 0 -41 2t-29 4q-4 2 -14 10.5 t-21.5 18.5t-20.5 21.5t-11 17.5q-2 4 -4.5 15t-4.5 23.5t-4 22t-2 13.5zM559 864q4 -2 21.5 -4t25.5 -2q6 0 15.5 1t19.5 2t18.5 2t10.5 1q8 2 25.5 19.5t19.5 25.5q0 2 3 21.5t7 44t7 50.5t5 40v27v18q-2 4 -10 20.5t-12 24.5q-2 4 -10.5 13.5t-10.5 9.5t-27.5 1t-39.5 1 t-39 -1t-29 -1t-13 -9.5t-9 -13.5v-246zM381 1823q4 0 22.5 2t22.5 2q8 0 25.5 -2t19.5 -2t9 -7.5t12 -13.5q6 -6 15 -23.5t9 -21.5q0 -2 1 -20.5t1 -28.5q0 -4 -1 -10t-1 -12v-17q-2 -4 -19.5 -21.5l-25.5 -25.5q-4 -2 -15.5 -8t-23.5 -14.5t-23.5 -14.5t-17.5 -8v-199 l-33 -22v32.5t-1 51t-1 50v34.5v42.5t1 53.5t1 47.5v22.5q0 8 3.5 27.5t6.5 41t7 40t6 24.5zM1485 1491q-2 0 -3 -1t-3 -1h-4q-2 -2 -10.5 -18.5t-12.5 -26.5q-4 -6 -12 -32t-10 -34q-6 0 -28 -1t-28 -1q-12 0 -32.5 1t-22.5 1t-11.5 8.5t-13.5 14.5q-4 4 -16 23.5t-26.5 43 t-28 43t-17.5 23.5t-16 12t-16 10v-178h-56v445h221q10 0 25.5 -16.5t19.5 -26.5q0 -2 1 -25.5t1 -38.5q0 -12 -1 -38.5t-1 -30.5t-8 -21.5t-12 -23.5l-25 -25q-4 -4 -21.5 -11t-23.5 -10q4 -8 13.5 -26.5t20.5 -40t21.5 -40.5t14.5 -26q2 -4 9 -12t11 -10q4 4 12.5 21.5 t10.5 21.5q2 6 6 29.5t7 49t6.5 49t3.5 30.5q2 10 5 30.5t7 42t7 39t3 21.5q0 6 3 18t7 26.5t7.5 27t5.5 16.5q2 0 5 2t5 2q0 -2 2 -2h4q2 -2 6 -2q4 -2 12.5 -9.5t10.5 -11.5q2 -20 9 -70.5t14 -107.5t13.5 -108.5t8.5 -71.5q0 -6 1 -18.5t2 -26t1 -25.5v-18h-29q0 6 -3 18 t-7 25.5t-7 26t-3 18.5q-4 8 -11.5 24.5t-11.5 20.5h-6h-4q-2 0 -2 2zM31 1520q6 0 30.5 -2t30.5 -7q2 0 9.5 -9t11.5 -13q2 -4 11 -23.5t13 -21.5t10 -2h19q8 0 21.5 1t15.5 1q4 2 13 11t9 13q0 2 1 22.5t1 33.5q0 6 -1 27.5t-1 25.5q-8 0 -26.5 2t-40 6t-41 8t-25.5 9 q-6 2 -16 11t-20.5 19t-19.5 20.5t-11 16.5t-2 12v19q0 6 1 19.5t1 15.5q2 8 10 24.5t12 20.5q8 8 33.5 24.5t32.5 18.5q2 0 28.5 3t38.5 3t38 -3t28 -3q8 -2 24.5 -18.5t20.5 -24.5q2 -4 4 -16.5t4 -27t4 -26.5t2 -14q-4 0 -28.5 6t-30.5 12q-2 0 -4 10.5t-5.5 21.5 t-6.5 21.5t-5 12.5q0 2 -12 3t-20 1q-4 0 -18.5 -1t-16.5 -3q-8 -4 -24.5 -20.5t-20.5 -24.5q-2 -4 -2 -9v-12q0 -4 1 -13t1 -11q2 -4 11 -12.5t13 -8.5q2 -2 18.5 -5t36 -6t35 -6t19.5 -5q6 -4 16 -13.5t21.5 -19.5t19.5 -20.5t10 -16.5q4 -2 5 -22.5t1 -30.5t-1 -32 t-5 -24q-2 -8 -11 -22t-19.5 -28.5t-20.5 -26t-16 -13.5q-2 -2 -25.5 -4t-38.5 -2q-14 0 -40.5 2t-28.5 4q-4 2 -13.5 10.5t-20.5 18.5t-20.5 20.5t-11.5 16.5q-4 8 -10 38t-6 38zM582 1802l-45 21h157l-45 -21v-401l45 -23h-157l45 23v401zM737 1823q6 0 23.5 2t21.5 2 q10 0 26.5 -2t18.5 -2t10.5 -7.5t12.5 -13.5t13 -23.5t9 -21.5v-12t1 -27.5t1 -31v-23.5v-27.5t-1 -35t-1 -29.5v-15q-2 -10 -5 -33.5t-6 -48t-6 -45t-5 -28.5q-2 -6 -10.5 -14.5t-12.5 -8.5q-6 0 -18 -2t-26.5 -3t-27 -2t-18.5 -1v453zM1073 1812h-112v-198h67 q-6 0 -16.5 -3t-20.5 -9.5t-19 -13.5t-11 -11q-2 -2 -5.5 -15.5t-6.5 -31t-6 -34.5t-3 -28q-2 -10 -1 -23t3 -26q2 -14 2 -30h129l-178 -11v45v45q0 20 3 70.5t6 107t6 106.5t5 71zM1786 1434v100q-8 0 -26.5 3t-40 6t-40 7t-26.5 6q-2 0 -10.5 8.5l-12.5 12.5 q-4 8 -12 25.5t-8 19.5q-2 12 -4 41t-3 60.5t-2.5 60t-1.5 39.5h87v-221h112v231q8 0 28.5 -3t28.5 -7q2 -2 10.5 -9.5t10.5 -11.5v-21.5t1 -33.5t1 -34.5v-22.5v-27.5t-1 -36t-1 -33v-16.5q0 -12 -3 -35.5t-7 -48.5t-7.5 -45.5t-3.5 -24.5q-4 -10 -22 -27.5t-25 -17.5h-198 v56h176zM782 1423l23 21v336h-23v-357zM1475 1577q-4 2 -7.5 -1t-3.5 -8t3 -9.5t8 -2.5q10 4 10 10.5t-10 10.5zM1186 1622h108v158h-108v-158zM434 1782q-2 0 -2 -1t-2 -1h-4l-23 -133q2 0 5.5 -2.5t7.5 -2.5h2q2 0 4 3q2 0 4 2q8 4 25.5 21.5t19.5 21.5q0 2 1 14t1 16 q0 8 -1 21.5t-1 15.5q0 4 -9 12.5t-13 10.5h-7h-6q-2 0 -2 2zM1532 262q0 4 -9.5 12.5t-13.5 10.5q-10 2 -33.5 2t-33.5 -2q2 4 10 12t12 10q2 0 14.5 1t18.5 1q8 0 20.5 -1t14.5 -1q4 -2 12 -10t10 -12q0 -2 1 -15.5t1 -19.5t-1 -18.5t-1 -14.5q-4 -8 -21 -33.5t-24 -33.5 l45 -21h-112q4 6 14 18.5t20.5 25.5t19.5 25.5t13 18.5q4 8 13.5 25.5t9.5 19.5z" />
<glyph unicode="&#xad;" horiz-adv-x="628" d="M33 455q-35 0 -52.5 18.5t-17.5 40.5q0 20 14.5 38.5t42.5 25.5h594q31 -4 46.5 -21.5t15.5 -40.5t-17.5 -42t-52.5 -19h-573z" />
<glyph unicode="&#xae;" horiz-adv-x="4204" d="M102 72q0 10 2 21t9 18l1964 2099q8 10 30 10q6 0 16.5 -4t16.5 -10l1897 -2054q23 -16 44 -40t21 -53q0 -25 -16.5 -41t-38.5 -16h-84l-3803 16q-8 0 -19.5 6.5t-17.5 10.5q-21 8 -21 37zM240 119q0 -10 9 -17.5t19 -7.5l3554 -16h108q35 0 35 31q0 18 -10 28 l-1823 1952q-4 6 -13.5 7t-17.5 1q-27 0 -43 -14l-1800 -1923q-18 -18 -18 -41zM3064 399q0 -10 -1 -11t3 -7l72 -221h-3h-4h-4h-194v8l-146 750h168l856 -756l4 -6h-98h-98h-41t-27 4l-246 239h-241zM2247 162q-6 2 -6 10v23l-70 723v2h4h35h31h96v-7l39 -233l16 -62 l51 -247l353 -2l4 -2q16 -49 38.5 -103.5t49.5 -101.5v-2q-164 0 -322.5 1t-318.5 1zM1577 924h158l16 -435l2 3l211 430h131l-313 -752h-236v53zM1092 924l4 2h28h101.5t99.5 -2q6 0 32.5 -3t33.5 -6q51 -10 75.5 -48t24.5 -87q0 -53 -17.5 -100t-43.5 -92 q-16 -29 -39 -61.5t-41 -57.5q-84 -98 -188.5 -164.5t-225.5 -105.5q-4 -2 -20.5 -6.5t-20.5 -4.5q-59 -10 -116.5 -13t-119.5 -3h-92h-36.5h-55.5t-55.5 1t-36.5 1zM813 387h105q23 0 41 7t34 12q94 35 164 104.5t117 151.5q10 23 22.5 49t12.5 53q0 23 -12.5 34t-30 15 t-38 4h-34.5h-17.5t-13.5 -2l-4 -2zM2957 750q0 -4 6.5 -31t10.5 -39t10 -32.5t13 -40t13 -33.5l5 -15h131l-189 195v-4zM1915 1354l2 2h6h12q39 0 96.5 -1t110.5 -1h131l2 -4l62 -312v-4q-123 0 -245 1t-245 3zM1985 1690l4 8h14h18q23 -2 53.5 -2h59.5h72l4 -8l45 -236 h-320zM2032 1911l6 4h125l32 -158h-192v12zM2058 2046h82l12 -86h-110z" />
<glyph unicode="&#xbc;" horiz-adv-x="1374" d="M98 1145q-16 -6 -28 -6q-27 0 -43.5 17.5t-16.5 39.5q0 27 21 49q27 18 57.5 43t63 47.5t66.5 38t69 19.5q45 -6 61 -45q6 -23 6 -48q0 -45 -11 -93t-13 -91v-59q0 -104 5 -209t7 -209q-8 -29 -25.5 -42t-37.5 -13q-18 0 -36 12t-24 41q-2 104 -7 208.5t-5 209.5v59 q0 27 7 59.5t11 65.5q-35 -23 -67.5 -50.5t-59.5 -43.5zM1042 1397q25 27 54 26q23 0 40 -16t17 -43q0 -20 -12 -41q-66 -96 -119 -198.5t-111 -206.5q-70 -127 -149.5 -249t-157.5 -245q-29 -45 -53.5 -88t-54.5 -86q-20 -29 -46 -57.5t-50.5 -58.5t-43 -62.5t-24.5 -69.5 q-8 -29 -25.5 -42t-38.5 -13q-23 0 -40 16.5t-17 48.5v8q8 45 27.5 85t46 77t56.5 71t56 71q31 43 55.5 86t53.5 88q76 119 153.5 236.5t143.5 240.5q59 106 114 214t125 208zM1159 453q4 33 22.5 49t41.5 16t39 -15.5t20 -47.5v-84t2 -84q12 4 21 4q23 0 41 -17.5t18 -46.5 q0 -14 -2 -20q-6 -16 -19.5 -30.5t-35.5 -16.5h-19q2 -29 2 -59.5v-59.5q-8 -29 -25.5 -42t-37.5 -13q-18 0 -35.5 12t-24.5 41v53.5t-2 52.5q-45 -4 -83 -8t-42 -4q-39 2 -75.5 4t-73.5 13q-8 2 -28.5 12t-24.5 10h-2l4 -4q-16 12 -24.5 24.5t-8.5 30.5q0 4 1 7t1 8 q35 100 88 193t102 185q20 37 39 72q6 10 8.5 26.5t12.5 22.5q20 31 53 31q39 0 57 -43v-12q0 -33 -24.5 -88.5t-59 -120t-71.5 -130t-64 -116.5q16 -4 38 -5t44 -1q35 0 69 2t60 6q-2 47 -2 96.5v96.5z" />
<glyph unicode="&#xbd;" horiz-adv-x="1406" d="M98 1135q-16 -6 -28 -7q-27 0 -43.5 17.5t-16.5 40.5q0 27 21 49q27 18 57.5 43t63 47.5t66.5 37.5t69 19q45 -6 61 -45q6 -23 6 -47q0 -45 -11 -93t-13 -91v-59q0 -104 5 -209t7 -209q-8 -29 -25.5 -42.5t-37.5 -13.5q-18 0 -36 12.5t-24 41.5q-2 104 -7 208.5t-5 208.5 v60q0 27 7 59.5t11 65.5q-35 -23 -67.5 -50.5t-59.5 -43.5zM999 1397q25 27 54 26q23 0 40 -16t17 -43q0 -20 -12 -41q-66 -96 -119 -198.5t-111 -206.5q-70 -127 -149.5 -249t-157.5 -245q-29 -45 -53.5 -88t-54.5 -86q-20 -29 -46 -57.5t-50.5 -58.5t-43 -62.5 t-24.5 -69.5q-8 -29 -25.5 -42t-38.5 -13q-23 0 -40 16.5t-17 48.5v8q8 45 27.5 85t46 77t56.5 71t56 71q31 43 55.5 86t53.5 88q76 119 153.5 236.5t143.5 240.5q59 106 114 214t125 208zM948 606q-33 0 -51 18.5t-18 43.5q0 16 8 31.5t31 25.5q61 23 120 23 q72 0 133.5 -32t102.5 -100q10 -18 20.5 -40.5t10.5 -45.5v-34q0 -20 -2.5 -45t-6.5 -39q-18 -45 -48.5 -82t-64.5 -70t-69 -61.5t-63 -55.5q31 2 61.5 5.5t63.5 3.5q41 0 79.5 -7.5t79.5 -9.5q31 -4 46.5 -21.5t15.5 -39.5q0 -23 -17.5 -42.5t-52.5 -19.5q-41 4 -82 10.5 t-84 6.5q-41 0 -76.5 -4.5t-74.5 -4.5q-35 0 -82 11q-49 14 -49 59q0 14 6 33q20 53 62 90t88 73t86 74.5t59 94.5q6 18 6 39q0 29 -13.5 52t-35 40.5t-48 28t-53.5 14.5q-47 -7 -88 -23z" />
<glyph unicode="&#xbe;" horiz-adv-x="1370" d="M121 1165q-23 -16 -47 -16q-25 0 -41.5 16.5t-16.5 38.5q0 27 21 49q39 41 87 61.5t97 20.5q76 0 133.5 -46t57.5 -132v-18q-4 -41 -21.5 -69t-40.5 -54q53 -27 86 -68q25 -31 35 -61.5t10 -61.5q0 -53 -29.5 -101t-75.5 -85t-101.5 -58.5t-108.5 -21.5q-47 0 -88 20.5 t-64 65.5q-2 6 -3 11.5t-1 11.5q0 29 18.5 45t43.5 16q29 0 51 -22q12 -27 49 -27q25 0 55.5 12.5t58 31.5t47 43t21.5 46v12q0 35 -20.5 52.5t-48 29t-53 24.5t-37.5 38q-6 12 -7 24q0 23 16.5 44.5t35 41t35 39t16.5 37.5q0 16 -19 35q-31 27 -67 27q-14 0 -21 -3 q-23 -4 -35 -18.5t-28 -30.5zM1038 1397q25 27 54 26q23 0 40 -16t17 -43q0 -20 -12 -41q-66 -96 -119 -198.5t-111 -206.5q-70 -127 -149.5 -249t-157.5 -245q-29 -45 -53.5 -88t-54.5 -86q-20 -29 -46 -57.5t-50.5 -58.5t-43 -62.5t-24.5 -69.5q-8 -29 -25.5 -42 t-38.5 -13q-23 0 -40 16.5t-17 48.5v8q8 45 27.5 85t46 77t56.5 71t56 71q31 43 55.5 86t53.5 88q76 119 153.5 236.5t143.5 240.5q59 106 114 214t125 208zM1155 440q4 33 22.5 49.5t41.5 16.5t39 -15.5t20 -48.5v-84t2 -84q12 4 20 5q23 0 41.5 -17.5t18.5 -46.5 q0 -14 -2 -20q-6 -16 -19.5 -30.5t-35.5 -17.5h-19q2 -29 2 -59.5v-58.5q-8 -29 -25.5 -42.5t-37.5 -13.5q-18 0 -36 12.5t-24 41.5v53t-2 53q-45 -4 -83 -8t-42 -4q-39 2 -75.5 4t-73.5 12q-8 2 -28.5 12.5t-24.5 10.5h-3l5 -4q-16 12 -24.5 24.5t-8.5 30.5q0 4 1 7t1 7 q35 100 88 193.5t102 185.5q20 37 39 72q6 10 8 26.5t13 22.5q20 31 53 31q39 0 57 -43v-13q0 -33 -24.5 -88t-59 -119.5t-71.5 -130t-64 -116.5q16 -4 38 -5t44 -1q35 0 68.5 2t60.5 6q-2 47 -2 96v96z" />
<glyph unicode="&#x2dc;" horiz-adv-x="1705" />
<glyph unicode="&#x2000;" horiz-adv-x="1110" />
<glyph unicode="&#x2001;" horiz-adv-x="2220" />
<glyph unicode="&#x2002;" horiz-adv-x="1110" />
<glyph unicode="&#x2003;" horiz-adv-x="2220" />
<glyph unicode="&#x2004;" horiz-adv-x="740" />
<glyph unicode="&#x2005;" horiz-adv-x="555" />
<glyph unicode="&#x2006;" horiz-adv-x="370" />
<glyph unicode="&#x2007;" horiz-adv-x="370" />
<glyph unicode="&#x2008;" horiz-adv-x="277" />
<glyph unicode="&#x2009;" horiz-adv-x="444" />
<glyph unicode="&#x200a;" horiz-adv-x="123" />
<glyph unicode="&#x2010;" horiz-adv-x="628" d="M33 455q-35 0 -52.5 18.5t-17.5 40.5q0 20 14.5 38.5t42.5 25.5h594q31 -4 46.5 -21.5t15.5 -40.5t-17.5 -42t-52.5 -19h-573z" />
<glyph unicode="&#x2011;" horiz-adv-x="628" d="M33 455q-35 0 -52.5 18.5t-17.5 40.5q0 20 14.5 38.5t42.5 25.5h594q31 -4 46.5 -21.5t15.5 -40.5t-17.5 -42t-52.5 -19h-573z" />
<glyph unicode="&#x2012;" horiz-adv-x="628" d="M33 455q-35 0 -52.5 18.5t-17.5 40.5q0 20 14.5 38.5t42.5 25.5h594q31 -4 46.5 -21.5t15.5 -40.5t-17.5 -42t-52.5 -19h-573z" />
<glyph unicode="&#x2013;" horiz-adv-x="1705" />
<glyph unicode="&#x2014;" horiz-adv-x="1705" />
<glyph unicode="&#x2018;" horiz-adv-x="1705" />
<glyph unicode="&#x2019;" horiz-adv-x="1705" />
<glyph unicode="&#x201c;" horiz-adv-x="1705" />
<glyph unicode="&#x201d;" horiz-adv-x="1705" />
<glyph unicode="&#x2022;" horiz-adv-x="1888" d="M885 219h-35v10q2 16 4 43t6 52q4 29 6 59h37l58 -111v107h26q4 -35 6 -80t2 -84h-39q-2 0 -12 16.5t-16 26.5q-4 8 -17.5 34.5t-17.5 35.5zM1034 229q-4 23 -6 47.5t-2 47.5v12q4 0 13.5 2t13.5 2h2h2q0 -2 1 -2t1 -2t2 -4q4 -23 8 -48.5t4 -50.5v-10q-4 -2 -15 -3 t-16 -1h-4q-2 0 -3 4t-1 6zM676 289q-4 -4 -10.5 -13.5t-10.5 -13.5q0 -2 -2 -2t-2 -2q-4 0 -19.5 4t-15.5 10v4l97 138l41 -13q2 -4 2 -8v-8t2 -6q0 -8 2 -26.5t4 -38t3 -37t1 -23.5q0 -4 1 -12.5t1 -12.5q-6 0 -22.5 1t-18.5 8l-8 43q0 2 -11.5 4t-19.5 4h-8h-6zM1092 297 q0 35 23.5 49t53.5 14v-24q-14 -4 -27.5 -10.5t-13.5 -24.5q0 -14 8.5 -25.5t22.5 -11.5q10 0 15.5 2t15.5 6q8 -12 8 -18q0 -12 -21.5 -16.5t-29.5 -4.5q-29 0 -42 17.5t-13 46.5zM1198 326q0 27 16.5 45t42.5 18q18 0 36 -15.5t18 -33.5v-4l-70 -29q6 -10 21 -10 q14 0 25 8t24 8q6 0 9 -6t3 -10q0 -6 -9 -12t-20.5 -11.5t-24 -7.5t-18.5 -2q-25 0 -39 18.5t-14 43.5zM457 371q0 27 19.5 45t45.5 18q23 0 41.5 -13t18.5 -38q0 -8 -4.5 -24.5t-14.5 -16.5h-2q-2 0 -4 2l-57 27h-2q0 -14 8 -22.5t18.5 -12.5t18.5 -6t8 -6q0 -20 -16 -21 q-25 0 -51.5 19.5t-26.5 48.5zM694 322q0 -4 11.5 -7.5t15.5 -3.5v60l-27 -47v-2zM1331 471q0 2 2 4q23 16 45.5 30.5t48.5 14.5q35 0 58.5 -29.5t23.5 -62.5q0 -14 -10 -31.5t-25.5 -32t-33 -23.5t-31.5 -9h-4zM1253 362q-23 0 -22 -26q6 0 21.5 3t15.5 11q-1 12 -15 12z M1022 375q0 16 16 16t17 -18q0 -14 -17 -15q-16 1 -16 17zM1423 383q2 -2 4.5 -5t4.5 -3h2q16 0 26 16.5t10 32.5q0 23 -16 42t-39 19q-8 0 -23.5 -4t-15.5 -14v-2q2 -2 4 -8t4 -8q2 -4 7.5 -13.5t11.5 -21t12 -20.5t8 -11zM512 397l2 -4q4 -2 16.5 -7t16.5 -7v10 q0 16 -17 17h-12t-8 -7zM354 426l33 100l4 4l6 -6q8 -8 13 -10q8 -6 8 -10v-4l-23 -70l58 45l4 2q4 0 17 -7t13 -11v-2q-2 -2 -9 -8.5t-9 -8.5q-4 -2 -14.5 -9l-22.5 -15t-22.5 -15.5t-16.5 -11.5l-6 -2q-10 0 -21.5 10.5t-11.5 20.5v8zM1530 481q0 16 8 29.5t18 28.5v2 q-14 0 -22 -9.5t-16 -19.5h-2q-4 0 -10.5 3t-8.5 7q-2 6 6 16.5t19.5 18.5t24 14.5t18.5 6.5q10 0 19 -5.5t15 -11.5q10 -10 29 -27.5t19 -19.5v-6l-21 -21h-10q-6 -18 -18.5 -30.5t-32.5 -12.5q-35 0 -35 37zM229 532q0 37 37 37q16 0 30.5 -8t27.5 -18q4 0 4 4v2 q0 14 -17.5 20t-17.5 19q0 14 12 14q23 0 38 -22.5t15 -42.5q0 -27 -16 -43.5t-33 -36.5l-4 -4h-2q-16 0 -19 12t-12 18q-16 14 -29.5 18t-13.5 31zM1565 496q0 -12 14 -13q14 0 14 17q0 6 -3 13t-11 7q-6 0 -10 -10t-4 -14zM1690 516q0 8 2 14.5t2 16.5v14q-2 0 -2 1t-2 1 t-4 2q-4 0 -14.5 4t-23 8.5t-23.5 7.5t-13 5q-4 2 -16.5 6t-16.5 4q0 2 -2 4q4 6 11 17.5t18 11.5h6l67 -27l-45 62v2q0 8 7.5 20t15.5 12h2q0 -2 3 -4t3 -4q23 -31 45.5 -66.5t22.5 -74.5q0 -8 -3.5 -28.5t-15.5 -20.5h-2q-2 0 -10 4l-12 6v2zM268 520q0 -8 6.5 -11 t12.5 -3t12 4t6 10t-8 10.5t-14 4.5q-15 -1 -15 -15zM332 1176q0 123 46 231.5t126 189t188.5 128t233.5 47.5t235.5 -50.5t193.5 -135.5t131 -196.5t48 -236.5q0 -121 -47 -229.5t-128 -189.5t-189.5 -129t-229.5 -48q-129 0 -240.5 49t-192.5 133t-128 197t-47 240z M168 594q0 6 8 11t16.5 10.5t15.5 10.5t7 13v4q-4 6 -15.5 22.5t-15.5 20.5l-4 4l-55 -35q-4 -2 -13.5 15.5t-9.5 19.5v2v2q6 4 24.5 15.5t39 23.5t39 23.5t24.5 15.5l4 2q2 0 5 2h2q8 0 13 -10t5 -16t-4 -9q-4 -4 -19.5 -14t-19.5 -12v-4q0 -10 12.5 -28.5t22.5 -18.5h4 q6 4 19.5 14t23.5 16q4 -4 12 -11t8 -15q0 -2 -2 -4q-6 -6 -20 -18.5t-30.5 -27t-32 -27.5t-21.5 -18q-4 -2 -9 -6t-7 -6h-2h-3q-2 4 -7 10.5t-7 10.5q-2 2 -5 6t-3 6zM492 776q86 -92 195.5 -143t236.5 -51q119 0 226 46t188 126t128 186.5t47 226.5q0 117 -45 219.5 t-121.5 178t-181 120t-223.5 44.5q-123 0 -228.5 -45.5t-183 -124t-123 -184t-45.5 -228.5q0 -72 16.5 -149.5t57.5 -139.5q10 -14 31 -41t25 -41zM1739 684q0 10 6 20.5t20 10.5q8 0 14.5 -7.5t6.5 -15.5q0 -10 -8.5 -20t-18.5 -10q-20 -1 -20 22zM1634 741q-2 0 -4 3.5 t-4 5.5q0 4 8 13t13 13h2h2q2 -2 4 -2t2 -1t2 -1q4 -4 14 -10t21.5 -14.5t20.5 -14.5t14 -8q2 0 4 -3t4 -5q0 -6 -5.5 -14.5t-11.5 -8.5t-12 4q-4 2 -14.5 8.5t-22.5 13.5t-22.5 13t-14.5 8zM530 1077q-4 -18 -5 -42.5t-3 -39.5q-8 10 -8 23.5v25.5q0 61 51 107 q-6 -16 -15 -30.5t-15 -28.5v-2v-3q10 -18 24 -35.5t31 -33.5q141 -152 346 -152q111 0 203 44t164 124q2 0 11 12.5t13 18.5q8 10 8 14q0 16 -11 36t-21 32h2h2q27 -20 35 -50t8 -61v-26l-4 -11q0 4 -1.5 24.5t-3.5 25.5q0 4 -1 9t-3 7l-2 -2q0 -2 -2 -2 q-76 -94 -172 -160.5t-223 -66.5q-98 0 -187 45t-155 116q-2 2 -10 13.5t-18.5 23.5t-18.5 22.5t-10 14.5q-2 0 -4.5 3t-4.5 5zM674 1401q0 16 2 39.5t10 46t21.5 39t37.5 16.5q23 0 37.5 -16.5t21.5 -39t10 -47t3 -38.5q0 -16 -3 -40t-10 -46.5t-21.5 -38.5t-37.5 -16 q-25 0 -38 16t-21 38.5t-10 46.5t-2 40zM1030 1415q0 16 2 41t10.5 48.5t22.5 40t37 16.5t37 -15.5t22 -38t11.5 -47t3.5 -41.5q0 -16 -3.5 -40.5t-10.5 -46t-21.5 -37t-38.5 -15.5q-23 0 -36 15.5t-21.5 37t-11.5 44t-3 38.5z" />
<glyph unicode="&#x202f;" horiz-adv-x="444" />
<glyph unicode="&#x205f;" horiz-adv-x="555" />
<glyph unicode="&#x2122;" horiz-adv-x="1189" d="M1169 774q-12 -37 -90 -37q-29 0 -32 8q-10 127 -23 347q-2 4 -4 4t-6 -4l-82 -166q-49 -98 -53 -103q-14 -25 -37 -24q-37 -2 -49.5 16.5t-30.5 56.5q-45 104 -84 185q-45 -229 -76 -279q-20 -43 -63 -41q-39 -2 -47 21q23 217 126 637q8 8 44 12q35 4 45 -4 q47 -96 129 -318q123 209 221 330q35 4 51 4q41 0 53 -33q4 -14 4 -69q0 -29 9 -273q5 -168 -5 -270zM479 1427q4 -31 4 -61q0 -33 -4 -63q-49 0 -149 -9q-8 -4 -13 -49l-55 -516q-8 -8 -41 -8l-47 6q-4 2 -6 4q-18 219 4 531l2 28l-68 2q-96 2 -92 31l13 102q115 6 241 7 q102 -1 211 -5z" />
<glyph unicode="&#x25fc;" horiz-adv-x="2048" d="M0 2048h2048v-2048h-2048v2048z" />
</font>
</defs>
</svg>
